<svg id="kity_svg_6" xmlns="http://www.w3.org/2000/svg" xmlns:xlink="http://www.w3.org/1999/xlink" version="1.1" width="1017" height="340" style="background: rgb(251, 251, 251); visibility: visible;" viewBox="0 0 1017 340"><defs id="kity_defs_7"><linearGradient id="kity_linearGradient_17" x1="0" y1="0" x2="0" y2="1"><stop id="kity_stop_18" offset="0" stop-color="rgb(255, 255, 255)"></stop><stop id="kity_stop_19" offset="1" stop-color="rgb(204, 204, 204)"></stop></linearGradient><marker id="kity_marker_2" orient="auto" refX="6" refY="0" viewBox="-7 -7 14 14" markerWidth="7" markerHeight="7" markerUnits="userSpaceOnUse"><path id="kity_path_3" fill="rgb(115, 161, 191)" stroke="none" d="M6,0A6,6,0,1,1,-6,0A6,6,0,1,1,6,0"></path></marker></defs><g id="kity_g_8"><g id="minder1" text-rendering="optimize-speed"><g id="minder_connect_group1"><path id="kity_path_31" fill="none" stroke="rgb(115, 161, 191)" stroke-width="1" d="M551.5000114366412,48.50000470131636v10h-451.5V66.50000470131636"></path><path id="kity_path_33" fill="none" stroke="rgb(115, 161, 191)" stroke-width="1" d="M40.500011436641216,98.50000470131636V128.50000470131636L48.500011436641216,128.50000470131636"></path><path id="kity_path_35" fill="none" stroke="rgb(115, 161, 191)" stroke-width="1" d="M68.50001143664122,146.50000470131636V163.50000470131636L76.50001143664122,163.50000470131636"></path><path id="kity_path_37" fill="none" stroke="rgb(115, 161, 191)" stroke-width="1" d="M68.50001143664122,146.50000470131636V189.50000470131636L76.50001143664122,189.50000470131636"></path><path id="kity_path_39" fill="none" stroke="rgb(115, 161, 191)" stroke-width="1" d="M68.50001143664122,146.50000470131636V215.50000470131636L76.50001143664122,215.50000470131636"></path><path id="kity_path_41" fill="none" stroke="rgb(115, 161, 191)" stroke-width="1" d="M40.500011436641216,98.50000470131636V241.50000470131636L48.500011436641216,241.50000470131636"></path><path id="kity_path_43" fill="none" stroke="rgb(115, 161, 191)" stroke-width="1" d="M68.50001143664122,250.50000470131636V276.50000470131636L76.50001143664122,276.50000470131636"></path><path id="kity_path_45" fill="none" stroke="rgb(115, 161, 191)" stroke-width="1" d="M68.50001143664122,250.50000470131636V311.50000470131636L76.50001143664122,311.50000470131636"></path><path id="kity_path_47" fill="none" stroke="rgb(115, 161, 191)" stroke-width="1" d="M551.5000114366412,48.50000470131636v10h-190.5V66.50000470131636"></path><path id="kity_path_49" fill="none" stroke="rgb(115, 161, 191)" stroke-width="1" d="M316.5000114366412,98.50000470131636V128.50000470131636L324.5000114366412,128.50000470131636"></path><path id="kity_path_51" fill="none" stroke="rgb(115, 161, 191)" stroke-width="1" d="M344.5000114366412,146.50000470131636V163.50000470131636L352.5000114366412,163.50000470131636"></path><path id="kity_path_53" fill="none" stroke="rgb(115, 161, 191)" stroke-width="1" d="M316.5000114366412,98.50000470131636V189.50000470131636L324.5000114366412,189.50000470131636"></path><path id="kity_path_55" fill="none" stroke="rgb(115, 161, 191)" stroke-width="1" d="M344.5000114366412,198.50000470131636V215.50000470131636L352.5000114366412,215.50000470131636"></path><path id="kity_path_57" fill="none" stroke="rgb(115, 161, 191)" stroke-width="1" d="M551.5000114366412,48.50000470131636v10h-14.5V66.50000470131636"></path><path id="kity_path_59" fill="none" stroke="rgb(115, 161, 191)" stroke-width="1" d="M491.5000114366412,98.50000470131636V119.50000470131636L499.5000114366412,119.50000470131636"></path><path id="kity_path_61" fill="none" stroke="rgb(115, 161, 191)" stroke-width="1" d="M519.5000114366412,128.50000470131636V145.50000470131636L527.5000114366412,145.50000470131636"></path><path id="kity_path_63" fill="none" stroke="rgb(115, 161, 191)" stroke-width="1" d="M491.5000114366412,98.50000470131636V171.50000470131636L499.5000114366412,171.50000470131636"></path><path id="kity_path_65" fill="none" stroke="rgb(115, 161, 191)" stroke-width="1" d="M519.5000114366412,180.50000470131636V197.50000470131636L527.5000114366412,197.50000470131636"></path><path id="kity_path_67" fill="none" stroke="rgb(115, 161, 191)" stroke-width="1" d="M519.5000114366412,180.50000470131636V223.50000470131636L527.5000114366412,223.50000470131636"></path><path id="kity_path_69" fill="none" stroke="rgb(115, 161, 191)" stroke-width="1" d="M491.5000114366412,98.50000470131636V249.50000470131636L499.5000114366412,249.50000470131636"></path><path id="kity_path_71" fill="none" stroke="rgb(115, 161, 191)" stroke-width="1" d="M519.5000114366412,258.50000470131636V293.50000470131636L527.5000114366412,293.50000470131636"></path><path id="kity_path_73" fill="none" stroke="rgb(115, 161, 191)" stroke-width="1" d="M551.5000114366412,48.50000470131636v10h305V70.50000470131636"></path><path id="kity_path_75" fill="none" stroke="rgb(115, 161, 191)" stroke-width="1" d="M786.5000114366412,102.50000470131636V123.50000470131636L794.5000114366412,123.50000470131636"></path><path id="kity_path_77" fill="none" stroke="rgb(115, 161, 191)" stroke-width="1" d="M786.5000114366412,102.50000470131636V149.50000470131636L794.5000114366412,149.50000470131636"></path><path id="kity_path_79" fill="none" stroke="rgb(115, 161, 191)" stroke-width="1" d="M814.5000114366412,158.50000470131636V175.50000470131636L822.5000114366412,175.50000470131636"></path><path id="kity_path_81" fill="none" stroke="rgb(115, 161, 191)" stroke-width="1" d="M814.5000114366412,158.50000470131636V201.50000470131636L822.5000114366412,201.50000470131636"></path></g><g id="minder_node1"><path id="node_outline1" fill="#8db3e2" stroke="rgb(57, 80, 96)" d="M480.5000114366412,20.500004701316357h142a5,5,0,0,1,5,5v18a5,5,0,0,1,-5,5h-142a5,5,0,0,1,-5,-5v-18a5,5,0,0,1,5,-5z" stroke-width="3"></path><g id="node_text1" fill="#ffffff"><text id="kity_text_22" text-rendering="inherit" font-size="16" dy=".8em" y="24.10000466555357" font-family="微软雅黑,Microsoft YaHei" font-weight="bold" x="487.5000114366412">科技、娱乐、设计</text></g></g><g id="kity_g_12"><path id="kity_path_13" fill="none" stroke="none" d="M487.5000114366412,34.50000470131636h0v0h0z"></path></g><g id="kity_g_14"><path id="kity_path_15" fill="none" stroke="none" d="M487.5000114366412,34.50000470131636h0v0h0z"></path><path id="kity_path_16" fill="none" stroke="none"></path></g><g id="minder_node2"><g id="node_expander8" style="cursor: pointer;"><path id="kity_path_207" fill="white" stroke="gray" d="M106.00000566244125,59.50000507384539A6,6,0,1,1,94.00000566244125,59.50000507384539A6,6,0,1,1,106.00000566244125,59.50000507384539"></path><path id="kity_path_208" fill="none" stroke="gray" d="M95.50000566244125,59.50000507384539L104.50000566244125,59.50000507384539"></path></g><path id="node_outline9" fill="#8db3e2" stroke="rgb(115, 161, 191)" d="M23.500005148351192,66.5000054165721h153a3,3,0,0,1,3,3v26a3,3,0,0,1,-3,3h-153a3,3,0,0,1,-3,-3v-26a3,3,0,0,1,3,-3z" stroke-width="1"></path><g id="node_text9" fill="#ffffff"><text id="kity_text_99" text-rendering="inherit" font-family="微软雅黑,Microsoft YaHei" font-size="14" dy=".8em" font-weight="bold" y="73.40000538527966" x="65.50000514835119">平台 Platform</text></g><g id="node_priority1"><path id="kity_path_141" fill="#B25000" stroke="none" d="M41.00000478327274,86.00000527501106c0,3.866,3.134,7,7,7h6c3.866,0,7,-3.134,7,-7V80.00000527501106H41.00000478327274V86.00000527501106z"></path><path id="kity_path_142" fill="#FF962E" stroke="none" d="M61.00000478327274,83.00000527501106c0,3.866,-3.134,7,-7,7H48.00000478327274c-3.866,0,-7,-3.134,-7,-7V80.00000527501106c0,-3.866,3.134,-7,7,-7h6c3.866,0,7,3.134,7,7V83.00000527501106z" opacity="0.8"></path><text id="kity_text_143" text-rendering="geometricPrecision" x="50.00000477582216" y="82.50000526756048" text-anchor="middle" font-style="italic" font-size="12" fill="white" dy="5">4</text></g></g><g id="minder_node3"><g id="node_expander4" style="cursor: pointer;"><path id="kity_path_195" fill="white" stroke="gray" d="M48.500004805624485,128.5000061020255A6,6,0,1,1,36.500004805624485,128.5000061020255A6,6,0,1,1,48.500004805624485,128.5000061020255"></path><path id="kity_path_196" fill="none" stroke="gray" d="M38.000004805624485,128.5000061020255L47.000004805624485,128.5000061020255"></path></g><path id="node_outline5" fill="#8db3e2" stroke="none" d="M53.50000496953726,110.50000610202551h110a5,5,0,0,1,5,5v26a5,5,0,0,1,-5,5h-110a5,5,0,0,1,-5,-5v-26a5,5,0,0,1,5,-5z"></path><g id="node_text5" fill="#ffffff"><text id="kity_text_89" text-rendering="inherit" font-family="微软雅黑,Microsoft YaHei" font-size="12" dy=".8em" font-weight="bold" y="111.70000607520342" x="53.50000496953726">情感化设计</text><text id="kity_text_90" text-rendering="inherit" font-family="微软雅黑,Microsoft YaHei" font-size="12" dy=".8em" font-weight="bold" y="129.70000607520342" x="53.50000496953726">&#xa0;Emotional Design</text></g></g><g id="minder_node4"><g id="node_expander1" display="none" style="cursor: pointer;"><path id="kity_path_186" fill="white" stroke="gray" d="M76.500005222857,163.50000662356615A6,6,0,1,1,64.500005222857,163.50000662356615A6,6,0,1,1,76.500005222857,163.50000662356615"></path><path id="kity_path_187" fill="none" stroke="gray"></path></g><path id="node_outline2" fill="none" stroke="none" d="M81.50000538676977,154.50000662356615h25a5,5,0,0,1,5,5v8a5,5,0,0,1,-5,5h-25a5,5,0,0,1,-5,-5v-8a5,5,0,0,1,5,-5z"></path><g id="node_text2" fill="black"><text id="kity_text_83" text-rendering="inherit" font-size="12" dy=".8em" y="155.70000659674406" x="81.50000538676977">本能</text></g></g><g id="minder_node5"><g id="node_expander2" display="none" style="cursor: pointer;"><path id="kity_path_189" fill="white" stroke="gray" d="M76.500005222857,189.50000701099634A6,6,0,1,1,64.500005222857,189.50000701099634A6,6,0,1,1,76.500005222857,189.50000701099634"></path><path id="kity_path_190" fill="none" stroke="gray"></path></g><path id="node_outline3" fill="none" stroke="none" d="M81.50000538676977,180.50000701099634h25a5,5,0,0,1,5,5v8a5,5,0,0,1,-5,5h-25a5,5,0,0,1,-5,-5v-8a5,5,0,0,1,5,-5z"></path><g id="node_text3" fill="black"><text id="kity_text_85" text-rendering="inherit" font-size="12" dy=".8em" y="181.70000698417425" x="81.50000538676977">行为</text></g></g><g id="minder_node6"><g id="node_expander3" display="none" style="cursor: pointer;"><path id="kity_path_192" fill="white" stroke="gray" d="M76.500005222857,215.50000739842653A6,6,0,1,1,64.500005222857,215.50000739842653A6,6,0,1,1,76.500005222857,215.50000739842653"></path><path id="kity_path_193" fill="none" stroke="gray"></path></g><path id="node_outline4" fill="none" stroke="none" d="M81.50000538676977,206.50000739842653h26a5,5,0,0,1,5,5v8a5,5,0,0,1,-5,5h-26a5,5,0,0,1,-5,-5v-8a5,5,0,0,1,5,-5z"></path><g id="node_text4" fill="black"><text id="kity_text_87" text-rendering="inherit" font-size="12" dy=".8em" y="207.70000737160444" x="81.50000538676977">反思</text></g></g><g id="minder_node7"><g id="node_expander7" style="cursor: pointer;"><path id="kity_path_204" fill="white" stroke="gray" d="M48.500004805624485,241.50000778585672A6,6,0,1,1,36.500004805624485,241.50000778585672A6,6,0,1,1,48.500004805624485,241.50000778585672"></path><path id="kity_path_205" fill="none" stroke="gray" d="M38.000004805624485,241.50000778585672L47.000004805624485,241.50000778585672"></path></g><path id="node_outline8" fill="#8db3e2" stroke="none" d="M53.50000496953726,232.50000778585672h129a5,5,0,0,1,5,5v8a5,5,0,0,1,-5,5h-129a5,5,0,0,1,-5,-5v-8a5,5,0,0,1,5,-5z"></path><g id="node_text8" fill="#ffffff"><text id="kity_text_97" text-rendering="inherit" font-family="微软雅黑,Microsoft YaHei" font-size="12" dy=".8em" font-weight="bold" y="233.70000775903463" x="53.50000496953726">过滤气泡&#xa0;Filter bubble</text></g></g><g id="minder_node8"><g id="node_expander5" display="none" style="cursor: pointer;"><path id="kity_path_198" fill="white" stroke="gray" d="M76.500005222857,276.50000830739737A6,6,0,1,1,64.500005222857,276.50000830739737A6,6,0,1,1,76.500005222857,276.50000830739737"></path><path id="kity_path_199" fill="none" stroke="gray"></path></g><path id="node_outline6" fill="none" stroke="none" d="M81.50000538676977,258.50000830739737h194a5,5,0,0,1,5,5v26a5,5,0,0,1,-5,5h-194a5,5,0,0,1,-5,-5v-26a5,5,0,0,1,5,-5z"></path><g id="node_text6" fill="black"><text id="kity_text_92" text-rendering="inherit" font-size="12" dy=".8em" y="259.7000082805753" x="81.50000538676977">过滤气泡（Filter bubble）</text><text id="kity_text_93" text-rendering="inherit" font-size="12" dy=".8em" y="277.7000082805753" x="81.50000538676977">是一种能分隔开人们意识形态的算法</text></g></g><g id="minder_node9"><g id="node_expander6" display="none" style="cursor: pointer;"><path id="kity_path_201" fill="white" stroke="gray" d="M76.500005222857,311.500008828938A6,6,0,1,1,64.500005222857,311.500008828938A6,6,0,1,1,76.500005222857,311.500008828938"></path><path id="kity_path_202" fill="none" stroke="gray"></path></g><path id="node_outline7" fill="none" stroke="none" d="M81.50000538676977,302.500008828938h49a5,5,0,0,1,5,5v8a5,5,0,0,1,-5,5h-49a5,5,0,0,1,-5,-5v-8a5,5,0,0,1,5,-5z"></path><g id="node_text7" fill="black"><text id="kity_text_95" text-rendering="inherit" font-size="12" dy=".8em" y="303.7000088021159" x="81.50000538676977">算法透明</text></g></g><g id="minder_node10"><g id="node_expander13" style="cursor: pointer;"><path id="kity_path_222" fill="white" stroke="gray" d="M367.0000095516443,59.50000507384539A6,6,0,1,1,355.0000095516443,59.50000507384539A6,6,0,1,1,367.0000095516443,59.50000507384539"></path><path id="kity_path_223" fill="none" stroke="gray" d="M356.5000095516443,59.50000507384539L365.5000095516443,59.50000507384539"></path></g><path id="node_outline14" fill="#8db3e2" stroke="rgb(115, 161, 191)" d="M299.5000092610717,66.5000054165721h123a3,3,0,0,1,3,3v26a3,3,0,0,1,-3,3h-123a3,3,0,0,1,-3,-3v-26a3,3,0,0,1,3,-3z" stroke-width="1"></path><g id="node_text14" fill="#ffffff"><text id="kity_text_110" text-rendering="inherit" font-family="微软雅黑,Microsoft YaHei" font-size="14" dy=".8em" font-weight="bold" y="73.40000538527966" x="341.5000092610717">用户 User</text></g><g id="node_priority2"><path id="kity_path_146" fill="#B25000" stroke="none" d="M317.00000889599323,86.00000527501106c0,3.866,3.134,7,7,7h6c3.866,0,7,-3.134,7,-7V80.00000527501106H317.00000889599323V86.00000527501106z"></path><path id="kity_path_147" fill="#FF962E" stroke="none" d="M337.00000889599323,83.00000527501106c0,3.866,-3.134,7,-7,7H324.00000889599323c-3.866,0,-7,-3.134,-7,-7V80.00000527501106c0,-3.866,3.134,-7,7,-7h6c3.866,0,7,3.134,7,7V83.00000527501106z" opacity="0.8"></path><text id="kity_text_148" text-rendering="geometricPrecision" x="326.00000888854265" y="82.50000526756048" text-anchor="middle" font-style="italic" font-size="12" fill="white" dy="5">4</text></g></g><g id="minder_node11"><g id="node_expander10" style="cursor: pointer;"><path id="kity_path_213" fill="white" stroke="gray" d="M324.500008918345,128.5000061020255A6,6,0,1,1,312.500008918345,128.5000061020255A6,6,0,1,1,324.500008918345,128.5000061020255"></path><path id="kity_path_214" fill="none" stroke="gray" d="M314.000008918345,128.5000061020255L323.000008918345,128.5000061020255"></path></g><path id="node_outline11" fill="#8db3e2" stroke="none" d="M329.50000908225775,110.50000610202551h121a5,5,0,0,1,5,5v26a5,5,0,0,1,-5,5h-121a5,5,0,0,1,-5,-5v-26a5,5,0,0,1,5,-5z"></path><g id="node_text11" fill="#ffffff"><text id="kity_text_103" text-rendering="inherit" font-family="微软雅黑,Microsoft YaHei" font-size="12" dy=".8em" font-weight="bold" y="111.70000607520342" x="329.50000908225775">积极心理学&#xa0;</text><text id="kity_text_104" text-rendering="inherit" font-family="微软雅黑,Microsoft YaHei" font-size="12" dy=".8em" font-weight="bold" y="129.70000607520342" x="329.50000908225775">Positive Psychology</text></g></g><g id="minder_node12"><g id="node_expander9" display="none" style="cursor: pointer;"><path id="kity_path_210" fill="white" stroke="gray" d="M352.5000093355775,163.50000662356615A6,6,0,1,1,340.5000093355775,163.50000662356615A6,6,0,1,1,352.5000093355775,163.50000662356615"></path><path id="kity_path_211" fill="none" stroke="gray"></path></g><path id="node_outline10" fill="none" stroke="none" d="M357.50000949949026,154.50000662356615h49a5,5,0,0,1,5,5v8a5,5,0,0,1,-5,5h-49a5,5,0,0,1,-5,-5v-8a5,5,0,0,1,5,-5z"></path><g id="node_text10" fill="black"><text id="kity_text_101" text-rendering="inherit" font-size="12" dy=".8em" y="155.70000659674406" x="357.50000949949026">三个目标</text></g></g><g id="minder_node13"><g id="node_expander12" style="cursor: pointer;"><path id="kity_path_219" fill="white" stroke="gray" d="M324.500008918345,189.50000701099634A6,6,0,1,1,312.500008918345,189.50000701099634A6,6,0,1,1,324.500008918345,189.50000701099634"></path><path id="kity_path_220" fill="none" stroke="gray" d="M314.000008918345,189.50000701099634L323.000008918345,189.50000701099634"></path></g><path id="node_outline13" fill="#8db3e2" stroke="none" d="M329.50000908225775,180.50000701099634h64a5,5,0,0,1,5,5v8a5,5,0,0,1,-5,5h-64a5,5,0,0,1,-5,-5v-8a5,5,0,0,1,5,-5z"></path><g id="node_text13" fill="#ffffff"><text id="kity_text_108" text-rendering="inherit" font-family="微软雅黑,Microsoft YaHei" font-size="12" dy=".8em" font-weight="bold" y="181.70000698417425" x="329.50000908225775">情绪 Mood</text></g></g><g id="minder_node14"><g id="node_expander11" display="none" style="cursor: pointer;"><path id="kity_path_216" fill="white" stroke="gray" d="M352.5000093355775,215.50000739842653A6,6,0,1,1,340.5000093355775,215.50000739842653A6,6,0,1,1,352.5000093355775,215.50000739842653"></path><path id="kity_path_217" fill="none" stroke="gray"></path></g><path id="node_outline12" fill="none" stroke="none" d="M357.50000949949026,206.50000739842653h84a5,5,0,0,1,5,5v8a5,5,0,0,1,-5,5h-84a5,5,0,0,1,-5,-5v-8a5,5,0,0,1,5,-5z"></path><g id="node_text12" fill="black"><text id="kity_text_106" text-rendering="inherit" font-size="12" dy=".8em" y="207.70000737160444" x="357.50000949949026">用幽默揭示真相</text></g></g><g id="minder_node15"><g id="node_expander21" style="cursor: pointer;"><path id="kity_path_246" fill="white" stroke="gray" d="M543.0000121742487,59.50000507384539A6,6,0,1,1,531.0000121742487,59.50000507384539A6,6,0,1,1,543.0000121742487,59.50000507384539"></path><path id="kity_path_247" fill="none" stroke="gray" d="M532.5000121742487,59.50000507384539L541.5000121742487,59.50000507384539"></path></g><path id="node_outline22" fill="#8db3e2" stroke="rgb(115, 161, 191)" d="M474.5000118687749,66.5000054165721h125a3,3,0,0,1,3,3v26a3,3,0,0,1,-3,3h-125a3,3,0,0,1,-3,-3v-26a3,3,0,0,1,3,-3z" stroke-width="1"></path><g id="node_text22" fill="#ffffff"><text id="kity_text_128" text-rendering="inherit" font-family="微软雅黑,Microsoft YaHei" font-size="14" dy=".8em" font-weight="bold" y="73.40000538527966" x="516.5000118687749">数据 Data</text></g><g id="node_priority3"><path id="kity_path_151" fill="#B25000" stroke="none" d="M492.00001150369644,86.00000527501106c0,3.866,3.134,7,7,7h6c3.866,0,7,-3.134,7,-7V80.00000527501106H492.00001150369644V86.00000527501106z"></path><path id="kity_path_152" fill="#FF962E" stroke="none" d="M512.0000115036964,83.00000527501106c0,3.866,-3.134,7,-7,7H499.00001150369644c-3.866,0,-7,-3.134,-7,-7V80.00000527501106c0,-3.866,3.134,-7,7,-7h6c3.866,0,7,3.134,7,7V83.00000527501106z" opacity="0.8"></path><text id="kity_text_153" text-rendering="geometricPrecision" x="501.00001149624586" y="82.50000526756048" text-anchor="middle" font-style="italic" font-size="12" fill="white" dy="5">4</text></g></g><g id="minder_node16"><g id="node_expander15" style="cursor: pointer;"><path id="kity_path_228" fill="white" stroke="gray" d="M499.5000115260482,119.50000596791506A6,6,0,1,1,487.5000115260482,119.50000596791506A6,6,0,1,1,499.5000115260482,119.50000596791506"></path><path id="kity_path_229" fill="none" stroke="gray" d="M489.0000115260482,119.50000596791506L498.0000115260482,119.50000596791506"></path></g><path id="node_outline16" fill="#8db3e2" stroke="none" d="M504.50001168996096,110.50000596791506h131a5,5,0,0,1,5,5v8a5,5,0,0,1,-5,5h-131a5,5,0,0,1,-5,-5v-8a5,5,0,0,1,5,-5z"></path><g id="node_text16" fill="#ffffff"><text id="kity_text_114" text-rendering="inherit" font-family="微软雅黑,Microsoft YaHei" font-size="12" dy=".8em" font-weight="bold" y="111.70000594109297" x="504.50001168996096">数字屑 Digital Crumbs</text></g></g><g id="minder_node17"><g id="node_expander14" display="none" style="cursor: pointer;"><path id="kity_path_225" fill="white" stroke="gray" d="M527.5000119432807,145.50000635534525A6,6,0,1,1,515.5000119432807,145.50000635534525A6,6,0,1,1,527.5000119432807,145.50000635534525"></path><path id="kity_path_226" fill="none" stroke="gray"></path></g><path id="node_outline15" fill="none" stroke="none" d="M532.5000121071935,136.50000635534525h52a5,5,0,0,1,5,5v8a5,5,0,0,1,-5,5h-52a5,5,0,0,1,-5,-5v-8a5,5,0,0,1,5,-5z"></path><g id="node_text15" fill="black"><text id="kity_text_112" text-rendering="inherit" font-size="12" dy=".8em" y="137.70000632852316" x="532.5000121071935">数据废气&#xa0;</text></g></g><g id="minder_node18"><g id="node_expander18" style="cursor: pointer;"><path id="kity_path_237" fill="white" stroke="gray" d="M499.5000115260482,171.50000674277544A6,6,0,1,1,487.5000115260482,171.50000674277544A6,6,0,1,1,499.5000115260482,171.50000674277544"></path><path id="kity_path_238" fill="none" stroke="gray" d="M489.0000115260482,171.50000674277544L498.0000115260482,171.50000674277544"></path></g><path id="node_outline19" fill="#8db3e2" stroke="none" d="M504.50001168996096,162.50000674277544h92a5,5,0,0,1,5,5v8a5,5,0,0,1,-5,5h-92a5,5,0,0,1,-5,-5v-8a5,5,0,0,1,5,-5z"></path><g id="node_text19" fill="#ffffff"><text id="kity_text_120" text-rendering="inherit" font-family="微软雅黑,Microsoft YaHei" font-size="12" dy=".8em" font-weight="bold" y="163.70000671595335" x="504.50001168996096">大数据 Big Data</text></g></g><g id="minder_node19"><g id="node_expander16" display="none" style="cursor: pointer;"><path id="kity_path_231" fill="white" stroke="gray" d="M527.5000119432807,197.50000713020563A6,6,0,1,1,515.5000119432807,197.50000713020563A6,6,0,1,1,527.5000119432807,197.50000713020563"></path><path id="kity_path_232" fill="none" stroke="gray"></path></g><path id="node_outline17" fill="none" stroke="none" d="M532.5000121071935,188.50000713020563h124a5,5,0,0,1,5,5v8a5,5,0,0,1,-5,5h-124a5,5,0,0,1,-5,-5v-8a5,5,0,0,1,5,-5z"></path><g id="node_text17" fill="black"><text id="kity_text_116" text-rendering="inherit" font-size="12" dy=".8em" y="189.70000710338354" x="532.5000121071935">Big data&#xa0;巨量数据集合</text></g></g><g id="minder_node20"><g id="node_expander17" display="none" style="cursor: pointer;"><path id="kity_path_234" fill="white" stroke="gray" d="M527.5000119432807,223.50000751763582A6,6,0,1,1,515.5000119432807,223.50000751763582A6,6,0,1,1,527.5000119432807,223.50000751763582"></path><path id="kity_path_235" fill="none" stroke="gray"></path></g><path id="node_outline18" fill="none" stroke="none" d="M532.5000121071935,214.50000751763582h170a5,5,0,0,1,5,5v8a5,5,0,0,1,-5,5h-170a5,5,0,0,1,-5,-5v-8a5,5,0,0,1,5,-5z"></path><g id="node_text18" fill="black"><text id="kity_text_118" text-rendering="inherit" font-size="12" dy=".8em" y="215.70000749081373" x="532.5000121071935">数据共享：取之有道，用之有道</text></g></g><g id="minder_node21"><g id="node_expander20" style="cursor: pointer;"><path id="kity_path_243" fill="white" stroke="gray" d="M499.5000115260482,249.500007905066A6,6,0,1,1,487.5000115260482,249.500007905066A6,6,0,1,1,499.5000115260482,249.500007905066"></path><path id="kity_path_244" fill="none" stroke="gray" d="M489.0000115260482,249.500007905066L498.0000115260482,249.500007905066"></path></g><path id="node_outline21" fill="#8db3e2" stroke="none" d="M504.50001168996096,240.500007905066h188a5,5,0,0,1,5,5v8a5,5,0,0,1,-5,5h-188a5,5,0,0,1,-5,-5v-8a5,5,0,0,1,5,-5z"></path><g id="node_text21" fill="#ffffff"><text id="kity_text_126" text-rendering="inherit" font-family="微软雅黑,Microsoft YaHei" font-size="12" dy=".8em" font-weight="bold" y="241.70000787824392" x="504.50001168996096">推荐系统 Recommender System</text></g></g><g id="minder_node22"><g id="node_expander19" display="none" style="cursor: pointer;"><path id="kity_path_240" fill="white" stroke="gray" d="M527.5000119432807,293.5000085607171A6,6,0,1,1,515.5000119432807,293.5000085607171A6,6,0,1,1,527.5000119432807,293.5000085607171"></path><path id="kity_path_241" fill="none" stroke="gray"></path></g><path id="node_outline20" fill="none" stroke="none" d="M532.5000121071935,266.5000085607171h349a5,5,0,0,1,5,5v44a5,5,0,0,1,-5,5h-349a5,5,0,0,1,-5,-5v-44a5,5,0,0,1,5,-5z"></path><g id="node_text20" fill="black"><text id="kity_text_122" text-rendering="inherit" font-size="12" dy=".8em" y="267.700008533895" x="532.5000121071935">推荐系统（Recommender System）</text><text id="kity_text_123" text-rendering="inherit" font-size="12" dy=".8em" y="285.700008533895" x="532.5000121071935">是一种信息过滤系统，根据用户的历史行为、</text><text id="kity_text_124" text-rendering="inherit" font-size="12" dy=".8em" y="303.700008533895" x="532.5000121071935">社交关系、兴趣点，算法可以判断用户当前感兴趣的物品或内容。</text></g></g><g id="minder_node23"><g id="node_expander26" style="cursor: pointer;"><path id="kity_path_261" fill="white" stroke="gray" d="M862.5000169351697,63.50000513345003A6,6,0,1,1,850.5000169351697,63.50000513345003A6,6,0,1,1,862.5000169351697,63.50000513345003"></path><path id="kity_path_262" fill="none" stroke="gray" d="M852.0000169351697,63.50000513345003L861.0000169351697,63.50000513345003"></path></g><path id="node_outline27" fill="#8db3e2" stroke="rgb(115, 161, 191)" d="M769.5000162646174,70.50000547617674h174a3,3,0,0,1,3,3v26a3,3,0,0,1,-3,3h-174a3,3,0,0,1,-3,-3v-26a3,3,0,0,1,3,-3z" stroke-width="1"></path><g id="node_text27" fill="#ffffff"><text id="kity_text_138" text-rendering="inherit" font-family="微软雅黑,Microsoft YaHei" font-size="14" dy=".8em" font-weight="bold" y="77.4000054448843" x="811.5000162646174">注意力 Attention</text></g><g id="node_priority4"><path id="kity_path_156" fill="#B25000" stroke="none" d="M787.000015899539,90.00000533461571c0,3.866,3.134,7,7,7h6c3.866,0,7,-3.134,7,-7V84.00000533461571H787.000015899539V90.00000533461571z"></path><path id="kity_path_157" fill="#FF962E" stroke="none" d="M807.000015899539,87.00000533461571c0,3.866,-3.134,7,-7,7H794.000015899539c-3.866,0,-7,-3.134,-7,-7V84.00000533461571c0,-3.866,3.134,-7,7,-7h6c3.866,0,7,3.134,7,7V87.00000533461571z" opacity="0.8"></path><text id="kity_text_158" text-rendering="geometricPrecision" x="796.0000158920884" y="86.50000532716513" text-anchor="middle" font-style="italic" font-size="12" fill="white" dy="5">4</text></g></g><g id="minder_node24"><g id="node_expander22" display="none" style="cursor: pointer;"><path id="kity_path_249" fill="white" stroke="gray" d="M794.5000159218907,123.5000060275197A6,6,0,1,1,782.5000159218907,123.5000060275197A6,6,0,1,1,794.5000159218907,123.5000060275197"></path><path id="kity_path_250" fill="none" stroke="gray"></path></g><path id="node_outline23" fill="none" stroke="none" d="M799.5000160858035,114.5000060275197h193a5,5,0,0,1,5,5v8a5,5,0,0,1,-5,5h-193a5,5,0,0,1,-5,-5v-8a5,5,0,0,1,5,-5z"></path><g id="node_text23" fill="black"><text id="kity_text_130" text-rendering="inherit" font-size="12" dy=".8em" y="115.70000600069761" x="799.5000160858035">用户的注意力成为被科技竞争的对象</text></g></g><g id="minder_node25"><g id="node_expander25" style="cursor: pointer;"><path id="kity_path_258" fill="white" stroke="gray" d="M794.5000159218907,149.5000064149499A6,6,0,1,1,782.5000159218907,149.5000064149499A6,6,0,1,1,794.5000159218907,149.5000064149499"></path><path id="kity_path_259" fill="none" stroke="gray" d="M784.0000159218907,149.5000064149499L793.0000159218907,149.5000064149499"></path></g><path id="node_outline26" fill="#8db3e2" stroke="none" d="M799.5000160858035,140.5000064149499h87a5,5,0,0,1,5,5v8a5,5,0,0,1,-5,5h-87a5,5,0,0,1,-5,-5v-8a5,5,0,0,1,5,-5z"></path><g id="node_text26" fill="#ffffff"><text id="kity_text_136" text-rendering="inherit" font-family="微软雅黑,Microsoft YaHei" font-size="12" dy=".8em" font-weight="bold" y="141.7000063881278" x="799.5000160858035">上瘾 Addiction</text></g></g><g id="minder_node26"><g id="node_expander23" display="none" style="cursor: pointer;"><path id="kity_path_252" fill="white" stroke="gray" d="M822.5000163391232,175.50000680238008A6,6,0,1,1,810.5000163391232,175.50000680238008A6,6,0,1,1,822.5000163391232,175.50000680238008"></path><path id="kity_path_253" fill="none" stroke="gray"></path></g><path id="node_outline24" fill="none" stroke="none" d="M827.500016503036,166.50000680238008h108a5,5,0,0,1,5,5v8a5,5,0,0,1,-5,5h-108a5,5,0,0,1,-5,-5v-8a5,5,0,0,1,5,-5z"></path><g id="node_text24" fill="black"><text id="kity_text_132" text-rendering="inherit" font-size="12" dy=".8em" y="167.700006775558" x="827.500016503036">上瘾是对环境的适应</text></g></g><g id="minder_node27"><g id="node_expander24" display="none" style="cursor: pointer;"><path id="kity_path_255" fill="white" stroke="gray" d="M822.5000163391232,201.50000718981028A6,6,0,1,1,810.5000163391232,201.50000718981028A6,6,0,1,1,822.5000163391232,201.50000718981028"></path><path id="kity_path_256" fill="none" stroke="gray"></path></g><path id="node_outline25" fill="none" stroke="none" d="M827.500016503036,192.50000718981028h157a5,5,0,0,1,5,5v8a5,5,0,0,1,-5,5h-157a5,5,0,0,1,-5,-5v-8a5,5,0,0,1,5,-5z"></path><g id="node_text25" fill="black"><text id="kity_text_134" text-rendering="inherit" font-size="12" dy=".8em" y="193.7000071629882" x="827.500016503036">让用户上瘾，是设计者的目的</text></g></g></g></g></svg>