<svg id="kity_svg_6" xmlns="http://www.w3.org/2000/svg" xmlns:xlink="http://www.w3.org/1999/xlink" version="1.1" width="1731" height="450" style="background: rgb(251, 251, 251); visibility: visible;" viewBox="0 0 1731 450"><defs id="kity_defs_7"><linearGradient id="kity_linearGradient_17" x1="0" y1="0" x2="0" y2="1"><stop id="kity_stop_18" offset="0" stop-color="rgb(255, 255, 255)"></stop><stop id="kity_stop_19" offset="1" stop-color="rgb(204, 204, 204)"></stop></linearGradient><marker id="kity_marker_2" orient="auto" refX="6" refY="0" viewBox="-7 -7 14 14" markerWidth="7" markerHeight="7" markerUnits="userSpaceOnUse"><path id="kity_path_3" fill="rgb(115, 161, 191)" stroke="none" d="M6,0A6,6,0,1,1,-6,0A6,6,0,1,1,6,0"></path></marker></defs><g id="kity_g_8"><g id="minder1" text-rendering="optimize-speed"><g id="minder_connect_group1"><path id="kity_path_31" fill="none" stroke="rgb(115, 161, 191)" stroke-width="1" d="M808.5000114366412,72.50000434368849v10h-697.5V90.50000434368849"></path><path id="kity_path_33" fill="none" stroke="rgb(115, 161, 191)" stroke-width="1" d="M40.500011436641216,122.50000434368849V143.5000043436885L48.500011436641216,143.5000043436885"></path><path id="kity_path_35" fill="none" stroke="rgb(115, 161, 191)" stroke-width="1" d="M40.500011436641216,122.50000434368849V169.5000043436885L48.500011436641216,169.5000043436885"></path><path id="kity_path_37" fill="none" stroke="rgb(115, 161, 191)" stroke-width="1" d="M68.50001143664122,178.5000043436885V195.5000043436885L76.50001143664122,195.5000043436885"></path><path id="kity_path_39" fill="none" stroke="rgb(115, 161, 191)" stroke-width="1" d="M96.50001143664122,204.5000043436885V221.5000043436885L104.50001143664122,221.5000043436885"></path><path id="kity_path_41" fill="none" stroke="rgb(115, 161, 191)" stroke-width="1" d="M96.50001143664122,204.5000043436885V247.5000043436885L104.50001143664122,247.5000043436885"></path><path id="kity_path_43" fill="none" stroke="rgb(115, 161, 191)" stroke-width="1" d="M96.50001143664122,204.5000043436885V273.5000043436885L104.50001143664122,273.5000043436885"></path><path id="kity_path_45" fill="none" stroke="rgb(115, 161, 191)" stroke-width="1" d="M68.50001143664122,178.5000043436885V299.5000043436885L76.50001143664122,299.5000043436885"></path><path id="kity_path_47" fill="none" stroke="rgb(115, 161, 191)" stroke-width="1" d="M96.50001143664122,308.5000043436885V325.5000043436885L104.50001143664122,325.5000043436885"></path><path id="kity_path_49" fill="none" stroke="rgb(115, 161, 191)" stroke-width="1" d="M96.50001143664122,308.5000043436885V351.5000043436885L104.50001143664122,351.5000043436885"></path><path id="kity_path_51" fill="none" stroke="rgb(115, 161, 191)" stroke-width="1" d="M40.500011436641216,122.50000434368849V377.5000043436885L48.500011436641216,377.5000043436885"></path><path id="kity_path_53" fill="none" stroke="rgb(115, 161, 191)" stroke-width="1" d="M68.50001143664122,386.5000043436885V403.5000043436885L76.50001143664122,403.5000043436885"></path><path id="kity_path_55" fill="none" stroke="rgb(115, 161, 191)" stroke-width="1" d="M808.5000114366412,72.50000434368849v10h-243V90.50000434368849"></path><path id="kity_path_57" fill="none" stroke="rgb(115, 161, 191)" stroke-width="1" d="M499.5000114366412,122.50000434368849V143.5000043436885L507.5000114366412,143.5000043436885"></path><path id="kity_path_59" fill="none" stroke="rgb(115, 161, 191)" stroke-width="1" d="M527.5000114366412,152.5000043436885V169.5000043436885L535.5000114366412,169.5000043436885"></path><path id="kity_path_61" fill="none" stroke="rgb(115, 161, 191)" stroke-width="1" d="M555.5000114366412,178.5000043436885V195.5000043436885L563.5000114366412,195.5000043436885"></path><path id="kity_path_63" fill="none" stroke="rgb(115, 161, 191)" stroke-width="1" d="M555.5000114366412,178.5000043436885V221.5000043436885L563.5000114366412,221.5000043436885"></path><path id="kity_path_65" fill="none" stroke="rgb(115, 161, 191)" stroke-width="1" d="M555.5000114366412,178.5000043436885V247.5000043436885L563.5000114366412,247.5000043436885"></path><path id="kity_path_67" fill="none" stroke="rgb(115, 161, 191)" stroke-width="1" d="M527.5000114366412,152.5000043436885V282.5000043436885L535.5000114366412,282.5000043436885"></path><path id="kity_path_69" fill="none" stroke="rgb(115, 161, 191)" stroke-width="1" d="M555.5000114366412,300.5000043436885V317.5000043436885L563.5000114366412,317.5000043436885"></path><path id="kity_path_71" fill="none" stroke="rgb(115, 161, 191)" stroke-width="1" d="M527.5000114366412,152.5000043436885V343.5000043436885L535.5000114366412,343.5000043436885"></path><path id="kity_path_73" fill="none" stroke="rgb(115, 161, 191)" stroke-width="1" d="M555.5000114366412,352.5000043436885V369.5000043436885L563.5000114366412,369.5000043436885"></path><path id="kity_path_75" fill="none" stroke="rgb(115, 161, 191)" stroke-width="1" d="M555.5000114366412,352.5000043436885V395.5000043436885L563.5000114366412,395.5000043436885"></path><path id="kity_path_77" fill="none" stroke="rgb(115, 161, 191)" stroke-width="1" d="M555.5000114366412,352.5000043436885V421.5000043436885L563.5000114366412,421.5000043436885"></path><path id="kity_path_79" fill="none" stroke="rgb(115, 161, 191)" stroke-width="1" d="M808.5000114366412,72.50000434368849v10h178V90.50000434368849"></path><path id="kity_path_81" fill="none" stroke="rgb(115, 161, 191)" stroke-width="1" d="M933.5000114366412,122.50000434368849V143.5000043436885L941.5000114366412,143.5000043436885"></path><path id="kity_path_83" fill="none" stroke="rgb(115, 161, 191)" stroke-width="1" d="M961.5000114366412,152.5000043436885V169.5000043436885L969.5000114366412,169.5000043436885"></path><path id="kity_path_85" fill="none" stroke="rgb(115, 161, 191)" stroke-width="1" d="M989.5000114366412,178.5000043436885V213.5000043436885L997.5000114366412,213.5000043436885"></path><path id="kity_path_87" fill="none" stroke="rgb(115, 161, 191)" stroke-width="1" d="M989.5000114366412,178.5000043436885V257.5000043436885L997.5000114366412,257.5000043436885"></path><path id="kity_path_89" fill="none" stroke="rgb(115, 161, 191)" stroke-width="1" d="M1017.5000114366412,266.5000043436885V283.5000043436885L1025.5000114366412,283.5000043436885"></path><path id="kity_path_91" fill="none" stroke="rgb(115, 161, 191)" stroke-width="1" d="M1017.5000114366412,266.5000043436885V309.5000043436885L1025.5000114366412,309.5000043436885"></path><path id="kity_path_93" fill="none" stroke="rgb(115, 161, 191)" stroke-width="1" d="M1017.5000114366412,266.5000043436885V335.5000043436885L1025.5000114366412,335.5000043436885"></path><path id="kity_path_95" fill="none" stroke="rgb(115, 161, 191)" stroke-width="1" d="M1045.5000114366412,344.5000043436885V361.5000043436885L1053.5000114366412,361.5000043436885"></path><path id="kity_path_97" fill="none" stroke="rgb(115, 161, 191)" stroke-width="1" d="M808.5000114366412,72.50000434368849v10h676V90.50000434368849"></path><path id="kity_path_99" fill="none" stroke="rgb(115, 161, 191)" stroke-width="1" d="M1392.5000114366412,137.5000043436885V158.5000043436885L1400.5000114366412,158.5000043436885"></path><path id="kity_path_101" fill="none" stroke="rgb(115, 161, 191)" stroke-width="1" d="M1392.5000114366412,137.5000043436885V184.5000043436885L1400.5000114366412,184.5000043436885"></path><path id="kity_path_103" fill="none" stroke="rgb(115, 161, 191)" stroke-width="1" d="M1392.5000114366412,137.5000043436885V210.5000043436885L1400.5000114366412,210.5000043436885"></path><path id="kity_path_105" fill="none" stroke="rgb(115, 161, 191)" stroke-width="1" d="M1420.5000114366412,219.5000043436885V236.5000043436885L1428.5000114366412,236.5000043436885"></path><path id="kity_path_107" fill="none" stroke="rgb(115, 161, 191)" stroke-width="1" d="M1448.5000114366412,245.5000043436885V262.5000043436885L1456.5000114366412,262.5000043436885"></path><path id="kity_path_109" fill="none" stroke="rgb(115, 161, 191)" stroke-width="1" d="M1448.5000114366412,245.5000043436885V288.5000043436885L1456.5000114366412,288.5000043436885"></path><path id="kity_path_111" fill="none" stroke="rgb(115, 161, 191)" stroke-width="1" d="M1420.5000114366412,219.5000043436885V314.5000043436885L1428.5000114366412,314.5000043436885"></path><path id="kity_path_113" fill="none" stroke="rgb(115, 161, 191)" stroke-width="1" d="M1420.5000114366412,219.5000043436885V340.5000043436885L1428.5000114366412,340.5000043436885"></path></g><g id="minder_node1"><path id="node_outline1" fill="#8db3e2" stroke="rgb(57, 80, 96)" d="M653.5000114366412,20.500004343688488h309a5,5,0,0,1,5,5v42a5,5,0,0,1,-5,5h-309a5,5,0,0,1,-5,-5v-42a5,5,0,0,1,5,-5z" stroke-width="3"></path><g id="node_text1" fill="#ffffff"><text id="kity_text_22" text-rendering="inherit" font-size="16" dy=".8em" y="24.1000043079257" font-family="微软雅黑,Microsoft YaHei" font-weight="bold" x="660.5000114366412">科技、娱乐、设计</text><text id="kity_text_202" text-rendering="inherit" font-family="微软雅黑,Microsoft YaHei" font-size="16" dy=".8em" font-weight="bold" y="48.1000043079257" x="660.5000114366412">https://koujii.github.io/TED/TED.svg</text></g></g><g id="kity_g_12"><path id="kity_path_13" fill="none" stroke="none" d="M660.5000114366412,46.50000434368849h0v0h0z"></path></g><g id="kity_g_14"><path id="kity_path_15" fill="none" stroke="none" d="M660.5000114366412,46.50000434368849h0v0h0z"></path><path id="kity_path_16" fill="none" stroke="none"></path></g><g id="minder_node2"><g id="node_expander12" style="cursor: pointer;"><path id="kity_path_299" fill="white" stroke="gray" d="M116.50000324100256,83.50000489503145A6,6,0,1,1,104.50000324100256,83.50000489503145A6,6,0,1,1,116.50000324100256,83.50000489503145"></path><path id="kity_path_300" fill="none" stroke="gray" d="M106.00000324100256,83.50000489503145L115.00000324100256,83.50000489503145"></path></g><path id="node_outline13" fill="#8db3e2" stroke="rgb(115, 161, 191)" d="M23.500002570450306,90.50000523775816h174a3,3,0,0,1,3,3v26a3,3,0,0,1,-3,3h-174a3,3,0,0,1,-3,-3v-26a3,3,0,0,1,3,-3z" stroke-width="1"></path><g id="node_text13" fill="#ffffff"><text id="kity_text_137" text-rendering="inherit" font-family="微软雅黑,Microsoft YaHei" font-size="14" dy=".8em" font-weight="bold" y="97.40000520646572" x="65.5000025704503">注意力 Attention</text></g><g id="node_priority1"><path id="kity_path_205" fill="#840023" stroke="none" d="M41.00000220537186,110.00000509619713c0,3.866,3.134,7,7,7h6c3.866,0,7,-3.134,7,-7V104.00000509619713H41.00000220537186V110.00000509619713z"></path><path id="kity_path_206" fill="#FF1200" stroke="none" d="M61.00000220537186,107.00000509619713c0,3.866,-3.134,7,-7,7H48.00000220537186c-3.866,0,-7,-3.134,-7,-7V104.00000509619713c0,-3.866,3.134,-7,7,-7h6c3.866,0,7,3.134,7,7V107.00000509619713z" opacity="0.8"></path><text id="kity_text_207" text-rendering="geometricPrecision" x="50.000002197921276" y="106.50000508874655" text-anchor="middle" font-style="italic" font-size="12" fill="white" dy="5">1</text></g></g><g id="minder_node3"><g id="node_expander1" display="none" style="cursor: pointer;"><path id="kity_path_266" fill="white" stroke="gray" d="M48.5000022277236,143.50000578910112A6,6,0,1,1,36.5000022277236,143.50000578910112A6,6,0,1,1,48.5000022277236,143.50000578910112"></path><path id="kity_path_267" fill="none" stroke="gray"></path></g><path id="node_outline2" fill="none" stroke="none" d="M53.50000239163637,134.50000578910112h193a5,5,0,0,1,5,5v8a5,5,0,0,1,-5,5h-193a5,5,0,0,1,-5,-5v-8a5,5,0,0,1,5,-5z"></path><g id="node_text2" fill="black"><text id="kity_text_115" text-rendering="inherit" font-size="12" dy=".8em" y="135.70000576227903" x="53.50000239163637">用户的注意力成为被科技竞争的对象</text></g></g><g id="minder_node4"><g id="node_expander9" style="cursor: pointer;"><path id="kity_path_290" fill="white" stroke="gray" d="M48.5000022277236,169.50000617653131A6,6,0,1,1,36.5000022277236,169.50000617653131A6,6,0,1,1,48.5000022277236,169.50000617653131"></path><path id="kity_path_291" fill="none" stroke="gray" d="M38.0000022277236,169.50000617653131L47.0000022277236,169.50000617653131"></path></g><path id="node_outline10" fill="#8db3e2" stroke="none" d="M53.50000239163637,160.50000617653131h87a5,5,0,0,1,5,5v8a5,5,0,0,1,-5,5h-87a5,5,0,0,1,-5,-5v-8a5,5,0,0,1,5,-5z"></path><g id="node_text10" fill="#ffffff"><text id="kity_text_131" text-rendering="inherit" font-family="微软雅黑,Microsoft YaHei" font-size="12" dy=".8em" font-weight="bold" y="161.70000614970922" x="53.50000239163637">上瘾 Addiction</text></g></g><g id="minder_node5"><g id="node_expander5" style="cursor: pointer;"><path id="kity_path_278" fill="white" stroke="gray" d="M76.50000264495611,195.5000065639615A6,6,0,1,1,64.50000264495611,195.5000065639615A6,6,0,1,1,76.50000264495611,195.5000065639615"></path><path id="kity_path_279" fill="none" stroke="gray" d="M66.00000264495611,195.5000065639615L75.00000264495611,195.5000065639615"></path></g><path id="node_outline6" fill="none" stroke="none" d="M81.50000280886889,186.5000065639615h60a5,5,0,0,1,5,5v8a5,5,0,0,1,-5,5h-60a5,5,0,0,1,-5,-5v-8a5,5,0,0,1,5,-5z"></path><g id="node_text6" fill="black"><text id="kity_text_123" text-rendering="inherit" font-size="12" dy=".8em" font-weight="bold" y="187.70000653713942" x="81.50000280886889">上瘾的原因</text></g></g><g id="minder_node6"><g id="node_expander2" display="none" style="cursor: pointer;"><path id="kity_path_269" fill="white" stroke="gray" d="M104.50000306218863,221.5000069513917A6,6,0,1,1,92.50000306218863,221.5000069513917A6,6,0,1,1,104.50000306218863,221.5000069513917"></path><path id="kity_path_270" fill="none" stroke="gray"></path></g><path id="node_outline3" fill="none" stroke="none" d="M109.5000032261014,212.5000069513917h193a5,5,0,0,1,5,5v8a5,5,0,0,1,-5,5h-193a5,5,0,0,1,-5,-5v-8a5,5,0,0,1,5,-5z"></path><g id="node_text3" fill="black"><text id="kity_text_117" text-rendering="inherit" font-size="12" dy=".8em" y="213.7000069245696" x="109.5000032261014">与外界失联，缺少和外界健康的依赖</text></g></g><g id="minder_node7"><g id="node_expander3" display="none" style="cursor: pointer;"><path id="kity_path_272" fill="white" stroke="gray" d="M104.50000306218863,247.5000073388219A6,6,0,1,1,92.50000306218863,247.5000073388219A6,6,0,1,1,104.50000306218863,247.5000073388219"></path><path id="kity_path_273" fill="none" stroke="gray"></path></g><path id="node_outline4" fill="none" stroke="none" d="M109.5000032261014,238.5000073388219h120a5,5,0,0,1,5,5v8a5,5,0,0,1,-5,5h-120a5,5,0,0,1,-5,-5v-8a5,5,0,0,1,5,-5z"></path><g id="node_text4" fill="black"><text id="kity_text_119" text-rendering="inherit" font-size="12" dy=".8em" y="239.7000073119998" x="109.5000032261014">用户对现实生活的无奈</text></g></g><g id="minder_node8"><g id="node_expander4" display="none" style="cursor: pointer;"><path id="kity_path_275" fill="white" stroke="gray" d="M104.50000306218863,273.5000077262521A6,6,0,1,1,92.50000306218863,273.5000077262521A6,6,0,1,1,104.50000306218863,273.5000077262521"></path><path id="kity_path_276" fill="none" stroke="gray"></path></g><path id="node_outline5" fill="none" stroke="none" d="M109.5000032261014,264.5000077262521h108a5,5,0,0,1,5,5v8a5,5,0,0,1,-5,5h-108a5,5,0,0,1,-5,-5v-8a5,5,0,0,1,5,-5z"></path><g id="node_text5" fill="black"><text id="kity_text_121" text-rendering="inherit" font-size="12" dy=".8em" y="265.70000769943" x="109.5000032261014">上瘾是对环境的适应</text></g></g><g id="minder_node9"><g id="node_expander8" style="cursor: pointer;"><path id="kity_path_287" fill="white" stroke="gray" d="M76.50000264495611,299.50000811368227A6,6,0,1,1,64.50000264495611,299.50000811368227A6,6,0,1,1,76.50000264495611,299.50000811368227"></path><path id="kity_path_288" fill="none" stroke="gray" d="M66.00000264495611,299.50000811368227L75.00000264495611,299.50000811368227"></path></g><path id="node_outline9" fill="none" stroke="none" d="M81.50000280886889,290.50000811368227h74a5,5,0,0,1,5,5v8a5,5,0,0,1,-5,5h-74a5,5,0,0,1,-5,-5v-8a5,5,0,0,1,5,-5z"></path><g id="node_text9" fill="black"><text id="kity_text_129" text-rendering="inherit" font-size="12" dy=".8em" font-weight="bold" y="291.7000080868602" x="81.50000280886889">如何摆脱上瘾</text></g></g><g id="minder_node10"><g id="node_expander6" display="none" style="cursor: pointer;"><path id="kity_path_281" fill="white" stroke="gray" d="M104.50000306218863,325.50000850111246A6,6,0,1,1,92.50000306218863,325.50000850111246A6,6,0,1,1,104.50000306218863,325.50000850111246"></path><path id="kity_path_282" fill="none" stroke="gray"></path></g><path id="node_outline7" fill="none" stroke="none" d="M109.5000032261014,316.50000850111246h109a5,5,0,0,1,5,5v8a5,5,0,0,1,-5,5h-109a5,5,0,0,1,-5,-5v-8a5,5,0,0,1,5,-5z"></path><g id="node_text7" fill="black"><text id="kity_text_125" text-rendering="inherit" font-size="12" dy=".8em" y="317.70000847429037" x="109.5000032261014">”停止信号”的屏幕</text></g></g><g id="minder_node11"><g id="node_expander7" display="none" style="cursor: pointer;"><path id="kity_path_284" fill="white" stroke="gray" d="M104.50000306218863,351.50000888854265A6,6,0,1,1,92.50000306218863,351.50000888854265A6,6,0,1,1,104.50000306218863,351.50000888854265"></path><path id="kity_path_285" fill="none" stroke="gray"></path></g><path id="node_outline8" fill="none" stroke="none" d="M109.5000032261014,342.50000888854265h349a5,5,0,0,1,5,5v8a5,5,0,0,1,-5,5h-349a5,5,0,0,1,-5,-5v-8a5,5,0,0,1,5,-5z"></path><g id="node_text8" fill="black"><text id="kity_text_127" text-rendering="inherit" font-size="12" dy=".8em" y="343.70000886172056" x="109.5000032261014">联系是上瘾的对立面，应该把时间和注意力放在我们关心的事情上</text></g></g><g id="minder_node12"><g id="node_expander11" style="cursor: pointer;"><path id="kity_path_296" fill="white" stroke="gray" d="M48.5000022277236,377.50000927597284A6,6,0,1,1,36.5000022277236,377.50000927597284A6,6,0,1,1,48.5000022277236,377.50000927597284"></path><path id="kity_path_297" fill="none" stroke="gray" d="M38.0000022277236,377.50000927597284L47.0000022277236,377.50000927597284"></path></g><path id="node_outline12" fill="none" stroke="none" d="M53.50000239163637,368.50000927597284h25a5,5,0,0,1,5,5v8a5,5,0,0,1,-5,5h-25a5,5,0,0,1,-5,-5v-8a5,5,0,0,1,5,-5z"></path><g id="node_text12" fill="black"><text id="kity_text_135" text-rendering="inherit" font-size="12" dy=".8em" font-weight="bold" y="369.70000924915075" x="53.50000239163637">危害</text></g></g><g id="minder_node13"><g id="node_expander10" display="none" style="cursor: pointer;"><path id="kity_path_293" fill="white" stroke="gray" d="M76.50000264495611,403.50000966340303A6,6,0,1,1,64.50000264495611,403.50000966340303A6,6,0,1,1,76.50000264495611,403.50000966340303"></path><path id="kity_path_294" fill="none" stroke="gray"></path></g><path id="node_outline11" fill="none" stroke="none" d="M81.50000280886889,394.50000966340303h354a5,5,0,0,1,5,5v8a5,5,0,0,1,-5,5h-354a5,5,0,0,1,-5,-5v-8a5,5,0,0,1,5,-5z"></path><g id="node_text11" fill="black"><text id="kity_text_133" text-rendering="inherit" font-size="12" dy=".8em" y="395.70000963658094" x="81.50000280886889">兴奋成瘾 eg：过量获取色情片的新渠道是男性群体衰落的重要原因 </text></g></g><g id="minder_node14"><g id="node_expander24" style="cursor: pointer;"><path id="kity_path_335" fill="white" stroke="gray" d="M571.0000100135803,83.50000489503145A6,6,0,1,1,559.0000100135803,83.50000489503145A6,6,0,1,1,571.0000100135803,83.50000489503145"></path><path id="kity_path_336" fill="none" stroke="gray" d="M560.5000100135803,83.50000489503145L569.5000100135803,83.50000489503145"></path></g><path id="node_outline25" fill="#8db3e2" stroke="rgb(115, 161, 191)" d="M482.5000094100833,90.50000523775816h165a3,3,0,0,1,3,3v26a3,3,0,0,1,-3,3h-165a3,3,0,0,1,-3,-3v-26a3,3,0,0,1,3,-3z" stroke-width="1"></path><g id="node_text25" fill="#ffffff"><text id="kity_text_162" text-rendering="inherit" font-family="微软雅黑,Microsoft YaHei" font-size="14" dy=".8em" font-weight="bold" y="97.40000520646572" x="524.5000094100833">幸福 Happiness</text></g><g id="node_priority2"><path id="kity_path_210" fill="#840023" stroke="none" d="M500.00000904500484,110.00000509619713c0,3.866,3.134,7,7,7h6c3.866,0,7,-3.134,7,-7V104.00000509619713H500.00000904500484V110.00000509619713z"></path><path id="kity_path_211" fill="#FF1200" stroke="none" d="M520.0000090450048,107.00000509619713c0,3.866,-3.134,7,-7,7H507.00000904500484c-3.866,0,-7,-3.134,-7,-7V104.00000509619713c0,-3.866,3.134,-7,7,-7h6c3.866,0,7,3.134,7,7V107.00000509619713z" opacity="0.8"></path><text id="kity_text_212" text-rendering="geometricPrecision" x="509.00000903755426" y="106.50000508874655" text-anchor="middle" font-style="italic" font-size="12" fill="white" dy="5">1</text></g></g><g id="minder_node15"><g id="node_expander23" style="cursor: pointer;"><path id="kity_path_332" fill="white" stroke="gray" d="M507.5000090673566,143.50000578910112A6,6,0,1,1,495.5000090673566,143.50000578910112A6,6,0,1,1,507.5000090673566,143.50000578910112"></path><path id="kity_path_333" fill="none" stroke="gray" d="M497.0000090673566,143.50000578910112L506.0000090673566,143.50000578910112"></path></g><path id="node_outline24" fill="#8db3e2" stroke="none" d="M512.5000092312694,134.50000578910112h161a5,5,0,0,1,5,5v8a5,5,0,0,1,-5,5h-161a5,5,0,0,1,-5,-5v-8a5,5,0,0,1,5,-5z"></path><g id="node_text24" fill="#ffffff"><text id="kity_text_160" text-rendering="inherit" font-family="微软雅黑,Microsoft YaHei" font-size="12" dy=".8em" font-weight="bold" y="135.70000576227903" x="512.5000092312694">情感化设计 Emotion Design</text></g></g><g id="minder_node16"><g id="node_expander16" style="cursor: pointer;"><path id="kity_path_311" fill="white" stroke="gray" d="M535.5000094845891,169.50000617653131A6,6,0,1,1,523.5000094845891,169.50000617653131A6,6,0,1,1,535.5000094845891,169.50000617653131"></path><path id="kity_path_312" fill="none" stroke="gray" d="M525.0000094845891,169.50000617653131L534.0000094845891,169.50000617653131"></path></g><path id="node_outline17" fill="none" stroke="none" d="M540.5000096485019,160.50000617653131h49a5,5,0,0,1,5,5v8a5,5,0,0,1,-5,5h-49a5,5,0,0,1,-5,-5v-8a5,5,0,0,1,5,-5z"></path><g id="node_text17" fill="black"><text id="kity_text_145" text-rendering="inherit" font-size="12" dy=".8em" font-weight="bold" y="161.70000614970922" x="540.5000096485019">三个层次</text></g></g><g id="minder_node17"><g id="node_expander13" display="none" style="cursor: pointer;"><path id="kity_path_302" fill="white" stroke="gray" d="M563.5000099018216,195.5000065639615A6,6,0,1,1,551.5000099018216,195.5000065639615A6,6,0,1,1,563.5000099018216,195.5000065639615"></path><path id="kity_path_303" fill="none" stroke="gray"></path></g><path id="node_outline14" fill="none" stroke="none" d="M568.5000100657344,186.5000065639615h25a5,5,0,0,1,5,5v8a5,5,0,0,1,-5,5h-25a5,5,0,0,1,-5,-5v-8a5,5,0,0,1,5,-5z"></path><g id="node_text14" fill="black"><text id="kity_text_139" text-rendering="inherit" font-size="12" dy=".8em" y="187.70000653713942" x="568.5000100657344">本能</text></g></g><g id="minder_node18"><g id="node_expander14" display="none" style="cursor: pointer;"><path id="kity_path_305" fill="white" stroke="gray" d="M563.5000099018216,221.5000069513917A6,6,0,1,1,551.5000099018216,221.5000069513917A6,6,0,1,1,563.5000099018216,221.5000069513917"></path><path id="kity_path_306" fill="none" stroke="gray"></path></g><path id="node_outline15" fill="none" stroke="none" d="M568.5000100657344,212.5000069513917h25a5,5,0,0,1,5,5v8a5,5,0,0,1,-5,5h-25a5,5,0,0,1,-5,-5v-8a5,5,0,0,1,5,-5z"></path><g id="node_text15" fill="black"><text id="kity_text_141" text-rendering="inherit" font-size="12" dy=".8em" y="213.7000069245696" x="568.5000100657344">行为</text></g></g><g id="minder_node19"><g id="node_expander15" display="none" style="cursor: pointer;"><path id="kity_path_308" fill="white" stroke="gray" d="M563.5000099018216,247.5000073388219A6,6,0,1,1,551.5000099018216,247.5000073388219A6,6,0,1,1,563.5000099018216,247.5000073388219"></path><path id="kity_path_309" fill="none" stroke="gray"></path></g><path id="node_outline16" fill="none" stroke="none" d="M568.5000100657344,238.5000073388219h26a5,5,0,0,1,5,5v8a5,5,0,0,1,-5,5h-26a5,5,0,0,1,-5,-5v-8a5,5,0,0,1,5,-5z"></path><g id="node_text16" fill="black"><text id="kity_text_143" text-rendering="inherit" font-size="12" dy=".8em" y="239.7000073119998" x="568.5000100657344">反思</text></g></g><g id="minder_node20"><g id="node_expander18" style="cursor: pointer;"><path id="kity_path_317" fill="white" stroke="gray" d="M535.5000094845891,282.50000786036253A6,6,0,1,1,523.5000094845891,282.50000786036253A6,6,0,1,1,535.5000094845891,282.50000786036253"></path><path id="kity_path_318" fill="none" stroke="gray" d="M525.0000094845891,282.50000786036253L534.0000094845891,282.50000786036253"></path></g><path id="node_outline19" fill="#8db3e2" stroke="none" d="M540.5000096485019,264.50000786036253h121a5,5,0,0,1,5,5v26a5,5,0,0,1,-5,5h-121a5,5,0,0,1,-5,-5v-26a5,5,0,0,1,5,-5z"></path><g id="node_text19" fill="#ffffff"><text id="kity_text_149" text-rendering="inherit" font-family="微软雅黑,Microsoft YaHei" font-size="12" dy=".8em" font-weight="bold" y="265.70000783354044" x="540.5000096485019">积极心理学&#xa0;</text><text id="kity_text_150" text-rendering="inherit" font-family="微软雅黑,Microsoft YaHei" font-size="12" dy=".8em" font-weight="bold" y="283.70000783354044" x="540.5000096485019">Positive Psychology</text></g></g><g id="minder_node21"><g id="node_expander17" display="none" style="cursor: pointer;"><path id="kity_path_314" fill="white" stroke="gray" d="M563.5000099018216,317.50000838190317A6,6,0,1,1,551.5000099018216,317.50000838190317A6,6,0,1,1,563.5000099018216,317.50000838190317"></path><path id="kity_path_315" fill="none" stroke="gray"></path></g><path id="node_outline18" fill="none" stroke="none" d="M568.5000100657344,308.50000838190317h49a5,5,0,0,1,5,5v8a5,5,0,0,1,-5,5h-49a5,5,0,0,1,-5,-5v-8a5,5,0,0,1,5,-5z"></path><g id="node_text18" fill="black"><text id="kity_text_147" text-rendering="inherit" font-size="12" dy=".8em" font-weight="bold" y="309.7000083550811" x="568.5000100657344">三个目标</text></g></g><g id="minder_node22"><g id="node_expander22" style="cursor: pointer;"><path id="kity_path_329" fill="white" stroke="gray" d="M535.5000094845891,343.50000876933336A6,6,0,1,1,523.5000094845891,343.50000876933336A6,6,0,1,1,535.5000094845891,343.50000876933336"></path><path id="kity_path_330" fill="none" stroke="gray" d="M525.0000094845891,343.50000876933336L534.0000094845891,343.50000876933336"></path></g><path id="node_outline23" fill="none" stroke="none" d="M540.5000096485019,334.50000876933336h84a5,5,0,0,1,5,5v8a5,5,0,0,1,-5,5h-84a5,5,0,0,1,-5,-5v-8a5,5,0,0,1,5,-5z"></path><g id="node_text23" fill="black"><text id="kity_text_158" text-rendering="inherit" font-size="12" dy=".8em" font-weight="bold" y="335.7000087425113" x="540.5000096485019">幽默地揭示真相</text></g></g><g id="minder_node23"><g id="node_expander19" display="none" style="cursor: pointer;"><path id="kity_path_320" fill="white" stroke="gray" d="M563.5000099018216,369.50000915676355A6,6,0,1,1,551.5000099018216,369.50000915676355A6,6,0,1,1,563.5000099018216,369.50000915676355"></path><path id="kity_path_321" fill="none" stroke="gray"></path></g><path id="node_outline20" fill="none" stroke="none" d="M568.5000100657344,360.50000915676355h228a5,5,0,0,1,5,5v8a5,5,0,0,1,-5,5h-228a5,5,0,0,1,-5,-5v-8a5,5,0,0,1,5,-5z"></path><g id="node_text20" fill="black"><text id="kity_text_152" text-rendering="inherit" font-size="12" dy=".8em" y="361.70000912994146" x="568.5000100657344">世界上最危险的事情就是没有幽默感的权力</text></g></g><g id="minder_node24"><g id="node_expander20" display="none" style="cursor: pointer;"><path id="kity_path_323" fill="white" stroke="gray" d="M563.5000099018216,395.50000954419374A6,6,0,1,1,551.5000099018216,395.50000954419374A6,6,0,1,1,563.5000099018216,395.50000954419374"></path><path id="kity_path_324" fill="none" stroke="gray"></path></g><path id="node_outline21" fill="none" stroke="none" d="M568.5000100657344,386.50000954419374h253a5,5,0,0,1,5,5v8a5,5,0,0,1,-5,5h-253a5,5,0,0,1,-5,-5v-8a5,5,0,0,1,5,-5z"></path><g id="node_text21" fill="black"><text id="kity_text_154" text-rendering="inherit" font-size="12" dy=".8em" y="387.70000951737165" x="568.5000100657344">漫画可以变成政治武器，漫画的力量要恰当使用</text></g></g><g id="minder_node25"><g id="node_expander21" display="none" style="cursor: pointer;"><path id="kity_path_326" fill="white" stroke="gray" d="M563.5000099018216,421.50000993162394A6,6,0,1,1,551.5000099018216,421.50000993162394A6,6,0,1,1,563.5000099018216,421.50000993162394"></path><path id="kity_path_327" fill="none" stroke="gray"></path></g><path id="node_outline22" fill="none" stroke="none" d="M568.5000100657344,412.50000993162394h324a5,5,0,0,1,5,5v8a5,5,0,0,1,-5,5h-324a5,5,0,0,1,-5,-5v-8a5,5,0,0,1,5,-5z"></path><g id="node_text22" fill="black"><text id="kity_text_156" text-rendering="inherit" font-size="12" dy=".8em" y="413.70000990480185" x="568.5000100657344">单独靠严肃去解决有争议的问题，不如配合巧妙的嘲笑更有力</text></g></g><g id="minder_node26"><g id="node_expander33" style="cursor: pointer;"><path id="kity_path_362" fill="white" stroke="gray" d="M992.0000162869692,83.50000489503145A6,6,0,1,1,980.0000162869692,83.50000489503145A6,6,0,1,1,992.0000162869692,83.50000489503145"></path><path id="kity_path_363" fill="none" stroke="gray" d="M981.5000162869692,83.50000489503145L990.5000162869692,83.50000489503145"></path></g><path id="node_outline34" fill="#8db3e2" stroke="rgb(115, 161, 191)" d="M916.5000158771873,90.50000523775816h139a3,3,0,0,1,3,3v26a3,3,0,0,1,-3,3h-139a3,3,0,0,1,-3,-3v-26a3,3,0,0,1,3,-3z" stroke-width="1"></path><g id="node_text34" fill="#ffffff"><text id="kity_text_182" text-rendering="inherit" font-family="微软雅黑,Microsoft YaHei" font-size="14" dy=".8em" font-weight="bold" y="97.40000520646572" x="958.5000158771873">人工智能 AI&#xa0;</text></g><g id="node_priority3"><path id="kity_path_215" fill="#840023" stroke="none" d="M934.0000155121088,110.00000509619713c0,3.866,3.134,7,7,7h6c3.866,0,7,-3.134,7,-7V104.00000509619713H934.0000155121088V110.00000509619713z"></path><path id="kity_path_216" fill="#FF1200" stroke="none" d="M954.0000155121088,107.00000509619713c0,3.866,-3.134,7,-7,7H941.0000155121088c-3.866,0,-7,-3.134,-7,-7V104.00000509619713c0,-3.866,3.134,-7,7,-7h6c3.866,0,7,3.134,7,7V107.00000509619713z" opacity="0.8"></path><text id="kity_text_217" text-rendering="geometricPrecision" x="943.0000155046582" y="106.50000508874655" text-anchor="middle" font-style="italic" font-size="12" fill="white" dy="5">1</text></g></g><g id="minder_node27"><g id="node_expander32" style="cursor: pointer;"><path id="kity_path_359" fill="white" stroke="gray" d="M941.5000155344605,143.50000578910112A6,6,0,1,1,929.5000155344605,143.50000578910112A6,6,0,1,1,941.5000155344605,143.50000578910112"></path><path id="kity_path_360" fill="none" stroke="gray" d="M931.0000155344605,143.50000578910112L940.0000155344605,143.50000578910112"></path></g><path id="node_outline33" fill="#8db3e2" stroke="none" d="M946.5000156983733,134.50000578910112h72a5,5,0,0,1,5,5v8a5,5,0,0,1,-5,5h-72a5,5,0,0,1,-5,-5v-8a5,5,0,0,1,5,-5z"></path><g id="node_text33" fill="#ffffff"><text id="kity_text_180" text-rendering="inherit" font-family="微软雅黑,Microsoft YaHei" font-size="12" dy=".8em" font-weight="bold" y="135.70000576227903" x="946.5000156983733">机器学习 ML</text></g></g><g id="minder_node28"><g id="node_expander31" style="cursor: pointer;"><path id="kity_path_356" fill="white" stroke="gray" d="M969.5000159516931,169.50000617653131A6,6,0,1,1,957.5000159516931,169.50000617653131A6,6,0,1,1,969.5000159516931,169.50000617653131"></path><path id="kity_path_357" fill="none" stroke="gray" d="M959.0000159516931,169.50000617653131L968.0000159516931,169.50000617653131"></path></g><path id="node_outline32" fill="#8db3e2" stroke="none" d="M974.5000161156058,160.50000617653131h188a5,5,0,0,1,5,5v8a5,5,0,0,1,-5,5h-188a5,5,0,0,1,-5,-5v-8a5,5,0,0,1,5,-5z"></path><g id="node_text32" fill="#ffffff"><text id="kity_text_178" text-rendering="inherit" font-family="微软雅黑,Microsoft YaHei" font-size="12" dy=".8em" font-weight="bold" y="161.70000614970922" x="974.5000161156058">推荐系统 Recommender System</text></g></g><g id="minder_node29"><g id="node_expander25" display="none" style="cursor: pointer;"><path id="kity_path_338" fill="white" stroke="gray" d="M997.5000163689256,213.5000068321824A6,6,0,1,1,985.5000163689256,213.5000068321824A6,6,0,1,1,997.5000163689256,213.5000068321824"></path><path id="kity_path_339" fill="none" stroke="gray"></path></g><path id="node_outline26" fill="none" stroke="none" d="M1002.5000165328383,186.5000068321824h349a5,5,0,0,1,5,5v44a5,5,0,0,1,-5,5h-349a5,5,0,0,1,-5,-5v-44a5,5,0,0,1,5,-5z"></path><g id="node_text26" fill="black"><text id="kity_text_164" text-rendering="inherit" font-size="12" dy=".8em" y="187.70000680536032" x="1002.5000165328383">推荐系统（Recommender System）</text><text id="kity_text_165" text-rendering="inherit" font-size="12" dy=".8em" y="205.70000680536032" x="1002.5000165328383">是一种信息过滤系统，根据用户的历史行为、</text><text id="kity_text_166" text-rendering="inherit" font-size="12" dy=".8em" y="223.70000680536032" x="1002.5000165328383">社交关系、兴趣点，算法可以判断用户当前感兴趣的物品或内容。</text></g></g><g id="minder_node30"><g id="node_expander30" style="cursor: pointer;"><path id="kity_path_353" fill="white" stroke="gray" d="M997.5000163689256,257.5000074878335A6,6,0,1,1,985.5000163689256,257.5000074878335A6,6,0,1,1,997.5000163689256,257.5000074878335"></path><path id="kity_path_354" fill="none" stroke="gray" d="M987.0000163689256,257.5000074878335L996.0000163689256,257.5000074878335"></path></g><path id="node_outline31" fill="#8db3e2" stroke="none" d="M1002.5000165328383,248.5000074878335h129a5,5,0,0,1,5,5v8a5,5,0,0,1,-5,5h-129a5,5,0,0,1,-5,-5v-8a5,5,0,0,1,5,-5z"></path><g id="node_text31" fill="#ffffff"><text id="kity_text_176" text-rendering="inherit" font-family="微软雅黑,Microsoft YaHei" font-size="12" dy=".8em" font-weight="bold" y="249.7000074610114" x="1002.5000165328383">过滤气泡&#xa0;Filter bubble</text></g></g><g id="minder_node31"><g id="node_expander26" display="none" style="cursor: pointer;"><path id="kity_path_341" fill="white" stroke="gray" d="M1025.500016786158,283.5000078752637A6,6,0,1,1,1013.5000167861581,283.5000078752637A6,6,0,1,1,1025.500016786158,283.5000078752637"></path><path id="kity_path_342" fill="none" stroke="gray"></path></g><path id="node_outline27" fill="none" stroke="none" d="M1030.5000169500709,274.5000078752637h194a5,5,0,0,1,5,5v8a5,5,0,0,1,-5,5h-194a5,5,0,0,1,-5,-5v-8a5,5,0,0,1,5,-5z"></path><g id="node_text27" fill="black"><text id="kity_text_168" text-rendering="inherit" font-size="12" dy=".8em" y="275.7000078484416" x="1030.5000169500709">是一种能分隔开人们意识形态的算法</text></g></g><g id="minder_node32"><g id="node_expander27" display="none" style="cursor: pointer;"><path id="kity_path_344" fill="white" stroke="gray" d="M1025.500016786158,309.5000082626939A6,6,0,1,1,1013.5000167861581,309.5000082626939A6,6,0,1,1,1025.500016786158,309.5000082626939"></path><path id="kity_path_345" fill="none" stroke="gray"></path></g><path id="node_outline28" fill="none" stroke="none" d="M1030.5000169500709,300.5000082626939h108a5,5,0,0,1,5,5v8a5,5,0,0,1,-5,5h-108a5,5,0,0,1,-5,-5v-8a5,5,0,0,1,5,-5z"></path><g id="node_text28" fill="black"><text id="kity_text_170" text-rendering="inherit" font-size="12" dy=".8em" y="301.7000082358718" x="1030.5000169500709">平台应该让算法透明</text></g></g><g id="minder_node33"><g id="node_expander29" style="cursor: pointer;"><path id="kity_path_350" fill="white" stroke="gray" d="M1025.500016786158,335.5000086501241A6,6,0,1,1,1013.5000167861581,335.5000086501241A6,6,0,1,1,1025.500016786158,335.5000086501241"></path><path id="kity_path_351" fill="none" stroke="gray" d="M1015.0000167861581,335.5000086501241L1024.000016786158,335.5000086501241"></path></g><path id="node_outline30" fill="none" stroke="none" d="M1030.5000169500709,326.5000086501241h25a5,5,0,0,1,5,5v8a5,5,0,0,1,-5,5h-25a5,5,0,0,1,-5,-5v-8a5,5,0,0,1,5,-5z"></path><g id="node_text30" fill="black"><text id="kity_text_174" text-rendering="inherit" font-size="12" dy=".8em" font-weight="bold" y="327.700008623302" x="1030.5000169500709">危害 </text></g></g><g id="minder_node34"><g id="node_expander28" display="none" style="cursor: pointer;"><path id="kity_path_347" fill="white" stroke="gray" d="M1053.5000172033906,361.50000903755426A6,6,0,1,1,1041.5000172033906,361.50000903755426A6,6,0,1,1,1053.5000172033906,361.50000903755426"></path><path id="kity_path_348" fill="none" stroke="gray"></path></g><path id="node_outline29" fill="none" stroke="none" d="M1058.5000173673034,352.50000903755426h97a5,5,0,0,1,5,5v8a5,5,0,0,1,-5,5h-97a5,5,0,0,1,-5,-5v-8a5,5,0,0,1,5,-5z"></path><g id="node_text29" fill="black"><text id="kity_text_172" text-rendering="inherit" font-size="12" dy=".8em" y="353.7000090107322" x="1058.5000173673034">容易导致群体偏见</text></g></g><g id="minder_node35"><g id="node_expander42" style="cursor: pointer;"><path id="kity_path_389" fill="white" stroke="gray" d="M1490.0000237077475,83.50000489503145A6,6,0,1,1,1478.0000237077475,83.50000489503145A6,6,0,1,1,1490.0000237077475,83.50000489503145"></path><path id="kity_path_390" fill="none" stroke="gray" d="M1479.5000237077475,83.50000489503145L1488.5000237077475,83.50000489503145"></path></g><path id="node_outline43" fill="#8db3e2" stroke="rgb(115, 161, 191)" d="M1375.5000227168202,90.50000534206629h217a3,3,0,0,1,3,3v41a3,3,0,0,1,-3,3h-217a3,3,0,0,1,-3,-3v-41a3,3,0,0,1,3,-3z" stroke-width="1"></path><g id="node_text43" fill="#ffffff"><text id="kity_text_200" text-rendering="inherit" font-family="微软雅黑,Microsoft YaHei" font-size="14" dy=".8em" font-weight="bold" y="93.90000531077385" x="1417.5000227168202">情绪管理&#xa0;</text><text id="kity_text_201" text-rendering="inherit" font-family="微软雅黑,Microsoft YaHei" font-size="14" dy=".8em" font-weight="bold" y="114.90000531077385" x="1417.5000227168202">Emotion Management</text></g><g id="node_priority4"><path id="kity_path_220" fill="#840023" stroke="none" d="M1393.0000223517418,117.00000520050526c0,3.866,3.134,7,7,7h6c3.866,0,7,-3.134,7,-7V111.00000520050526H1393.0000223517418V117.00000520050526z"></path><path id="kity_path_221" fill="#FF1200" stroke="none" d="M1413.0000223517418,114.00000520050526c0,3.866,-3.134,7,-7,7H1400.0000223517418c-3.866,0,-7,-3.134,-7,-7V111.00000520050526c0,-3.866,3.134,-7,7,-7h6c3.866,0,7,3.134,7,7V114.00000520050526z" opacity="0.8"></path><text id="kity_text_222" text-rendering="geometricPrecision" x="1402.0000223442912" y="113.50000519305468" text-anchor="middle" font-style="italic" font-size="12" fill="white" dy="5">1</text></g></g><g id="minder_node36"><g id="node_expander34" display="none" style="cursor: pointer;"><path id="kity_path_365" fill="white" stroke="gray" d="M1400.5000223740935,158.50000601261854A6,6,0,1,1,1388.5000223740935,158.50000601261854A6,6,0,1,1,1400.5000223740935,158.50000601261854"></path><path id="kity_path_366" fill="none" stroke="gray"></path></g><path id="node_outline35" fill="none" stroke="none" d="M1405.5000225380063,149.50000601261854h301a5,5,0,0,1,5,5v8a5,5,0,0,1,-5,5h-301a5,5,0,0,1,-5,-5v-8a5,5,0,0,1,5,-5z"></path><g id="node_text35" fill="black"><text id="kity_text_184" text-rendering="inherit" font-size="12" dy=".8em" y="150.70000598579645" x="1405.5000225380063">情绪并不是人类天生就具有的，而是根据后天经验构建的</text></g></g><g id="minder_node37"><g id="node_expander35" display="none" style="cursor: pointer;"><path id="kity_path_368" fill="white" stroke="gray" d="M1400.5000223740935,184.50000640004873A6,6,0,1,1,1388.5000223740935,184.50000640004873A6,6,0,1,1,1400.5000223740935,184.50000640004873"></path><path id="kity_path_369" fill="none" stroke="gray"></path></g><path id="node_outline36" fill="none" stroke="none" d="M1405.5000225380063,175.50000640004873h301a5,5,0,0,1,5,5v8a5,5,0,0,1,-5,5h-301a5,5,0,0,1,-5,-5v-8a5,5,0,0,1,5,-5z"></path><g id="node_text36" fill="black"><text id="kity_text_186" text-rendering="inherit" font-size="12" dy=".8em" font-weight="bold" y="176.70000637322664" x="1405.5000225380063">我们要从情绪中挖掘出有价值的信息，而不是被情绪控制</text></g></g><g id="minder_node38"><g id="node_expander41" style="cursor: pointer;"><path id="kity_path_386" fill="white" stroke="gray" d="M1400.5000223740935,210.50000678747892A6,6,0,1,1,1388.5000223740935,210.50000678747892A6,6,0,1,1,1400.5000223740935,210.50000678747892"></path><path id="kity_path_387" fill="none" stroke="gray" d="M1390.0000223740935,210.50000678747892L1399.0000223740935,210.50000678747892"></path></g><path id="node_outline42" fill="none" stroke="none" d="M1405.5000225380063,201.50000678747892h49a5,5,0,0,1,5,5v8a5,5,0,0,1,-5,5h-49a5,5,0,0,1,-5,-5v-8a5,5,0,0,1,5,-5z"></path><g id="node_text42" fill="black"><text id="kity_text_198" text-rendering="inherit" font-size="12" dy=".8em" font-weight="bold" y="202.70000676065683" x="1405.5000225380063">三个层次</text></g></g><g id="minder_node39"><g id="node_expander38" style="cursor: pointer;"><path id="kity_path_377" fill="white" stroke="gray" d="M1428.500022791326,236.50000717490911A6,6,0,1,1,1416.500022791326,236.50000717490911A6,6,0,1,1,1428.500022791326,236.50000717490911"></path><path id="kity_path_378" fill="none" stroke="gray" d="M1418.000022791326,236.50000717490911L1427.000022791326,236.50000717490911"></path></g><path id="node_outline39" fill="none" stroke="none" d="M1433.5000229552388,227.50000717490911h108a5,5,0,0,1,5,5v8a5,5,0,0,1,-5,5h-108a5,5,0,0,1,-5,-5v-8a5,5,0,0,1,5,-5z"></path><g id="node_text39" fill="black"><text id="kity_text_192" text-rendering="inherit" font-size="12" dy=".8em" y="228.70000714808702" x="1433.5000229552388">无意识的压抑或发泄</text></g></g><g id="minder_node40"><g id="node_expander36" display="none" style="cursor: pointer;"><path id="kity_path_371" fill="white" stroke="gray" d="M1456.5000232085586,262.5000075623393A6,6,0,1,1,1444.5000232085586,262.5000075623393A6,6,0,1,1,1456.5000232085586,262.5000075623393"></path><path id="kity_path_372" fill="none" stroke="gray"></path></g><path id="node_outline37" fill="none" stroke="none" d="M1461.5000233724713,253.5000075623393h38a5,5,0,0,1,5,5v8a5,5,0,0,1,-5,5h-38a5,5,0,0,1,-5,-5v-8a5,5,0,0,1,5,-5z"></path><g id="node_text37" fill="black"><text id="kity_text_188" text-rendering="inherit" font-size="12" dy=".8em" y="254.70000753551722" x="1461.5000233724713">情绪化</text></g></g><g id="minder_node41"><g id="node_expander37" display="none" style="cursor: pointer;"><path id="kity_path_374" fill="white" stroke="gray" d="M1456.5000232085586,288.5000079497695A6,6,0,1,1,1444.5000232085586,288.5000079497695A6,6,0,1,1,1456.5000232085586,288.5000079497695"></path><path id="kity_path_375" fill="none" stroke="gray"></path></g><path id="node_outline38" fill="none" stroke="none" d="M1461.5000233724713,279.5000079497695h25a5,5,0,0,1,5,5v8a5,5,0,0,1,-5,5h-25a5,5,0,0,1,-5,-5v-8a5,5,0,0,1,5,-5z"></path><g id="node_text38" fill="black"><text id="kity_text_190" text-rendering="inherit" font-size="12" dy=".8em" y="280.7000079229474" x="1461.5000233724713">转移</text></g></g><g id="minder_node42"><g id="node_expander39" display="none" style="cursor: pointer;"><path id="kity_path_380" fill="white" stroke="gray" d="M1428.500022791326,314.5000083371997A6,6,0,1,1,1416.500022791326,314.5000083371997A6,6,0,1,1,1428.500022791326,314.5000083371997"></path><path id="kity_path_381" fill="none" stroke="gray"></path></g><path id="node_outline40" fill="none" stroke="none" d="M1433.5000229552388,305.5000083371997h110a5,5,0,0,1,5,5v8a5,5,0,0,1,-5,5h-110a5,5,0,0,1,-5,-5v-8a5,5,0,0,1,5,-5z"></path><g id="node_text40" fill="black"><text id="kity_text_194" text-rendering="inherit" font-size="12" dy=".8em" y="306.7000083103776" x="1433.5000229552388">有意识的宣泄与表达</text></g></g><g id="minder_node43"><g id="node_expander40" display="none" style="cursor: pointer;"><path id="kity_path_383" fill="white" stroke="gray" d="M1428.500022791326,340.5000087246299A6,6,0,1,1,1416.500022791326,340.5000087246299A6,6,0,1,1,1428.500022791326,340.5000087246299"></path><path id="kity_path_384" fill="none" stroke="gray"></path></g><path id="node_outline41" fill="none" stroke="none" d="M1433.5000229552388,331.5000087246299h109a5,5,0,0,1,5,5v8a5,5,0,0,1,-5,5h-109a5,5,0,0,1,-5,-5v-8a5,5,0,0,1,5,-5z"></path><g id="node_text41" fill="black"><text id="kity_text_196" text-rendering="inherit" font-size="12" dy=".8em" y="332.7000086978078" x="1433.5000229552388">有意识的觉察与成长</text></g></g></g></g></svg>