<svg id="kity_svg_6" xmlns="http://www.w3.org/2000/svg" xmlns:xlink="http://www.w3.org/1999/xlink" version="1.1" width="2259" height="683" style="background: rgb(251, 251, 251); visibility: visible;" viewBox="0 0 2259 683"><defs id="kity_defs_7"><linearGradient id="kity_linearGradient_17" x1="0" y1="0" x2="0" y2="1"><stop id="kity_stop_18" offset="0" stop-color="rgb(255, 255, 255)"></stop><stop id="kity_stop_19" offset="1" stop-color="rgb(204, 204, 204)"></stop></linearGradient><marker id="kity_marker_2" orient="auto" refX="6" refY="0" viewBox="-7 -7 14 14" markerWidth="7" markerHeight="7" markerUnits="userSpaceOnUse"><path id="kity_path_3" fill="rgb(115, 161, 191)" stroke="none" d="M6,0A6,6,0,1,1,-6,0A6,6,0,1,1,6,0"></path></marker></defs><g id="kity_g_8"><g id="minder1" text-rendering="optimize-speed"><g id="minder_connect_group1"><path id="kity_path_31" fill="none" stroke="rgb(115, 161, 191)" stroke-width="1" d="M954.5000114366412,72.50000470131636v10h-869V90.50000470131636"></path><path id="kity_path_33" fill="none" stroke="rgb(115, 161, 191)" stroke-width="1" d="M39.500011436641216,122.50000470131636V143.50000470131636L47.500011436641216,143.50000470131636"></path><path id="kity_path_35" fill="none" stroke="rgb(115, 161, 191)" stroke-width="1" d="M67.50001143664122,152.50000470131636V169.50000470131636L75.50001143664122,169.50000470131636"></path><path id="kity_path_37" fill="none" stroke="rgb(115, 161, 191)" stroke-width="1" d="M39.500011436641216,122.50000470131636V195.50000470131636L47.500011436641216,195.50000470131636"></path><path id="kity_path_39" fill="none" stroke="rgb(115, 161, 191)" stroke-width="1" d="M67.50001143664122,204.50000470131636V221.50000470131636L75.50001143664122,221.50000470131636"></path><path id="kity_path_41" fill="none" stroke="rgb(115, 161, 191)" stroke-width="1" d="M67.50001143664122,204.50000470131636V247.50000470131636L75.50001143664122,247.50000470131636"></path><path id="kity_path_43" fill="none" stroke="rgb(115, 161, 191)" stroke-width="1" d="M39.500011436641216,122.50000470131636V273.50000470131636L47.500011436641216,273.50000470131636"></path><path id="kity_path_45" fill="none" stroke="rgb(115, 161, 191)" stroke-width="1" d="M67.50001143664122,282.50000470131636V308.50000470131636L75.50001143664122,308.50000470131636"></path><path id="kity_path_47" fill="none" stroke="rgb(115, 161, 191)" stroke-width="1" d="M954.5000114366412,72.50000470131636v10h-589V90.50000470131636"></path><path id="kity_path_49" fill="none" stroke="rgb(115, 161, 191)" stroke-width="1" d="M309.5000114366412,122.50000470131636V143.50000470131636L317.5000114366412,143.50000470131636"></path><path id="kity_path_51" fill="none" stroke="rgb(115, 161, 191)" stroke-width="1" d="M309.5000114366412,122.50000470131636V169.50000470131636L317.5000114366412,169.50000470131636"></path><path id="kity_path_53" fill="none" stroke="rgb(115, 161, 191)" stroke-width="1" d="M309.5000114366412,122.50000470131636V195.50000470131636L317.5000114366412,195.50000470131636"></path><path id="kity_path_55" fill="none" stroke="rgb(115, 161, 191)" stroke-width="1" d="M337.5000114366412,204.50000470131636V221.50000470131636L345.5000114366412,221.50000470131636"></path><path id="kity_path_57" fill="none" stroke="rgb(115, 161, 191)" stroke-width="1" d="M337.5000114366412,204.50000470131636V247.50000470131636L345.5000114366412,247.50000470131636"></path><path id="kity_path_59" fill="none" stroke="rgb(115, 161, 191)" stroke-width="1" d="M309.5000114366412,122.50000470131636V273.50000470131636L317.5000114366412,273.50000470131636"></path><path id="kity_path_61" fill="none" stroke="rgb(115, 161, 191)" stroke-width="1" d="M337.5000114366412,282.50000470131636V299.50000470131636L345.5000114366412,299.50000470131636"></path><path id="kity_path_63" fill="none" stroke="rgb(115, 161, 191)" stroke-width="1" d="M365.5000114366412,308.50000470131636V325.50000470131636L373.5000114366412,325.50000470131636"></path><path id="kity_path_65" fill="none" stroke="rgb(115, 161, 191)" stroke-width="1" d="M393.5000114366412,334.50000470131636V369.50000470131636L401.5000114366412,369.50000470131636"></path><path id="kity_path_67" fill="none" stroke="rgb(115, 161, 191)" stroke-width="1" d="M393.5000114366412,334.50000470131636V413.50000470131636L401.5000114366412,413.50000470131636"></path><path id="kity_path_69" fill="none" stroke="rgb(115, 161, 191)" stroke-width="1" d="M421.5000114366412,422.50000470131636V439.50000470131636L429.5000114366412,439.50000470131636"></path><path id="kity_path_71" fill="none" stroke="rgb(115, 161, 191)" stroke-width="1" d="M421.5000114366412,422.50000470131636V465.50000470131636L429.5000114366412,465.50000470131636"></path><path id="kity_path_73" fill="none" stroke="rgb(115, 161, 191)" stroke-width="1" d="M421.5000114366412,422.50000470131636V491.50000470131636L429.5000114366412,491.50000470131636"></path><path id="kity_path_75" fill="none" stroke="rgb(115, 161, 191)" stroke-width="1" d="M449.5000114366412,500.50000470131636V517.5000047013164L457.5000114366412,517.5000047013164"></path><path id="kity_path_77" fill="none" stroke="rgb(115, 161, 191)" stroke-width="1" d="M309.5000114366412,122.50000470131636V543.5000047013164L317.5000114366412,543.5000047013164"></path><path id="kity_path_79" fill="none" stroke="rgb(115, 161, 191)" stroke-width="1" d="M337.5000114366412,552.5000047013164V569.5000047013164L345.5000114366412,569.5000047013164"></path><path id="kity_path_81" fill="none" stroke="rgb(115, 161, 191)" stroke-width="1" d="M365.5000114366412,578.5000047013164V595.5000047013164L373.5000114366412,595.5000047013164"></path><path id="kity_path_83" fill="none" stroke="rgb(115, 161, 191)" stroke-width="1" d="M365.5000114366412,578.5000047013164V621.5000047013164L373.5000114366412,621.5000047013164"></path><path id="kity_path_85" fill="none" stroke="rgb(115, 161, 191)" stroke-width="1" d="M954.5000114366412,72.50000470131636v10h-87.5V90.50000470131636"></path><path id="kity_path_87" fill="none" stroke="rgb(115, 161, 191)" stroke-width="1" d="M796.5000114366412,122.50000470131636V143.50000470131636L804.5000114366412,143.50000470131636"></path><path id="kity_path_89" fill="none" stroke="rgb(115, 161, 191)" stroke-width="1" d="M796.5000114366412,122.50000470131636V169.50000470131636L804.5000114366412,169.50000470131636"></path><path id="kity_path_91" fill="none" stroke="rgb(115, 161, 191)" stroke-width="1" d="M824.5000114366412,178.50000470131636V195.50000470131636L832.5000114366412,195.50000470131636"></path><path id="kity_path_93" fill="none" stroke="rgb(115, 161, 191)" stroke-width="1" d="M852.5000114366412,204.50000470131636V221.50000470131636L860.5000114366412,221.50000470131636"></path><path id="kity_path_95" fill="none" stroke="rgb(115, 161, 191)" stroke-width="1" d="M852.5000114366412,204.50000470131636V247.50000470131636L860.5000114366412,247.50000470131636"></path><path id="kity_path_97" fill="none" stroke="rgb(115, 161, 191)" stroke-width="1" d="M852.5000114366412,204.50000470131636V273.50000470131636L860.5000114366412,273.50000470131636"></path><path id="kity_path_99" fill="none" stroke="rgb(115, 161, 191)" stroke-width="1" d="M824.5000114366412,178.50000470131636V299.50000470131636L832.5000114366412,299.50000470131636"></path><path id="kity_path_101" fill="none" stroke="rgb(115, 161, 191)" stroke-width="1" d="M852.5000114366412,308.50000470131636V325.50000470131636L860.5000114366412,325.50000470131636"></path><path id="kity_path_103" fill="none" stroke="rgb(115, 161, 191)" stroke-width="1" d="M852.5000114366412,308.50000470131636V351.50000470131636L860.5000114366412,351.50000470131636"></path><path id="kity_path_105" fill="none" stroke="rgb(115, 161, 191)" stroke-width="1" d="M796.5000114366412,122.50000470131636V377.50000470131636L804.5000114366412,377.50000470131636"></path><path id="kity_path_107" fill="none" stroke="rgb(115, 161, 191)" stroke-width="1" d="M824.5000114366412,386.50000470131636V403.50000470131636L832.5000114366412,403.50000470131636"></path><path id="kity_path_109" fill="none" stroke="rgb(115, 161, 191)" stroke-width="1" d="M954.5000114366412,72.50000470131636v10h407.5V90.50000470131636"></path><path id="kity_path_111" fill="none" stroke="rgb(115, 161, 191)" stroke-width="1" d="M1255.5000114366412,122.50000470131636V143.50000470131636L1263.5000114366412,143.50000470131636"></path><path id="kity_path_113" fill="none" stroke="rgb(115, 161, 191)" stroke-width="1" d="M1283.5000114366412,152.50000470131636V169.50000470131636L1291.5000114366412,169.50000470131636"></path><path id="kity_path_115" fill="none" stroke="rgb(115, 161, 191)" stroke-width="1" d="M1283.5000114366412,152.50000470131636V195.50000470131636L1291.5000114366412,195.50000470131636"></path><path id="kity_path_117" fill="none" stroke="rgb(115, 161, 191)" stroke-width="1" d="M1283.5000114366412,152.50000470131636V221.50000470131636L1291.5000114366412,221.50000470131636"></path><path id="kity_path_119" fill="none" stroke="rgb(115, 161, 191)" stroke-width="1" d="M1255.5000114366412,122.50000470131636V256.50000470131636L1263.5000114366412,256.50000470131636"></path><path id="kity_path_121" fill="none" stroke="rgb(115, 161, 191)" stroke-width="1" d="M1283.5000114366412,274.50000470131636V291.50000470131636L1291.5000114366412,291.50000470131636"></path><path id="kity_path_123" fill="none" stroke="rgb(115, 161, 191)" stroke-width="1" d="M1255.5000114366412,122.50000470131636V317.50000470131636L1263.5000114366412,317.50000470131636"></path><path id="kity_path_125" fill="none" stroke="rgb(115, 161, 191)" stroke-width="1" d="M1283.5000114366412,326.50000470131636V343.50000470131636L1291.5000114366412,343.50000470131636"></path><path id="kity_path_127" fill="none" stroke="rgb(115, 161, 191)" stroke-width="1" d="M1283.5000114366412,326.50000470131636V369.50000470131636L1291.5000114366412,369.50000470131636"></path><path id="kity_path_129" fill="none" stroke="rgb(115, 161, 191)" stroke-width="1" d="M1283.5000114366412,326.50000470131636V395.50000470131636L1291.5000114366412,395.50000470131636"></path><path id="kity_path_131" fill="none" stroke="rgb(115, 161, 191)" stroke-width="1" d="M1255.5000114366412,122.50000470131636V421.50000470131636L1263.5000114366412,421.50000470131636"></path><path id="kity_path_133" fill="none" stroke="rgb(115, 161, 191)" stroke-width="1" d="M1283.5000114366412,430.50000470131636V447.50000470131636L1291.5000114366412,447.50000470131636"></path><path id="kity_path_135" fill="none" stroke="rgb(115, 161, 191)" stroke-width="1" d="M1283.5000114366412,430.50000470131636V473.50000470131636L1291.5000114366412,473.50000470131636"></path><path id="kity_path_137" fill="none" stroke="rgb(115, 161, 191)" stroke-width="1" d="M954.5000114366412,72.50000470131636v10h970.5V63.50000470131636"></path><path id="kity_path_139" fill="none" stroke="rgb(115, 161, 191)" stroke-width="1" d="M1820.5000114366412,95.50000470131636V116.50000470131636L1828.5000114366412,116.50000470131636"></path><path id="kity_path_141" fill="none" stroke="rgb(115, 161, 191)" stroke-width="1" d="M1848.5000114366412,125.50000470131636V142.50000470131636L1856.5000114366412,142.50000470131636"></path><path id="kity_path_143" fill="none" stroke="rgb(115, 161, 191)" stroke-width="1" d="M1876.5000114366412,151.50000470131636V168.50000470131636L1884.5000114366412,168.50000470131636"></path><path id="kity_path_145" fill="none" stroke="rgb(115, 161, 191)" stroke-width="1" d="M1876.5000114366412,151.50000470131636V194.50000470131636L1884.5000114366412,194.50000470131636"></path><path id="kity_path_147" fill="none" stroke="rgb(115, 161, 191)" stroke-width="1" d="M1876.5000114366412,151.50000470131636V220.50000470131636L1884.5000114366412,220.50000470131636"></path><path id="kity_path_149" fill="none" stroke="rgb(115, 161, 191)" stroke-width="1" d="M1876.5000114366412,151.50000470131636V246.50000470131636L1884.5000114366412,246.50000470131636"></path><path id="kity_path_151" fill="none" stroke="rgb(115, 161, 191)" stroke-width="1" d="M1876.5000114366412,151.50000470131636V272.50000470131636L1884.5000114366412,272.50000470131636"></path><path id="kity_path_153" fill="none" stroke="rgb(115, 161, 191)" stroke-width="1" d="M1876.5000114366412,151.50000470131636V298.50000470131636L1884.5000114366412,298.50000470131636"></path><path id="kity_path_155" fill="none" stroke="rgb(115, 161, 191)" stroke-width="1" d="M1848.5000114366412,125.50000470131636V324.50000470131636L1856.5000114366412,324.50000470131636"></path><path id="kity_path_157" fill="none" stroke="rgb(115, 161, 191)" stroke-width="1" d="M1876.5000114366412,333.50000470131636V350.50000470131636L1884.5000114366412,350.50000470131636"></path><path id="kity_path_159" fill="none" stroke="rgb(115, 161, 191)" stroke-width="1" d="M1876.5000114366412,333.50000470131636V376.50000470131636L1884.5000114366412,376.50000470131636"></path><path id="kity_path_161" fill="none" stroke="rgb(115, 161, 191)" stroke-width="1" d="M1876.5000114366412,333.50000470131636V402.50000470131636L1884.5000114366412,402.50000470131636"></path><path id="kity_path_163" fill="none" stroke="rgb(115, 161, 191)" stroke-width="1" d="M1820.5000114366412,95.50000470131636V428.50000470131636L1803.5000114366412,428.50000470131636"></path><path id="kity_path_165" fill="none" stroke="rgb(115, 161, 191)" stroke-width="1" d="M1823.5000114366412,437.50000470131636V454.50000470131636L1831.5000114366412,454.50000470131636"></path><path id="kity_path_167" fill="none" stroke="rgb(115, 161, 191)" stroke-width="1" d="M1851.5000114366412,463.50000470131636V480.50000470131636L1859.5000114366412,480.50000470131636"></path><path id="kity_path_169" fill="none" stroke="rgb(115, 161, 191)" stroke-width="1" d="M1851.5000114366412,463.50000470131636V506.50000470131636L1859.5000114366412,506.50000470131636"></path><path id="kity_path_171" fill="none" stroke="rgb(115, 161, 191)" stroke-width="1" d="M1851.5000114366412,463.50000470131636V532.5000047013164L1859.5000114366412,532.5000047013164"></path><path id="kity_path_173" fill="none" stroke="rgb(115, 161, 191)" stroke-width="1" d="M1851.5000114366412,463.50000470131636V558.5000047013164L1859.5000114366412,558.5000047013164"></path><path id="kity_path_175" fill="none" stroke="rgb(115, 161, 191)" stroke-width="1" d="M1851.5000114366412,463.50000470131636V593.5000047013164L1859.5000114366412,593.5000047013164"></path><path id="kity_path_177" fill="none" stroke="rgb(115, 161, 191)" stroke-width="1" d="M1820.5000114366412,95.50000470131636V628.5000047013164L1828.5000114366412,628.5000047013164"></path><path id="kity_path_179" fill="none" stroke="rgb(115, 161, 191)" stroke-width="1" d="M1848.5000114366412,637.5000047013164V654.5000047013164L1856.5000114366412,654.5000047013164"></path></g><g id="minder_node1"><path id="node_outline1" fill="#8db3e2" stroke="rgb(57, 80, 96)" d="M799.5000114366412,20.500004701316357h309a5,5,0,0,1,5,5v42a5,5,0,0,1,-5,5h-309a5,5,0,0,1,-5,-5v-42a5,5,0,0,1,5,-5z" stroke-width="3"></path><g id="node_text1" fill="#ffffff"><text id="kity_text_22" text-rendering="inherit" font-size="16" dy=".8em" y="24.10000466555357" font-family="微软雅黑,Microsoft YaHei" font-weight="bold" x="806.5000114366412">科技、娱乐、设计</text><text id="kity_text_335" text-rendering="inherit" font-family="微软雅黑,Microsoft YaHei" font-size="16" dy=".8em" font-weight="bold" y="48.10000466555357" x="806.5000114366412">https://koujii.github.io/TED/TED.svg</text></g></g><g id="kity_g_12"><path id="kity_path_13" fill="none" stroke="none" d="M806.5000114366412,46.50000470131636h0v0h0z"></path></g><g id="kity_g_14"><path id="kity_path_15" fill="none" stroke="none" d="M806.5000114366412,46.50000470131636h0v0h0z"></path><path id="kity_path_16" fill="none" stroke="none"></path></g><g id="minder_node2"><g id="node_expander8" style="cursor: pointer;"><path id="kity_path_458" fill="white" stroke="gray" d="M91.00000068545341,83.50000525265932A6,6,0,1,1,79.00000068545341,83.50000525265932A6,6,0,1,1,91.00000068545341,83.50000525265932"></path><path id="kity_path_459" fill="none" stroke="gray" d="M80.50000068545341,83.50000525265932L89.50000068545341,83.50000525265932"></path></g><path id="node_outline9" fill="#8db3e2" stroke="rgb(115, 161, 191)" d="M22.50000037997961,90.50000559538603h125a3,3,0,0,1,3,3v26a3,3,0,0,1,-3,3h-125a3,3,0,0,1,-3,-3v-26a3,3,0,0,1,3,-3z" stroke-width="1"></path><g id="node_text9" fill="#ffffff"><text id="kity_text_196" text-rendering="inherit" font-family="微软雅黑,Microsoft YaHei" font-size="14" dy=".8em" font-weight="bold" y="97.40000556409359" x="64.50000037997961">数据 Data</text></g><g id="node_priority1"><path id="kity_path_338" fill="#840023" stroke="none" d="M40.00000001490116,110.000005453825c0,3.866,3.134,7,7,7h6c3.866,0,7,-3.134,7,-7V104.000005453825H40.00000001490116V110.000005453825z"></path><path id="kity_path_339" fill="#FF1200" stroke="none" d="M60.00000001490116,107.000005453825c0,3.866,-3.134,7,-7,7H47.00000001490116c-3.866,0,-7,-3.134,-7,-7V104.000005453825c0,-3.866,3.134,-7,7,-7h6c3.866,0,7,3.134,7,7V107.000005453825z" opacity="0.8"></path><text id="kity_text_340" text-rendering="geometricPrecision" x="49.00000000745058" y="106.50000544637442" text-anchor="middle" font-style="italic" font-size="12" fill="white" dy="5">1</text></g></g><g id="minder_node3"><g id="node_expander2" style="cursor: pointer;"><path id="kity_path_440" fill="white" stroke="gray" d="M47.5000000372529,143.500006146729A6,6,0,1,1,35.5000000372529,143.500006146729A6,6,0,1,1,47.5000000372529,143.500006146729"></path><path id="kity_path_441" fill="none" stroke="gray" d="M37.0000000372529,143.500006146729L46.0000000372529,143.500006146729"></path></g><path id="node_outline3" fill="#8db3e2" stroke="none" d="M52.500000201165676,134.500006146729h131a5,5,0,0,1,5,5v8a5,5,0,0,1,-5,5h-131a5,5,0,0,1,-5,-5v-8a5,5,0,0,1,5,-5z"></path><g id="node_text3" fill="#ffffff"><text id="kity_text_183" text-rendering="inherit" font-family="微软雅黑,Microsoft YaHei" font-size="12" dy=".8em" font-weight="bold" y="135.7000061199069" x="52.500000201165676">数字屑 Digital Crumbs</text></g></g><g id="minder_node4"><g id="node_expander1" display="none" style="cursor: pointer;"><path id="kity_path_437" fill="white" stroke="gray" d="M75.50000045448542,169.50000653415918A6,6,0,1,1,63.500000454485416,169.50000653415918A6,6,0,1,1,75.50000045448542,169.50000653415918"></path><path id="kity_path_438" fill="none" stroke="gray"></path></g><path id="node_outline2" fill="none" stroke="none" d="M80.50000061839819,160.50000653415918h52a5,5,0,0,1,5,5v8a5,5,0,0,1,-5,5h-52a5,5,0,0,1,-5,-5v-8a5,5,0,0,1,5,-5z"></path><g id="node_text2" fill="black"><text id="kity_text_181" text-rendering="inherit" font-size="12" dy=".8em" y="161.7000065073371" x="80.50000061839819">数据废气&#xa0;</text></g></g><g id="minder_node5"><g id="node_expander5" style="cursor: pointer;"><path id="kity_path_449" fill="white" stroke="gray" d="M47.5000000372529,195.50000692158937A6,6,0,1,1,35.5000000372529,195.50000692158937A6,6,0,1,1,47.5000000372529,195.50000692158937"></path><path id="kity_path_450" fill="none" stroke="gray" d="M37.0000000372529,195.50000692158937L46.0000000372529,195.50000692158937"></path></g><path id="node_outline6" fill="#8db3e2" stroke="none" d="M52.500000201165676,186.50000692158937h92a5,5,0,0,1,5,5v8a5,5,0,0,1,-5,5h-92a5,5,0,0,1,-5,-5v-8a5,5,0,0,1,5,-5z"></path><g id="node_text6" fill="#ffffff"><text id="kity_text_189" text-rendering="inherit" font-family="微软雅黑,Microsoft YaHei" font-size="12" dy=".8em" font-weight="bold" y="187.70000689476728" x="52.500000201165676">大数据 Big Data</text></g></g><g id="minder_node6"><g id="node_expander3" display="none" style="cursor: pointer;"><path id="kity_path_443" fill="white" stroke="gray" d="M75.50000045448542,221.50000730901957A6,6,0,1,1,63.500000454485416,221.50000730901957A6,6,0,1,1,75.50000045448542,221.50000730901957"></path><path id="kity_path_444" fill="none" stroke="gray"></path></g><path id="node_outline4" fill="none" stroke="none" d="M80.50000061839819,212.50000730901957h73a5,5,0,0,1,5,5v8a5,5,0,0,1,-5,5h-73a5,5,0,0,1,-5,-5v-8a5,5,0,0,1,5,-5z"></path><g id="node_text4" fill="black"><text id="kity_text_185" text-rendering="inherit" font-size="12" dy=".8em" y="213.70000728219748" x="80.50000061839819">巨量数据集合</text></g></g><g id="minder_node7"><g id="node_expander4" display="none" style="cursor: pointer;"><path id="kity_path_446" fill="white" stroke="gray" d="M75.50000045448542,247.50000769644976A6,6,0,1,1,63.500000454485416,247.50000769644976A6,6,0,1,1,75.50000045448542,247.50000769644976"></path><path id="kity_path_447" fill="none" stroke="gray"></path></g><path id="node_outline5" fill="none" stroke="none" d="M80.50000061839819,238.50000769644976h170a5,5,0,0,1,5,5v8a5,5,0,0,1,-5,5h-170a5,5,0,0,1,-5,-5v-8a5,5,0,0,1,5,-5z"></path><g id="node_text5" fill="black"><text id="kity_text_187" text-rendering="inherit" font-size="12" dy=".8em" y="239.70000766962767" x="80.50000061839819">数据共享：取之有道，用之有道</text></g></g><g id="minder_node8"><g id="node_expander7" style="cursor: pointer;"><path id="kity_path_455" fill="white" stroke="gray" d="M47.5000000372529,273.50000808387995A6,6,0,1,1,35.5000000372529,273.50000808387995A6,6,0,1,1,47.5000000372529,273.50000808387995"></path><path id="kity_path_456" fill="none" stroke="gray" d="M37.0000000372529,273.50000808387995L46.0000000372529,273.50000808387995"></path></g><path id="node_outline8" fill="#8db3e2" stroke="none" d="M52.500000201165676,264.50000808387995h216a5,5,0,0,1,5,5v8a5,5,0,0,1,-5,5h-216a5,5,0,0,1,-5,-5v-8a5,5,0,0,1,5,-5z"></path><g id="node_text8" fill="#ffffff"><text id="kity_text_194" text-rendering="inherit" font-family="微软雅黑,Microsoft YaHei" font-size="12" dy=".8em" font-weight="bold" y="265.70000805705786" x="52.500000201165676">信息可视化&#xa0;Information visualization</text></g></g><g id="minder_node9"><g id="node_expander6" display="none" style="cursor: pointer;"><path id="kity_path_452" fill="white" stroke="gray" d="M75.50000045448542,308.5000086054206A6,6,0,1,1,63.500000454485416,308.5000086054206A6,6,0,1,1,75.50000045448542,308.5000086054206"></path><path id="kity_path_453" fill="none" stroke="gray"></path></g><path id="node_outline7" fill="none" stroke="none" d="M80.50000061839819,290.5000086054206h157a5,5,0,0,1,5,5v26a5,5,0,0,1,-5,5h-157a5,5,0,0,1,-5,-5v-26a5,5,0,0,1,5,-5z"></path><g id="node_text7" fill="black"><text id="kity_text_191" text-rendering="inherit" font-size="12" dy=".8em" y="291.7000085785985" x="80.50000061839819">让公众易于读懂数据的意义，</text><text id="kity_text_192" text-rendering="inherit" font-size="12" dy=".8em" y="309.7000085785985" x="80.50000061839819">让更多的人知道真实的情况</text></g></g><g id="minder_node10"><g id="node_expander27" style="cursor: pointer;"><path id="kity_path_515" fill="white" stroke="gray" d="M371.00000485777855,83.50000525265932A6,6,0,1,1,359.00000485777855,83.50000525265932A6,6,0,1,1,371.00000485777855,83.50000525265932"></path><path id="kity_path_516" fill="none" stroke="gray" d="M360.50000485777855,83.50000525265932L369.50000485777855,83.50000525265932"></path></g><path id="node_outline28" fill="#8db3e2" stroke="rgb(115, 161, 191)" d="M292.50000440329313,90.50000559538603h145a3,3,0,0,1,3,3v26a3,3,0,0,1,-3,3h-145a3,3,0,0,1,-3,-3v-26a3,3,0,0,1,3,-3z" stroke-width="1"></path><g id="node_text28" fill="#ffffff"><text id="kity_text_236" text-rendering="inherit" font-family="微软雅黑,Microsoft YaHei" font-size="14" dy=".8em" font-weight="bold" y="97.40000556409359" x="334.50000440329313">编程改变世界</text></g><g id="node_priority2"><path id="kity_path_343" fill="#840023" stroke="none" d="M310.0000040382147,110.000005453825c0,3.866,3.134,7,7,7h6c3.866,0,7,-3.134,7,-7V104.000005453825H310.0000040382147V110.000005453825z"></path><path id="kity_path_344" fill="#FF1200" stroke="none" d="M330.0000040382147,107.000005453825c0,3.866,-3.134,7,-7,7H317.0000040382147c-3.866,0,-7,-3.134,-7,-7V104.000005453825c0,-3.866,3.134,-7,7,-7h6c3.866,0,7,3.134,7,7V107.000005453825z" opacity="0.8"></path><text id="kity_text_345" text-rendering="geometricPrecision" x="319.0000040307641" y="106.50000544637442" text-anchor="middle" font-style="italic" font-size="12" fill="white" dy="5">1</text></g></g><g id="minder_node11"><g id="node_expander9" display="none" style="cursor: pointer;"><path id="kity_path_461" fill="white" stroke="gray" d="M317.5000040605664,143.500006146729A6,6,0,1,1,305.5000040605664,143.500006146729A6,6,0,1,1,317.5000040605664,143.500006146729"></path><path id="kity_path_462" fill="none" stroke="gray"></path></g><path id="node_outline10" fill="none" stroke="none" d="M322.5000042244792,134.500006146729h109a5,5,0,0,1,5,5v8a5,5,0,0,1,-5,5h-109a5,5,0,0,1,-5,-5v-8a5,5,0,0,1,5,-5z"></path><g id="node_text10" fill="black"><text id="kity_text_198" text-rendering="inherit" font-size="12" dy=".8em" y="135.7000061199069" x="322.5000042244792">编码改善更好的政府</text></g></g><g id="minder_node12"><g id="node_expander10" display="none" style="cursor: pointer;"><path id="kity_path_464" fill="white" stroke="gray" d="M317.5000040605664,169.50000653415918A6,6,0,1,1,305.5000040605664,169.50000653415918A6,6,0,1,1,317.5000040605664,169.50000653415918"></path><path id="kity_path_465" fill="none" stroke="gray"></path></g><path id="node_outline11" fill="none" stroke="none" d="M322.5000042244792,160.50000653415918h217a5,5,0,0,1,5,5v8a5,5,0,0,1,-5,5h-217a5,5,0,0,1,-5,-5v-8a5,5,0,0,1,5,-5z"></path><g id="node_text11" fill="black"><text id="kity_text_200" text-rendering="inherit" font-size="12" dy=".8em" y="161.7000065073371" x="322.5000042244792">黑客编程一直是健康民主的重要组成部分</text></g></g><g id="minder_node13"><g id="node_expander13" style="cursor: pointer;"><path id="kity_path_473" fill="white" stroke="gray" d="M317.5000040605664,195.50000692158937A6,6,0,1,1,305.5000040605664,195.50000692158937A6,6,0,1,1,317.5000040605664,195.50000692158937"></path><path id="kity_path_474" fill="none" stroke="gray" d="M307.0000040605664,195.50000692158937L316.0000040605664,195.50000692158937"></path></g><path id="node_outline14" fill="none" stroke="none" d="M322.5000042244792,186.50000692158937h25a5,5,0,0,1,5,5v8a5,5,0,0,1,-5,5h-25a5,5,0,0,1,-5,-5v-8a5,5,0,0,1,5,-5z"></path><g id="node_text14" fill="black"><text id="kity_text_206" text-rendering="inherit" font-size="12" dy=".8em" y="187.70000689476728" x="322.5000042244792">偏见</text></g></g><g id="minder_node14"><g id="node_expander11" display="none" style="cursor: pointer;"><path id="kity_path_467" fill="white" stroke="gray" d="M345.50000447779894,221.50000730901957A6,6,0,1,1,333.50000447779894,221.50000730901957A6,6,0,1,1,345.50000447779894,221.50000730901957"></path><path id="kity_path_468" fill="none" stroke="gray"></path></g><path id="node_outline12" fill="none" stroke="none" d="M350.5000046417117,212.50000730901957h86a5,5,0,0,1,5,5v8a5,5,0,0,1,-5,5h-86a5,5,0,0,1,-5,-5v-8a5,5,0,0,1,5,-5z"></path><g id="node_text12" fill="black"><text id="kity_text_202" text-rendering="inherit" font-size="12" dy=".8em" y="213.70000728219748" x="350.5000046417117">女生也适合编程</text></g></g><g id="minder_node15"><g id="node_expander12" display="none" style="cursor: pointer;"><path id="kity_path_470" fill="white" stroke="gray" d="M345.50000447779894,247.50000769644976A6,6,0,1,1,333.50000447779894,247.50000769644976A6,6,0,1,1,345.50000447779894,247.50000769644976"></path><path id="kity_path_471" fill="none" stroke="gray"></path></g><path id="node_outline13" fill="none" stroke="none" d="M350.5000046417117,238.50000769644976h266a5,5,0,0,1,5,5v8a5,5,0,0,1,-5,5h-266a5,5,0,0,1,-5,-5v-8a5,5,0,0,1,5,-5z"></path><g id="node_text13" fill="black"><text id="kity_text_204" text-rendering="inherit" font-size="12" dy=".8em" y="239.70000766962767" x="350.5000046417117">编程是：自由摆弄的多彩的、具有表现能力的机器</text></g></g><g id="minder_node16"><g id="node_expander22" style="cursor: pointer;"><path id="kity_path_500" fill="white" stroke="gray" d="M317.5000040605664,273.50000808387995A6,6,0,1,1,305.5000040605664,273.50000808387995A6,6,0,1,1,317.5000040605664,273.50000808387995"></path><path id="kity_path_501" fill="none" stroke="gray" d="M307.0000040605664,273.50000808387995L316.0000040605664,273.50000808387995"></path></g><path id="node_outline23" fill="#8db3e2" stroke="none" d="M322.5000042244792,264.50000808387995h69a5,5,0,0,1,5,5v8a5,5,0,0,1,-5,5h-69a5,5,0,0,1,-5,-5v-8a5,5,0,0,1,5,-5z"></path><g id="node_text23" fill="#ffffff"><text id="kity_text_226" text-rendering="inherit" font-family="微软雅黑,Microsoft YaHei" font-size="12" dy=".8em" font-weight="bold" y="265.70000805705786" x="322.5000042244792">人工智能 AI&#xa0;</text></g></g><g id="minder_node17"><g id="node_expander21" style="cursor: pointer;"><path id="kity_path_497" fill="white" stroke="gray" d="M345.50000447779894,299.50000847131014A6,6,0,1,1,333.50000447779894,299.50000847131014A6,6,0,1,1,345.50000447779894,299.50000847131014"></path><path id="kity_path_498" fill="none" stroke="gray" d="M335.00000447779894,299.50000847131014L344.00000447779894,299.50000847131014"></path></g><path id="node_outline22" fill="#8db3e2" stroke="none" d="M350.5000046417117,290.50000847131014h72a5,5,0,0,1,5,5v8a5,5,0,0,1,-5,5h-72a5,5,0,0,1,-5,-5v-8a5,5,0,0,1,5,-5z"></path><g id="node_text22" fill="#ffffff"><text id="kity_text_224" text-rendering="inherit" font-family="微软雅黑,Microsoft YaHei" font-size="12" dy=".8em" font-weight="bold" y="291.70000844448805" x="350.5000046417117">机器学习 ML</text></g></g><g id="minder_node18"><g id="node_expander20" style="cursor: pointer;"><path id="kity_path_494" fill="white" stroke="gray" d="M373.50000489503145,325.50000885874033A6,6,0,1,1,361.50000489503145,325.50000885874033A6,6,0,1,1,373.50000489503145,325.50000885874033"></path><path id="kity_path_495" fill="none" stroke="gray" d="M363.00000489503145,325.50000885874033L372.00000489503145,325.50000885874033"></path></g><path id="node_outline21" fill="#8db3e2" stroke="none" d="M378.5000050589442,316.50000885874033h188a5,5,0,0,1,5,5v8a5,5,0,0,1,-5,5h-188a5,5,0,0,1,-5,-5v-8a5,5,0,0,1,5,-5z"></path><g id="node_text21" fill="#ffffff"><text id="kity_text_222" text-rendering="inherit" font-family="微软雅黑,Microsoft YaHei" font-size="12" dy=".8em" font-weight="bold" y="317.70000883191824" x="378.5000050589442">推荐系统 Recommender System</text></g></g><g id="minder_node19"><g id="node_expander14" display="none" style="cursor: pointer;"><path id="kity_path_476" fill="white" stroke="gray" d="M401.50000531226397,369.5000095143914A6,6,0,1,1,389.50000531226397,369.5000095143914A6,6,0,1,1,401.50000531226397,369.5000095143914"></path><path id="kity_path_477" fill="none" stroke="gray"></path></g><path id="node_outline15" fill="none" stroke="none" d="M406.50000547617674,342.5000095143914h349a5,5,0,0,1,5,5v44a5,5,0,0,1,-5,5h-349a5,5,0,0,1,-5,-5v-44a5,5,0,0,1,5,-5z"></path><g id="node_text15" fill="black"><text id="kity_text_208" text-rendering="inherit" font-size="12" dy=".8em" y="343.70000948756933" x="406.50000547617674">推荐系统（Recommender System）</text><text id="kity_text_209" text-rendering="inherit" font-size="12" dy=".8em" y="361.70000948756933" x="406.50000547617674">是一种信息过滤系统，根据用户的历史行为、</text><text id="kity_text_210" text-rendering="inherit" font-size="12" dy=".8em" y="379.70000948756933" x="406.50000547617674">社交关系、兴趣点，算法可以判断用户当前感兴趣的物品或内容。</text></g></g><g id="minder_node20"><g id="node_expander19" style="cursor: pointer;"><path id="kity_path_491" fill="white" stroke="gray" d="M401.50000531226397,413.5000101700425A6,6,0,1,1,389.50000531226397,413.5000101700425A6,6,0,1,1,401.50000531226397,413.5000101700425"></path><path id="kity_path_492" fill="none" stroke="gray" d="M391.00000531226397,413.5000101700425L400.00000531226397,413.5000101700425"></path></g><path id="node_outline20" fill="#8db3e2" stroke="none" d="M406.50000547617674,404.5000101700425h129a5,5,0,0,1,5,5v8a5,5,0,0,1,-5,5h-129a5,5,0,0,1,-5,-5v-8a5,5,0,0,1,5,-5z"></path><g id="node_text20" fill="#ffffff"><text id="kity_text_220" text-rendering="inherit" font-family="微软雅黑,Microsoft YaHei" font-size="12" dy=".8em" font-weight="bold" y="405.7000101432204" x="406.50000547617674">过滤气泡&#xa0;Filter bubble</text></g></g><g id="minder_node21"><g id="node_expander15" display="none" style="cursor: pointer;"><path id="kity_path_479" fill="white" stroke="gray" d="M429.5000057294965,439.5000105574727A6,6,0,1,1,417.5000057294965,439.5000105574727A6,6,0,1,1,429.5000057294965,439.5000105574727"></path><path id="kity_path_480" fill="none" stroke="gray"></path></g><path id="node_outline16" fill="none" stroke="none" d="M434.50000589340925,430.5000105574727h194a5,5,0,0,1,5,5v8a5,5,0,0,1,-5,5h-194a5,5,0,0,1,-5,-5v-8a5,5,0,0,1,5,-5z"></path><g id="node_text16" fill="black"><text id="kity_text_212" text-rendering="inherit" font-size="12" dy=".8em" y="431.7000105306506" x="434.50000589340925">是一种能分隔开人们意识形态的算法</text></g></g><g id="minder_node22"><g id="node_expander16" display="none" style="cursor: pointer;"><path id="kity_path_482" fill="white" stroke="gray" d="M429.5000057294965,465.5000109449029A6,6,0,1,1,417.5000057294965,465.5000109449029A6,6,0,1,1,429.5000057294965,465.5000109449029"></path><path id="kity_path_483" fill="none" stroke="gray"></path></g><path id="node_outline17" fill="none" stroke="none" d="M434.50000589340925,456.5000109449029h108a5,5,0,0,1,5,5v8a5,5,0,0,1,-5,5h-108a5,5,0,0,1,-5,-5v-8a5,5,0,0,1,5,-5z"></path><g id="node_text17" fill="black"><text id="kity_text_214" text-rendering="inherit" font-size="12" dy=".8em" y="457.7000109180808" x="434.50000589340925">平台应该让算法透明</text></g></g><g id="minder_node23"><g id="node_expander18" style="cursor: pointer;"><path id="kity_path_488" fill="white" stroke="gray" d="M429.5000057294965,491.5000113323331A6,6,0,1,1,417.5000057294965,491.5000113323331A6,6,0,1,1,429.5000057294965,491.5000113323331"></path><path id="kity_path_489" fill="none" stroke="gray" d="M419.0000057294965,491.5000113323331L428.0000057294965,491.5000113323331"></path></g><path id="node_outline19" fill="none" stroke="none" d="M434.50000589340925,482.5000113323331h25a5,5,0,0,1,5,5v8a5,5,0,0,1,-5,5h-25a5,5,0,0,1,-5,-5v-8a5,5,0,0,1,5,-5z"></path><g id="node_text19" fill="black"><text id="kity_text_218" text-rendering="inherit" font-size="12" dy=".8em" y="483.700011305511" x="434.50000589340925">危害 </text></g></g><g id="minder_node24"><g id="node_expander17" display="none" style="cursor: pointer;"><path id="kity_path_485" fill="white" stroke="gray" d="M457.500006146729,517.5000117197633A6,6,0,1,1,445.500006146729,517.5000117197633A6,6,0,1,1,457.500006146729,517.5000117197633"></path><path id="kity_path_486" fill="none" stroke="gray"></path></g><path id="node_outline18" fill="none" stroke="none" d="M462.50000631064177,508.5000117197633h97a5,5,0,0,1,5,5v8a5,5,0,0,1,-5,5h-97a5,5,0,0,1,-5,-5v-8a5,5,0,0,1,5,-5z"></path><g id="node_text18" fill="black"><text id="kity_text_216" text-rendering="inherit" font-size="12" dy=".8em" y="509.7000116929412" x="462.50000631064177">容易导致群体偏见</text></g></g><g id="minder_node25"><g id="node_expander26" style="cursor: pointer;"><path id="kity_path_512" fill="white" stroke="gray" d="M317.5000040605664,543.5000121071935A6,6,0,1,1,305.5000040605664,543.5000121071935A6,6,0,1,1,317.5000040605664,543.5000121071935"></path><path id="kity_path_513" fill="none" stroke="gray" d="M307.0000040605664,543.5000121071935L316.0000040605664,543.5000121071935"></path></g><path id="node_outline27" fill="#8db3e2" stroke="none" d="M322.5000042244792,534.5000121071935h105a5,5,0,0,1,5,5v8a5,5,0,0,1,-5,5h-105a5,5,0,0,1,-5,-5v-8a5,5,0,0,1,5,-5z"></path><g id="node_text27" fill="#ffffff"><text id="kity_text_234" text-rendering="inherit" font-family="微软雅黑,Microsoft YaHei" font-size="12" dy=".8em" font-weight="bold" y="535.7000120803714" x="322.5000042244792">区块链&#xa0;Blockchain</text></g></g><g id="minder_node26"><g id="node_expander25" style="cursor: pointer;"><path id="kity_path_509" fill="white" stroke="gray" d="M345.50000447779894,569.5000124946237A6,6,0,1,1,333.50000447779894,569.5000124946237A6,6,0,1,1,345.50000447779894,569.5000124946237"></path><path id="kity_path_510" fill="none" stroke="gray" d="M335.00000447779894,569.5000124946237L344.00000447779894,569.5000124946237"></path></g><path id="node_outline26" fill="none" stroke="none" d="M350.5000046417117,560.5000124946237h25a5,5,0,0,1,5,5v8a5,5,0,0,1,-5,5h-25a5,5,0,0,1,-5,-5v-8a5,5,0,0,1,5,-5z"></path><g id="node_text26" fill="black"><text id="kity_text_232" text-rendering="inherit" font-size="12" dy=".8em" y="561.7000124678016" x="350.5000046417117">优点</text></g></g><g id="minder_node27"><g id="node_expander23" display="none" style="cursor: pointer;"><path id="kity_path_503" fill="white" stroke="gray" d="M373.50000489503145,595.5000128820539A6,6,0,1,1,361.50000489503145,595.5000128820539A6,6,0,1,1,373.50000489503145,595.5000128820539"></path><path id="kity_path_504" fill="none" stroke="gray"></path></g><path id="node_outline24" fill="none" stroke="none" d="M378.5000050589442,586.5000128820539h110a5,5,0,0,1,5,5v8a5,5,0,0,1,-5,5h-110a5,5,0,0,1,-5,-5v-8a5,5,0,0,1,5,-5z"></path><g id="node_text24" fill="black"><text id="kity_text_228" text-rendering="inherit" font-size="12" dy=".8em" y="587.7000128552318" x="378.5000050589442">保护隐私、安全可靠</text></g></g><g id="minder_node28"><g id="node_expander24" display="none" style="cursor: pointer;"><path id="kity_path_506" fill="white" stroke="gray" d="M373.50000489503145,621.500013269484A6,6,0,1,1,361.50000489503145,621.500013269484A6,6,0,1,1,373.50000489503145,621.500013269484"></path><path id="kity_path_507" fill="none" stroke="gray"></path></g><path id="node_outline25" fill="none" stroke="none" d="M378.5000050589442,612.500013269484h122a5,5,0,0,1,5,5v8a5,5,0,0,1,-5,5h-122a5,5,0,0,1,-5,-5v-8a5,5,0,0,1,5,-5z"></path><g id="node_text25" fill="black"><text id="kity_text_230" text-rendering="inherit" font-size="12" dy=".8em" y="613.700013242662" x="378.5000050589442">夺回我们资产的控制权</text></g></g><g id="minder_node29"><g id="node_expander39" style="cursor: pointer;"><path id="kity_path_551" fill="white" stroke="gray" d="M872.5000123307109,83.50000525265932A6,6,0,1,1,860.5000123307109,83.50000525265932A6,6,0,1,1,872.5000123307109,83.50000525265932"></path><path id="kity_path_552" fill="none" stroke="gray" d="M862.0000123307109,83.50000525265932L871.0000123307109,83.50000525265932"></path></g><path id="node_outline40" fill="#8db3e2" stroke="rgb(115, 161, 191)" d="M779.5000116601586,90.50000559538603h174a3,3,0,0,1,3,3v26a3,3,0,0,1,-3,3h-174a3,3,0,0,1,-3,-3v-26a3,3,0,0,1,3,-3z" stroke-width="1"></path><g id="node_text40" fill="#ffffff"><text id="kity_text_260" text-rendering="inherit" font-family="微软雅黑,Microsoft YaHei" font-size="14" dy=".8em" font-weight="bold" y="97.40000556409359" x="821.5000116601586">注意力 Attention</text></g><g id="node_priority3"><path id="kity_path_348" fill="#840023" stroke="none" d="M797.0000112950802,110.000005453825c0,3.866,3.134,7,7,7h6c3.866,0,7,-3.134,7,-7V104.000005453825H797.0000112950802V110.000005453825z"></path><path id="kity_path_349" fill="#FF1200" stroke="none" d="M817.0000112950802,107.000005453825c0,3.866,-3.134,7,-7,7H804.0000112950802c-3.866,0,-7,-3.134,-7,-7V104.000005453825c0,-3.866,3.134,-7,7,-7h6c3.866,0,7,3.134,7,7V107.000005453825z" opacity="0.8"></path><text id="kity_text_350" text-rendering="geometricPrecision" x="806.0000112876296" y="106.50000544637442" text-anchor="middle" font-style="italic" font-size="12" fill="white" dy="5">1</text></g></g><g id="minder_node30"><g id="node_expander28" display="none" style="cursor: pointer;"><path id="kity_path_518" fill="white" stroke="gray" d="M804.5000113174319,143.500006146729A6,6,0,1,1,792.5000113174319,143.500006146729A6,6,0,1,1,804.5000113174319,143.500006146729"></path><path id="kity_path_519" fill="none" stroke="gray"></path></g><path id="node_outline29" fill="none" stroke="none" d="M809.5000114813447,134.500006146729h193a5,5,0,0,1,5,5v8a5,5,0,0,1,-5,5h-193a5,5,0,0,1,-5,-5v-8a5,5,0,0,1,5,-5z"></path><g id="node_text29" fill="black"><text id="kity_text_238" text-rendering="inherit" font-size="12" dy=".8em" y="135.7000061199069" x="809.5000114813447">用户的注意力成为被科技竞争的对象</text></g></g><g id="minder_node31"><g id="node_expander36" style="cursor: pointer;"><path id="kity_path_542" fill="white" stroke="gray" d="M804.5000113174319,169.50000653415918A6,6,0,1,1,792.5000113174319,169.50000653415918A6,6,0,1,1,804.5000113174319,169.50000653415918"></path><path id="kity_path_543" fill="none" stroke="gray" d="M794.0000113174319,169.50000653415918L803.0000113174319,169.50000653415918"></path></g><path id="node_outline37" fill="#8db3e2" stroke="none" d="M809.5000114813447,160.50000653415918h87a5,5,0,0,1,5,5v8a5,5,0,0,1,-5,5h-87a5,5,0,0,1,-5,-5v-8a5,5,0,0,1,5,-5z"></path><g id="node_text37" fill="#ffffff"><text id="kity_text_254" text-rendering="inherit" font-family="微软雅黑,Microsoft YaHei" font-size="12" dy=".8em" font-weight="bold" y="161.7000065073371" x="809.5000114813447">上瘾 Addiction</text></g></g><g id="minder_node32"><g id="node_expander32" style="cursor: pointer;"><path id="kity_path_530" fill="white" stroke="gray" d="M832.5000117346644,195.50000692158937A6,6,0,1,1,820.5000117346644,195.50000692158937A6,6,0,1,1,832.5000117346644,195.50000692158937"></path><path id="kity_path_531" fill="none" stroke="gray" d="M822.0000117346644,195.50000692158937L831.0000117346644,195.50000692158937"></path></g><path id="node_outline33" fill="none" stroke="none" d="M837.5000118985772,186.50000692158937h60a5,5,0,0,1,5,5v8a5,5,0,0,1,-5,5h-60a5,5,0,0,1,-5,-5v-8a5,5,0,0,1,5,-5z"></path><g id="node_text33" fill="black"><text id="kity_text_246" text-rendering="inherit" font-size="12" dy=".8em" y="187.70000689476728" x="837.5000118985772">上瘾的原因</text></g></g><g id="minder_node33"><g id="node_expander29" display="none" style="cursor: pointer;"><path id="kity_path_521" fill="white" stroke="gray" d="M860.500012151897,221.50000730901957A6,6,0,1,1,848.500012151897,221.50000730901957A6,6,0,1,1,860.500012151897,221.50000730901957"></path><path id="kity_path_522" fill="none" stroke="gray"></path></g><path id="node_outline30" fill="none" stroke="none" d="M865.5000123158097,212.50000730901957h193a5,5,0,0,1,5,5v8a5,5,0,0,1,-5,5h-193a5,5,0,0,1,-5,-5v-8a5,5,0,0,1,5,-5z"></path><g id="node_text30" fill="black"><text id="kity_text_240" text-rendering="inherit" font-size="12" dy=".8em" y="213.70000728219748" x="865.5000123158097">与外界失联，缺少和外界健康的依赖</text></g></g><g id="minder_node34"><g id="node_expander30" display="none" style="cursor: pointer;"><path id="kity_path_524" fill="white" stroke="gray" d="M860.500012151897,247.50000769644976A6,6,0,1,1,848.500012151897,247.50000769644976A6,6,0,1,1,860.500012151897,247.50000769644976"></path><path id="kity_path_525" fill="none" stroke="gray"></path></g><path id="node_outline31" fill="none" stroke="none" d="M865.5000123158097,238.50000769644976h120a5,5,0,0,1,5,5v8a5,5,0,0,1,-5,5h-120a5,5,0,0,1,-5,-5v-8a5,5,0,0,1,5,-5z"></path><g id="node_text31" fill="black"><text id="kity_text_242" text-rendering="inherit" font-size="12" dy=".8em" y="239.70000766962767" x="865.5000123158097">用户对现实生活的无奈</text></g></g><g id="minder_node35"><g id="node_expander31" display="none" style="cursor: pointer;"><path id="kity_path_527" fill="white" stroke="gray" d="M860.500012151897,273.50000808387995A6,6,0,1,1,848.500012151897,273.50000808387995A6,6,0,1,1,860.500012151897,273.50000808387995"></path><path id="kity_path_528" fill="none" stroke="gray"></path></g><path id="node_outline32" fill="none" stroke="none" d="M865.5000123158097,264.50000808387995h108a5,5,0,0,1,5,5v8a5,5,0,0,1,-5,5h-108a5,5,0,0,1,-5,-5v-8a5,5,0,0,1,5,-5z"></path><g id="node_text32" fill="black"><text id="kity_text_244" text-rendering="inherit" font-size="12" dy=".8em" y="265.70000805705786" x="865.5000123158097">上瘾是对环境的适应</text></g></g><g id="minder_node36"><g id="node_expander35" style="cursor: pointer;"><path id="kity_path_539" fill="white" stroke="gray" d="M832.5000117346644,299.50000847131014A6,6,0,1,1,820.5000117346644,299.50000847131014A6,6,0,1,1,832.5000117346644,299.50000847131014"></path><path id="kity_path_540" fill="none" stroke="gray" d="M822.0000117346644,299.50000847131014L831.0000117346644,299.50000847131014"></path></g><path id="node_outline36" fill="none" stroke="none" d="M837.5000118985772,290.50000847131014h74a5,5,0,0,1,5,5v8a5,5,0,0,1,-5,5h-74a5,5,0,0,1,-5,-5v-8a5,5,0,0,1,5,-5z"></path><g id="node_text36" fill="black"><text id="kity_text_252" text-rendering="inherit" font-size="12" dy=".8em" y="291.70000844448805" x="837.5000118985772">如何摆脱上瘾</text></g></g><g id="minder_node37"><g id="node_expander33" display="none" style="cursor: pointer;"><path id="kity_path_533" fill="white" stroke="gray" d="M860.500012151897,325.50000885874033A6,6,0,1,1,848.500012151897,325.50000885874033A6,6,0,1,1,860.500012151897,325.50000885874033"></path><path id="kity_path_534" fill="none" stroke="gray"></path></g><path id="node_outline34" fill="none" stroke="none" d="M865.5000123158097,316.50000885874033h109a5,5,0,0,1,5,5v8a5,5,0,0,1,-5,5h-109a5,5,0,0,1,-5,-5v-8a5,5,0,0,1,5,-5z"></path><g id="node_text34" fill="black"><text id="kity_text_248" text-rendering="inherit" font-size="12" dy=".8em" y="317.70000883191824" x="865.5000123158097">”停止信号”的屏幕</text></g></g><g id="minder_node38"><g id="node_expander34" display="none" style="cursor: pointer;"><path id="kity_path_536" fill="white" stroke="gray" d="M860.500012151897,351.5000092461705A6,6,0,1,1,848.500012151897,351.5000092461705A6,6,0,1,1,860.500012151897,351.5000092461705"></path><path id="kity_path_537" fill="none" stroke="gray"></path></g><path id="node_outline35" fill="none" stroke="none" d="M865.5000123158097,342.5000092461705h349a5,5,0,0,1,5,5v8a5,5,0,0,1,-5,5h-349a5,5,0,0,1,-5,-5v-8a5,5,0,0,1,5,-5z"></path><g id="node_text35" fill="black"><text id="kity_text_250" text-rendering="inherit" font-size="12" dy=".8em" y="343.70000921934843" x="865.5000123158097">联系是上瘾的对立面，应该把时间和注意力放在我们关心的事情上</text></g></g><g id="minder_node39"><g id="node_expander38" style="cursor: pointer;"><path id="kity_path_548" fill="white" stroke="gray" d="M804.5000113174319,377.5000096336007A6,6,0,1,1,792.5000113174319,377.5000096336007A6,6,0,1,1,804.5000113174319,377.5000096336007"></path><path id="kity_path_549" fill="none" stroke="gray" d="M794.0000113174319,377.5000096336007L803.0000113174319,377.5000096336007"></path></g><path id="node_outline39" fill="none" stroke="none" d="M809.5000114813447,368.5000096336007h25a5,5,0,0,1,5,5v8a5,5,0,0,1,-5,5h-25a5,5,0,0,1,-5,-5v-8a5,5,0,0,1,5,-5z"></path><g id="node_text39" fill="black"><text id="kity_text_258" text-rendering="inherit" font-size="12" dy=".8em" y="369.7000096067786" x="809.5000114813447">危害</text></g></g><g id="minder_node40"><g id="node_expander37" display="none" style="cursor: pointer;"><path id="kity_path_545" fill="white" stroke="gray" d="M832.5000117346644,403.5000100210309A6,6,0,1,1,820.5000117346644,403.5000100210309A6,6,0,1,1,832.5000117346644,403.5000100210309"></path><path id="kity_path_546" fill="none" stroke="gray"></path></g><path id="node_outline38" fill="none" stroke="none" d="M837.5000118985772,394.5000100210309h354a5,5,0,0,1,5,5v8a5,5,0,0,1,-5,5h-354a5,5,0,0,1,-5,-5v-8a5,5,0,0,1,5,-5z"></path><g id="node_text38" fill="black"><text id="kity_text_256" text-rendering="inherit" font-size="12" dy=".8em" y="395.7000099942088" x="837.5000118985772">兴奋成瘾 eg：过量获取色情片的新渠道是男性群体衰落的重要原因 </text></g></g><g id="minder_node41"><g id="node_expander53" style="cursor: pointer;"><path id="kity_path_593" fill="white" stroke="gray" d="M1367.5000197067857,83.50000525265932A6,6,0,1,1,1355.5000197067857,83.50000525265932A6,6,0,1,1,1367.5000197067857,83.50000525265932"></path><path id="kity_path_594" fill="none" stroke="gray" d="M1357.0000197067857,83.50000525265932L1366.0000197067857,83.50000525265932"></path></g><path id="node_outline54" fill="#8db3e2" stroke="rgb(115, 161, 191)" d="M1238.5000184997916,90.50000559538603h246a3,3,0,0,1,3,3v26a3,3,0,0,1,-3,3h-246a3,3,0,0,1,-3,-3v-26a3,3,0,0,1,3,-3z" stroke-width="1"></path><g id="node_text54" fill="#ffffff"><text id="kity_text_289" text-rendering="inherit" font-family="微软雅黑,Microsoft YaHei" font-size="14" dy=".8em" font-weight="bold" y="97.40000556409359" x="1280.5000184997916">情感化设计 Emotion Design</text></g><g id="node_priority4"><path id="kity_path_353" fill="#840023" stroke="none" d="M1256.0000181347132,110.000005453825c0,3.866,3.134,7,7,7h6c3.866,0,7,-3.134,7,-7V104.000005453825H1256.0000181347132V110.000005453825z"></path><path id="kity_path_354" fill="#FF1200" stroke="none" d="M1276.0000181347132,107.000005453825c0,3.866,-3.134,7,-7,7H1263.0000181347132c-3.866,0,-7,-3.134,-7,-7V104.000005453825c0,-3.866,3.134,-7,7,-7h6c3.866,0,7,3.134,7,7V107.000005453825z" opacity="0.8"></path><text id="kity_text_355" text-rendering="geometricPrecision" x="1265.0000181272626" y="106.50000544637442" text-anchor="middle" font-style="italic" font-size="12" fill="white" dy="5">1</text></g></g><g id="minder_node42"><g id="node_expander43" style="cursor: pointer;"><path id="kity_path_563" fill="white" stroke="gray" d="M1263.500018157065,143.500006146729A6,6,0,1,1,1251.500018157065,143.500006146729A6,6,0,1,1,1263.500018157065,143.500006146729"></path><path id="kity_path_564" fill="none" stroke="gray" d="M1253.000018157065,143.500006146729L1262.000018157065,143.500006146729"></path></g><path id="node_outline44" fill="none" stroke="none" d="M1268.5000183209777,134.500006146729h49a5,5,0,0,1,5,5v8a5,5,0,0,1,-5,5h-49a5,5,0,0,1,-5,-5v-8a5,5,0,0,1,5,-5z"></path><g id="node_text44" fill="black"><text id="kity_text_268" text-rendering="inherit" font-size="12" dy=".8em" y="135.7000061199069" x="1268.5000183209777">三个层次</text></g></g><g id="minder_node43"><g id="node_expander40" display="none" style="cursor: pointer;"><path id="kity_path_554" fill="white" stroke="gray" d="M1291.5000185742974,169.50000653415918A6,6,0,1,1,1279.5000185742974,169.50000653415918A6,6,0,1,1,1291.5000185742974,169.50000653415918"></path><path id="kity_path_555" fill="none" stroke="gray"></path></g><path id="node_outline41" fill="none" stroke="none" d="M1296.5000187382102,160.50000653415918h25a5,5,0,0,1,5,5v8a5,5,0,0,1,-5,5h-25a5,5,0,0,1,-5,-5v-8a5,5,0,0,1,5,-5z"></path><g id="node_text41" fill="black"><text id="kity_text_262" text-rendering="inherit" font-size="12" dy=".8em" y="161.7000065073371" x="1296.5000187382102">本能</text></g></g><g id="minder_node44"><g id="node_expander41" display="none" style="cursor: pointer;"><path id="kity_path_557" fill="white" stroke="gray" d="M1291.5000185742974,195.50000692158937A6,6,0,1,1,1279.5000185742974,195.50000692158937A6,6,0,1,1,1291.5000185742974,195.50000692158937"></path><path id="kity_path_558" fill="none" stroke="gray"></path></g><path id="node_outline42" fill="none" stroke="none" d="M1296.5000187382102,186.50000692158937h25a5,5,0,0,1,5,5v8a5,5,0,0,1,-5,5h-25a5,5,0,0,1,-5,-5v-8a5,5,0,0,1,5,-5z"></path><g id="node_text42" fill="black"><text id="kity_text_264" text-rendering="inherit" font-size="12" dy=".8em" y="187.70000689476728" x="1296.5000187382102">行为</text></g></g><g id="minder_node45"><g id="node_expander42" display="none" style="cursor: pointer;"><path id="kity_path_560" fill="white" stroke="gray" d="M1291.5000185742974,221.50000730901957A6,6,0,1,1,1279.5000185742974,221.50000730901957A6,6,0,1,1,1291.5000185742974,221.50000730901957"></path><path id="kity_path_561" fill="none" stroke="gray"></path></g><path id="node_outline43" fill="none" stroke="none" d="M1296.5000187382102,212.50000730901957h26a5,5,0,0,1,5,5v8a5,5,0,0,1,-5,5h-26a5,5,0,0,1,-5,-5v-8a5,5,0,0,1,5,-5z"></path><g id="node_text43" fill="black"><text id="kity_text_266" text-rendering="inherit" font-size="12" dy=".8em" y="213.70000728219748" x="1296.5000187382102">反思</text></g></g><g id="minder_node46"><g id="node_expander45" style="cursor: pointer;"><path id="kity_path_569" fill="white" stroke="gray" d="M1263.500018157065,256.5000078305602A6,6,0,1,1,1251.500018157065,256.5000078305602A6,6,0,1,1,1263.500018157065,256.5000078305602"></path><path id="kity_path_570" fill="none" stroke="gray" d="M1253.000018157065,256.5000078305602L1262.000018157065,256.5000078305602"></path></g><path id="node_outline46" fill="#8db3e2" stroke="none" d="M1268.5000183209777,238.5000078305602h121a5,5,0,0,1,5,5v26a5,5,0,0,1,-5,5h-121a5,5,0,0,1,-5,-5v-26a5,5,0,0,1,5,-5z"></path><g id="node_text46" fill="#ffffff"><text id="kity_text_272" text-rendering="inherit" font-family="微软雅黑,Microsoft YaHei" font-size="12" dy=".8em" font-weight="bold" y="239.70000780373812" x="1268.5000183209777">积极心理学&#xa0;</text><text id="kity_text_273" text-rendering="inherit" font-family="微软雅黑,Microsoft YaHei" font-size="12" dy=".8em" font-weight="bold" y="257.7000078037381" x="1268.5000183209777">Positive Psychology</text></g></g><g id="minder_node47"><g id="node_expander44" display="none" style="cursor: pointer;"><path id="kity_path_566" fill="white" stroke="gray" d="M1291.5000185742974,291.50000835210085A6,6,0,1,1,1279.5000185742974,291.50000835210085A6,6,0,1,1,1291.5000185742974,291.50000835210085"></path><path id="kity_path_567" fill="none" stroke="gray"></path></g><path id="node_outline45" fill="none" stroke="none" d="M1296.5000187382102,282.50000835210085h49a5,5,0,0,1,5,5v8a5,5,0,0,1,-5,5h-49a5,5,0,0,1,-5,-5v-8a5,5,0,0,1,5,-5z"></path><g id="node_text45" fill="black"><text id="kity_text_270" text-rendering="inherit" font-size="12" dy=".8em" y="283.70000832527876" x="1296.5000187382102">三个目标</text></g></g><g id="minder_node48"><g id="node_expander49" style="cursor: pointer;"><path id="kity_path_581" fill="white" stroke="gray" d="M1263.500018157065,317.50000873953104A6,6,0,1,1,1251.500018157065,317.50000873953104A6,6,0,1,1,1263.500018157065,317.50000873953104"></path><path id="kity_path_582" fill="none" stroke="gray" d="M1253.000018157065,317.50000873953104L1262.000018157065,317.50000873953104"></path></g><path id="node_outline50" fill="none" stroke="none" d="M1268.5000183209777,308.50000873953104h84a5,5,0,0,1,5,5v8a5,5,0,0,1,-5,5h-84a5,5,0,0,1,-5,-5v-8a5,5,0,0,1,5,-5z"></path><g id="node_text50" fill="black"><text id="kity_text_281" text-rendering="inherit" font-size="12" dy=".8em" y="309.70000871270895" x="1268.5000183209777">幽默地揭示真相</text></g></g><g id="minder_node49"><g id="node_expander46" display="none" style="cursor: pointer;"><path id="kity_path_572" fill="white" stroke="gray" d="M1291.5000185742974,343.50000912696123A6,6,0,1,1,1279.5000185742974,343.50000912696123A6,6,0,1,1,1291.5000185742974,343.50000912696123"></path><path id="kity_path_573" fill="none" stroke="gray"></path></g><path id="node_outline47" fill="none" stroke="none" d="M1296.5000187382102,334.50000912696123h228a5,5,0,0,1,5,5v8a5,5,0,0,1,-5,5h-228a5,5,0,0,1,-5,-5v-8a5,5,0,0,1,5,-5z"></path><g id="node_text47" fill="black"><text id="kity_text_275" text-rendering="inherit" font-size="12" dy=".8em" y="335.70000910013914" x="1296.5000187382102">世界上最危险的事情就是没有幽默感的权力</text></g></g><g id="minder_node50"><g id="node_expander47" display="none" style="cursor: pointer;"><path id="kity_path_575" fill="white" stroke="gray" d="M1291.5000185742974,369.5000095143914A6,6,0,1,1,1279.5000185742974,369.5000095143914A6,6,0,1,1,1291.5000185742974,369.5000095143914"></path><path id="kity_path_576" fill="none" stroke="gray"></path></g><path id="node_outline48" fill="none" stroke="none" d="M1296.5000187382102,360.5000095143914h253a5,5,0,0,1,5,5v8a5,5,0,0,1,-5,5h-253a5,5,0,0,1,-5,-5v-8a5,5,0,0,1,5,-5z"></path><g id="node_text48" fill="black"><text id="kity_text_277" text-rendering="inherit" font-size="12" dy=".8em" y="361.70000948756933" x="1296.5000187382102">漫画可以变成政治武器，漫画的力量要恰当使用</text></g></g><g id="minder_node51"><g id="node_expander48" display="none" style="cursor: pointer;"><path id="kity_path_578" fill="white" stroke="gray" d="M1291.5000185742974,395.5000099018216A6,6,0,1,1,1279.5000185742974,395.5000099018216A6,6,0,1,1,1291.5000185742974,395.5000099018216"></path><path id="kity_path_579" fill="none" stroke="gray"></path></g><path id="node_outline49" fill="none" stroke="none" d="M1296.5000187382102,386.5000099018216h324a5,5,0,0,1,5,5v8a5,5,0,0,1,-5,5h-324a5,5,0,0,1,-5,-5v-8a5,5,0,0,1,5,-5z"></path><g id="node_text49" fill="black"><text id="kity_text_279" text-rendering="inherit" font-size="12" dy=".8em" y="387.7000098749995" x="1296.5000187382102">单独靠严肃去解决有争议的问题，不如配合巧妙的嘲笑更有力</text></g></g><g id="minder_node52"><g id="node_expander52" style="cursor: pointer;"><path id="kity_path_590" fill="white" stroke="gray" d="M1263.500018157065,421.5000102892518A6,6,0,1,1,1251.500018157065,421.5000102892518A6,6,0,1,1,1263.500018157065,421.5000102892518"></path><path id="kity_path_591" fill="none" stroke="gray" d="M1253.000018157065,421.5000102892518L1262.000018157065,421.5000102892518"></path></g><path id="node_outline53" fill="#8db3e2" stroke="none" d="M1268.5000183209777,412.5000102892518h64a5,5,0,0,1,5,5v8a5,5,0,0,1,-5,5h-64a5,5,0,0,1,-5,-5v-8a5,5,0,0,1,5,-5z"></path><g id="node_text53" fill="#ffffff"><text id="kity_text_287" text-rendering="inherit" font-family="微软雅黑,Microsoft YaHei" font-size="12" dy=".8em" font-weight="bold" y="413.7000102624297" x="1268.5000183209777">情绪 Mood</text></g></g><g id="minder_node53"><g id="node_expander50" display="none" style="cursor: pointer;"><path id="kity_path_584" fill="white" stroke="gray" d="M1291.5000185742974,447.500010676682A6,6,0,1,1,1279.5000185742974,447.500010676682A6,6,0,1,1,1291.5000185742974,447.500010676682"></path><path id="kity_path_585" fill="none" stroke="gray"></path></g><path id="node_outline51" fill="none" stroke="none" d="M1296.5000187382102,438.500010676682h301a5,5,0,0,1,5,5v8a5,5,0,0,1,-5,5h-301a5,5,0,0,1,-5,-5v-8a5,5,0,0,1,5,-5z"></path><g id="node_text51" fill="black"><text id="kity_text_283" text-rendering="inherit" font-size="12" dy=".8em" y="439.7000106498599" x="1296.5000187382102">情绪并不是人类天生就具有的，而是根据后天经验构建的</text></g></g><g id="minder_node54"><g id="node_expander51" display="none" style="cursor: pointer;"><path id="kity_path_587" fill="white" stroke="gray" d="M1291.5000185742974,473.5000110641122A6,6,0,1,1,1279.5000185742974,473.5000110641122A6,6,0,1,1,1291.5000185742974,473.5000110641122"></path><path id="kity_path_588" fill="none" stroke="gray"></path></g><path id="node_outline52" fill="none" stroke="none" d="M1296.5000187382102,464.5000110641122h301a5,5,0,0,1,5,5v8a5,5,0,0,1,-5,5h-301a5,5,0,0,1,-5,-5v-8a5,5,0,0,1,5,-5z"></path><g id="node_text52" fill="black"><text id="kity_text_285" text-rendering="inherit" font-size="12" dy=".8em" y="465.7000110372901" x="1296.5000187382102">我们要从情绪中挖掘出有价值的信息，而不是被情绪控制</text></g></g><g id="minder_node55"><g id="node_expander75" style="cursor: pointer;"><path id="kity_path_659" fill="white" stroke="gray" d="M1930.5000280961394,56.50000485032797A6,6,0,1,1,1918.5000280961394,56.50000485032797A6,6,0,1,1,1930.5000280961394,56.50000485032797"></path><path id="kity_path_660" fill="none" stroke="gray" d="M1920.0000280961394,56.50000485032797L1929.0000280961394,56.50000485032797"></path></g><path id="node_outline76" fill="#8db3e2" stroke="rgb(115, 161, 191)" d="M1803.5000269189477,63.500005193054676h242a3,3,0,0,1,3,3v26a3,3,0,0,1,-3,3h-242a3,3,0,0,1,-3,-3v-26a3,3,0,0,1,3,-3z" stroke-width="1"></path><g id="node_text76" fill="#ffffff"><text id="kity_text_334" text-rendering="inherit" font-family="微软雅黑,Microsoft YaHei" font-size="14" dy=".8em" font-weight="bold" y="70.40000516176224" x="1845.5000269189477">作业系统&#xa0;operating system</text></g><g id="node_priority5"><path id="kity_path_358" fill="#840023" stroke="none" d="M1821.0000265538692,83.00000505149364c0,3.866,3.134,7,7,7h6c3.866,0,7,-3.134,7,-7V77.00000505149364H1821.0000265538692V83.00000505149364z"></path><path id="kity_path_359" fill="#FF1200" stroke="none" d="M1841.0000265538692,80.00000505149364c0,3.866,-3.134,7,-7,7H1828.0000265538692c-3.866,0,-7,-3.134,-7,-7V77.00000505149364c0,-3.866,3.134,-7,7,-7h6c3.866,0,7,3.134,7,7V80.00000505149364z" opacity="0.8"></path><text id="kity_text_360" text-rendering="geometricPrecision" x="1830.0000265464187" y="79.50000504404306" text-anchor="middle" font-style="italic" font-size="12" fill="white" dy="5">1</text></g></g><g id="minder_node56"><g id="node_expander65" style="cursor: pointer;"><path id="kity_path_629" fill="white" stroke="gray" d="M1828.500026576221,116.50000574439764A6,6,0,1,1,1816.500026576221,116.50000574439764A6,6,0,1,1,1828.500026576221,116.50000574439764"></path><path id="kity_path_630" fill="none" stroke="gray" d="M1818.000026576221,116.50000574439764L1827.000026576221,116.50000574439764"></path></g><path id="node_outline66" fill="#8db3e2" stroke="none" d="M1833.5000267401338,107.50000574439764h70a5,5,0,0,1,5,5v8a5,5,0,0,1,-5,5h-70a5,5,0,0,1,-5,-5v-8a5,5,0,0,1,5,-5z"></path><g id="node_text66" fill="#ffffff"><text id="kity_text_313" text-rendering="inherit" font-family="微软雅黑,Microsoft YaHei" font-size="12" dy=".8em" font-weight="bold" y="108.70000571757555" x="1833.5000267401338">&#xa0;权力 power</text></g></g><g id="minder_node57"><g id="node_expander60" style="cursor: pointer;"><path id="kity_path_614" fill="white" stroke="gray" d="M1856.5000269934535,142.50000613182783A6,6,0,1,1,1844.5000269934535,142.50000613182783A6,6,0,1,1,1856.5000269934535,142.50000613182783"></path><path id="kity_path_615" fill="none" stroke="gray" d="M1846.0000269934535,142.50000613182783L1855.0000269934535,142.50000613182783"></path></g><path id="node_outline61" fill="none" stroke="none" d="M1861.5000271573663,133.50000613182783h48a5,5,0,0,1,5,5v8a5,5,0,0,1,-5,5h-48a5,5,0,0,1,-5,-5v-8a5,5,0,0,1,5,-5z"></path><g id="node_text61" fill="black"><text id="kity_text_303" text-rendering="inherit" font-size="12" dy=".8em" y="134.70000610500574" x="1861.5000271573663">六个方面</text></g></g><g id="minder_node58"><g id="node_expander54" display="none" style="cursor: pointer;"><path id="kity_path_596" fill="white" stroke="gray" d="M1884.500027410686,168.50000651925802A6,6,0,1,1,1872.500027410686,168.50000651925802A6,6,0,1,1,1884.500027410686,168.50000651925802"></path><path id="kity_path_597" fill="none" stroke="gray"></path></g><path id="node_outline55" fill="none" stroke="none" d="M1889.5000275745988,159.50000651925802h61a5,5,0,0,1,5,5v8a5,5,0,0,1,-5,5h-61a5,5,0,0,1,-5,-5v-8a5,5,0,0,1,5,-5z"></path><g id="node_text55" fill="black"><text id="kity_text_291" text-rendering="inherit" font-size="12" dy=".8em" y="160.70000649243593" x="1889.5000275745988">施暴的能力</text></g></g><g id="minder_node59"><g id="node_expander55" display="none" style="cursor: pointer;"><path id="kity_path_599" fill="white" stroke="gray" d="M1884.500027410686,194.5000069066882A6,6,0,1,1,1872.500027410686,194.5000069066882A6,6,0,1,1,1884.500027410686,194.5000069066882"></path><path id="kity_path_600" fill="none" stroke="gray"></path></g><path id="node_outline56" fill="none" stroke="none" d="M1889.5000275745988,185.5000069066882h24a5,5,0,0,1,5,5v8a5,5,0,0,1,-5,5h-24a5,5,0,0,1,-5,-5v-8a5,5,0,0,1,5,-5z"></path><g id="node_text56" fill="black"><text id="kity_text_293" text-rendering="inherit" font-size="12" dy=".8em" y="186.70000687986612" x="1889.5000275745988">财富</text></g></g><g id="minder_node60"><g id="node_expander56" display="none" style="cursor: pointer;"><path id="kity_path_602" fill="white" stroke="gray" d="M1884.500027410686,220.5000072941184A6,6,0,1,1,1872.500027410686,220.5000072941184A6,6,0,1,1,1884.500027410686,220.5000072941184"></path><path id="kity_path_603" fill="none" stroke="gray"></path></g><path id="node_outline57" fill="none" stroke="none" d="M1889.5000275745988,211.5000072941184h49a5,5,0,0,1,5,5v8a5,5,0,0,1,-5,5h-49a5,5,0,0,1,-5,-5v-8a5,5,0,0,1,5,-5z"></path><g id="node_text57" fill="black"><text id="kity_text_295" text-rendering="inherit" font-size="12" dy=".8em" y="212.70000726729631" x="1889.5000275745988">政府行为</text></g></g><g id="minder_node61"><g id="node_expander57" display="none" style="cursor: pointer;"><path id="kity_path_605" fill="white" stroke="gray" d="M1884.500027410686,246.5000076815486A6,6,0,1,1,1872.500027410686,246.5000076815486A6,6,0,1,1,1884.500027410686,246.5000076815486"></path><path id="kity_path_606" fill="none" stroke="gray"></path></g><path id="node_outline58" fill="none" stroke="none" d="M1889.5000275745988,237.5000076815486h50a5,5,0,0,1,5,5v8a5,5,0,0,1,-5,5h-50a5,5,0,0,1,-5,-5v-8a5,5,0,0,1,5,-5z"></path><g id="node_text58" fill="black"><text id="kity_text_297" text-rendering="inherit" font-size="12" dy=".8em" y="238.7000076547265" x="1889.5000275745988">社会规范</text></g></g><g id="minder_node62"><g id="node_expander58" display="none" style="cursor: pointer;"><path id="kity_path_608" fill="white" stroke="gray" d="M1884.500027410686,272.5000080689788A6,6,0,1,1,1872.500027410686,272.5000080689788A6,6,0,1,1,1884.500027410686,272.5000080689788"></path><path id="kity_path_609" fill="none" stroke="gray"></path></g><path id="node_outline59" fill="none" stroke="none" d="M1889.5000275745988,263.5000080689788h26a5,5,0,0,1,5,5v8a5,5,0,0,1,-5,5h-26a5,5,0,0,1,-5,-5v-8a5,5,0,0,1,5,-5z"></path><g id="node_text59" fill="black"><text id="kity_text_299" text-rendering="inherit" font-size="12" dy=".8em" y="264.7000080421567" x="1889.5000275745988">信念</text></g></g><g id="minder_node63"><g id="node_expander59" display="none" style="cursor: pointer;"><path id="kity_path_611" fill="white" stroke="gray" d="M1884.500027410686,298.500008456409A6,6,0,1,1,1872.500027410686,298.500008456409A6,6,0,1,1,1884.500027410686,298.500008456409"></path><path id="kity_path_612" fill="none" stroke="gray"></path></g><path id="node_outline60" fill="none" stroke="none" d="M1889.5000275745988,289.500008456409h26a5,5,0,0,1,5,5v8a5,5,0,0,1,-5,5h-26a5,5,0,0,1,-5,-5v-8a5,5,0,0,1,5,-5z"></path><g id="node_text60" fill="black"><text id="kity_text_301" text-rendering="inherit" font-size="12" dy=".8em" y="290.7000084295869" x="1889.5000275745988">数量</text></g></g><g id="minder_node64"><g id="node_expander64" style="cursor: pointer;"><path id="kity_path_626" fill="white" stroke="gray" d="M1856.5000269934535,324.50000884383917A6,6,0,1,1,1844.5000269934535,324.50000884383917A6,6,0,1,1,1856.5000269934535,324.50000884383917"></path><path id="kity_path_627" fill="none" stroke="gray" d="M1846.0000269934535,324.50000884383917L1855.0000269934535,324.50000884383917"></path></g><path id="node_outline65" fill="none" stroke="none" d="M1861.5000271573663,315.50000884383917h49a5,5,0,0,1,5,5v8a5,5,0,0,1,-5,5h-49a5,5,0,0,1,-5,-5v-8a5,5,0,0,1,5,-5z"></path><g id="node_text65" fill="black"><text id="kity_text_311" text-rendering="inherit" font-size="12" dy=".8em" y="316.7000088170171" x="1861.5000271573663">三大定律</text></g></g><g id="minder_node65"><g id="node_expander61" display="none" style="cursor: pointer;"><path id="kity_path_617" fill="white" stroke="gray" d="M1884.500027410686,350.50000923126936A6,6,0,1,1,1872.500027410686,350.50000923126936A6,6,0,1,1,1884.500027410686,350.50000923126936"></path><path id="kity_path_618" fill="none" stroke="gray"></path></g><path id="node_outline62" fill="none" stroke="none" d="M1889.5000275745988,341.50000923126936h85a5,5,0,0,1,5,5v8a5,5,0,0,1,-5,5h-85a5,5,0,0,1,-5,-5v-8a5,5,0,0,1,5,-5z"></path><g id="node_text62" fill="black"><text id="kity_text_305" text-rendering="inherit" font-size="12" dy=".8em" y="342.70000920444727" x="1889.5000275745988">权力不是静态的</text></g></g><g id="minder_node66"><g id="node_expander62" display="none" style="cursor: pointer;"><path id="kity_path_620" fill="white" stroke="gray" d="M1884.500027410686,376.50000961869955A6,6,0,1,1,1872.500027410686,376.50000961869955A6,6,0,1,1,1884.500027410686,376.50000961869955"></path><path id="kity_path_621" fill="none" stroke="gray"></path></g><path id="node_outline63" fill="none" stroke="none" d="M1889.5000275745988,367.50000961869955h122a5,5,0,0,1,5,5v8a5,5,0,0,1,-5,5h-122a5,5,0,0,1,-5,-5v-8a5,5,0,0,1,5,-5z"></path><g id="node_text63" fill="black"><text id="kity_text_307" text-rendering="inherit" font-size="12" dy=".8em" y="368.70000959187746" x="1889.5000275745988">权力存在于日常生活里</text></g></g><g id="minder_node67"><g id="node_expander63" display="none" style="cursor: pointer;"><path id="kity_path_623" fill="white" stroke="gray" d="M1884.500027410686,402.50001000612974A6,6,0,1,1,1872.500027410686,402.50001000612974A6,6,0,1,1,1884.500027410686,402.50001000612974"></path><path id="kity_path_624" fill="none" stroke="gray"></path></g><path id="node_outline64" fill="none" stroke="none" d="M1889.5000275745988,393.50001000612974h220a5,5,0,0,1,5,5v8a5,5,0,0,1,-5,5h-220a5,5,0,0,1,-5,-5v-8a5,5,0,0,1,5,-5z"></path><g id="node_text64" fill="black"><text id="kity_text_309" text-rendering="inherit" font-size="12" dy=".8em" y="394.70000997930765" x="1889.5000275745988">权力会产生连锁反应 权力会带来更多权力</text></g></g><g id="minder_node68"><g id="node_expander72" style="cursor: pointer;"><path id="kity_path_650" fill="white" stroke="gray" d="M1803.500026203692,428.50001039355993A6,6,0,1,1,1791.500026203692,428.50001039355993A6,6,0,1,1,1803.500026203692,428.50001039355993"></path><path id="kity_path_651" fill="none" stroke="gray" d="M1793.000026203692,428.50001039355993L1802.000026203692,428.50001039355993"></path></g><path id="node_outline73" fill="#8db3e2" stroke="none" d="M1808.5000263676047,419.50001039355993h172a5,5,0,0,1,5,5v8a5,5,0,0,1,-5,5h-172a5,5,0,0,1,-5,-5v-8a5,5,0,0,1,5,-5z"></path><g id="node_text73" fill="#ffffff"><text id="kity_text_328" text-rendering="inherit" font-family="微软雅黑,Microsoft YaHei" font-size="12" dy=".8em" font-weight="bold" y="420.70001036673784" x="1808.5000263676047">可持续设计&#xa0;Sustainble Design</text></g></g><g id="minder_node69"><g id="node_expander71" style="cursor: pointer;"><path id="kity_path_647" fill="white" stroke="gray" d="M1831.5000266209245,454.5000107809901A6,6,0,1,1,1819.5000266209245,454.5000107809901A6,6,0,1,1,1831.5000266209245,454.5000107809901"></path><path id="kity_path_648" fill="none" stroke="gray" d="M1821.0000266209245,454.5000107809901L1830.0000266209245,454.5000107809901"></path></g><path id="node_outline72" fill="none" stroke="none" d="M1836.5000267848372,445.5000107809901h68a5,5,0,0,1,5,5v8a5,5,0,0,1,-5,5h-68a5,5,0,0,1,-5,-5v-8a5,5,0,0,1,5,-5z"></path><g id="node_text72" fill="black"><text id="kity_text_326" text-rendering="inherit" font-size="12" dy=".8em" y="446.70001075416803" x="1836.5000267848372">5项变革策略</text></g></g><g id="minder_node70"><g id="node_expander66" display="none" style="cursor: pointer;"><path id="kity_path_632" fill="white" stroke="gray" d="M1859.500027038157,480.5000111684203A6,6,0,1,1,1847.500027038157,480.5000111684203A6,6,0,1,1,1859.500027038157,480.5000111684203"></path><path id="kity_path_633" fill="none" stroke="gray"></path></g><path id="node_outline67" fill="none" stroke="none" d="M1864.5000272020698,471.5000111684203h97a5,5,0,0,1,5,5v8a5,5,0,0,1,-5,5h-97a5,5,0,0,1,-5,-5v-8a5,5,0,0,1,5,-5z"></path><g id="node_text67" fill="black"><text id="kity_text_315" text-rendering="inherit" font-size="12" dy=".8em" y="472.7000111415982" x="1864.5000272020698">建立全球能源民主</text></g></g><g id="minder_node71"><g id="node_expander67" display="none" style="cursor: pointer;"><path id="kity_path_635" fill="white" stroke="gray" d="M1859.500027038157,506.5000115558505A6,6,0,1,1,1847.500027038157,506.5000115558505A6,6,0,1,1,1859.500027038157,506.5000115558505"></path><path id="kity_path_636" fill="none" stroke="gray"></path></g><path id="node_outline68" fill="none" stroke="none" d="M1864.5000272020698,497.5000115558505h148a5,5,0,0,1,5,5v8a5,5,0,0,1,-5,5h-148a5,5,0,0,1,-5,-5v-8a5,5,0,0,1,5,-5z"></path><g id="node_text68" fill="black"><text id="kity_text_317" text-rendering="inherit" font-size="12" dy=".8em" y="498.7000115290284" x="1864.5000272020698">可持续食物系统的 快速转变</text></g></g><g id="minder_node72"><g id="node_expander68" display="none" style="cursor: pointer;"><path id="kity_path_638" fill="white" stroke="gray" d="M1859.500027038157,532.5000119432807A6,6,0,1,1,1847.500027038157,532.5000119432807A6,6,0,1,1,1859.500027038157,532.5000119432807"></path><path id="kity_path_639" fill="none" stroke="gray"></path></g><path id="node_outline69" fill="none" stroke="none" d="M1864.5000272020698,523.5000119432807h73a5,5,0,0,1,5,5v8a5,5,0,0,1,-5,5h-73a5,5,0,0,1,-5,-5v-8a5,5,0,0,1,5,-5z"></path><g id="node_text69" fill="black"><text id="kity_text_319" text-rendering="inherit" font-size="12" dy=".8em" y="524.7000119164586" x="1864.5000272020698">改变发展策略</text></g></g><g id="minder_node73"><g id="node_expander69" display="none" style="cursor: pointer;"><path id="kity_path_641" fill="white" stroke="gray" d="M1859.500027038157,558.5000123307109A6,6,0,1,1,1847.500027038157,558.5000123307109A6,6,0,1,1,1859.500027038157,558.5000123307109"></path><path id="kity_path_642" fill="none" stroke="gray"></path></g><path id="node_outline70" fill="none" stroke="none" d="M1864.5000272020698,549.5000123307109h73a5,5,0,0,1,5,5v8a5,5,0,0,1,-5,5h-73a5,5,0,0,1,-5,-5v-8a5,5,0,0,1,5,-5z"></path><g id="node_text70" fill="black"><text id="kity_text_321" text-rendering="inherit" font-size="12" dy=".8em" y="550.7000123038888" x="1864.5000272020698">重新分配财富</text></g></g><g id="minder_node74"><g id="node_expander70" display="none" style="cursor: pointer;"><path id="kity_path_644" fill="white" stroke="gray" d="M1859.500027038157,593.5000128522515A6,6,0,1,1,1847.500027038157,593.5000128522515A6,6,0,1,1,1859.500027038157,593.5000128522515"></path><path id="kity_path_645" fill="none" stroke="gray"></path></g><path id="node_outline71" fill="none" stroke="none" d="M1864.5000272020698,575.5000128522515h217a5,5,0,0,1,5,5v26a5,5,0,0,1,-5,5h-217a5,5,0,0,1,-5,-5v-26a5,5,0,0,1,5,-5z"></path><g id="node_text71" fill="black"><text id="kity_text_323" text-rendering="inherit" font-size="12" dy=".8em" y="576.7000128254294" x="1864.5000272020698">增加 更多投入到教育，健康，</text><text id="kity_text_324" text-rendering="inherit" font-size="12" dy=".8em" y="594.7000128254294" x="1864.5000272020698"> 就业机会，节育，加大对全球女性的投资</text></g></g><g id="minder_node75"><g id="node_expander74" style="cursor: pointer;"><path id="kity_path_656" fill="white" stroke="gray" d="M1828.500026576221,628.5000133737922A6,6,0,1,1,1816.500026576221,628.5000133737922A6,6,0,1,1,1828.500026576221,628.5000133737922"></path><path id="kity_path_657" fill="none" stroke="gray" d="M1818.000026576221,628.5000133737922L1827.000026576221,628.5000133737922"></path></g><path id="node_outline75" fill="#8db3e2" stroke="none" d="M1833.5000267401338,619.5000133737922h216a5,5,0,0,1,5,5v8a5,5,0,0,1,-5,5h-216a5,5,0,0,1,-5,-5v-8a5,5,0,0,1,5,-5z"></path><g id="node_text75" fill="#ffffff"><text id="kity_text_332" text-rendering="inherit" font-family="微软雅黑,Microsoft YaHei" font-size="12" dy=".8em" font-weight="bold" y="620.7000133469701" x="1833.5000267401338">环境民俗&#xa0;Environmental folk custom</text></g></g><g id="minder_node76"><g id="node_expander73" display="none" style="cursor: pointer;"><path id="kity_path_653" fill="white" stroke="gray" d="M1856.5000269934535,654.5000137612224A6,6,0,1,1,1844.5000269934535,654.5000137612224A6,6,0,1,1,1856.5000269934535,654.5000137612224"></path><path id="kity_path_654" fill="none" stroke="gray"></path></g><path id="node_outline74" fill="none" stroke="none" d="M1861.5000271573663,645.5000137612224h372a5,5,0,0,1,5,5v8a5,5,0,0,1,-5,5h-372a5,5,0,0,1,-5,-5v-8a5,5,0,0,1,5,-5z"></path><g id="node_text74" fill="black"><text id="kity_text_330" text-rendering="inherit" font-size="12" dy=".8em" y="646.7000137344003" x="1861.5000271573663">想让产品更环保，不在于设计时使用绿色材料，而在于用户如何使用。</text></g></g></g></g></svg>