<svg id="kity_svg_6" xmlns="http://www.w3.org/2000/svg" xmlns:xlink="http://www.w3.org/1999/xlink" version="1.1" width="1945" height="650" style="background: rgb(251, 251, 251); visibility: visible;" viewBox="0 0 1945 650"><defs id="kity_defs_7"><linearGradient id="kity_linearGradient_17" x1="0" y1="0" x2="0" y2="1"><stop id="kity_stop_18" offset="0" stop-color="rgb(255, 255, 255)"></stop><stop id="kity_stop_19" offset="1" stop-color="rgb(204, 204, 204)"></stop></linearGradient><marker id="kity_marker_2" orient="auto" refX="6" refY="0" viewBox="-7 -7 14 14" markerWidth="7" markerHeight="7" markerUnits="userSpaceOnUse"><path id="kity_path_3" fill="rgb(115, 161, 191)" stroke="none" d="M6,0A6,6,0,1,1,-6,0A6,6,0,1,1,6,0"></path></marker></defs><g id="kity_g_8"><g id="minder1" text-rendering="optimize-speed"><g id="minder_connect_group1"><path id="kity_path_31" fill="none" stroke="rgb(115, 161, 191)" stroke-width="1" d="M963.5000114366412,72.5000007674098v10h-878V90.5000007674098"></path><path id="kity_path_33" fill="none" stroke="rgb(115, 161, 191)" stroke-width="1" d="M39.500011436641216,122.5000007674098V143.5000007674098L47.500011436641216,143.5000007674098"></path><path id="kity_path_35" fill="none" stroke="rgb(115, 161, 191)" stroke-width="1" d="M67.50001143664122,152.5000007674098V169.5000007674098L75.50001143664122,169.5000007674098"></path><path id="kity_path_37" fill="none" stroke="rgb(115, 161, 191)" stroke-width="1" d="M39.500011436641216,122.5000007674098V195.5000007674098L47.500011436641216,195.5000007674098"></path><path id="kity_path_39" fill="none" stroke="rgb(115, 161, 191)" stroke-width="1" d="M67.50001143664122,204.5000007674098V221.5000007674098L75.50001143664122,221.5000007674098"></path><path id="kity_path_41" fill="none" stroke="rgb(115, 161, 191)" stroke-width="1" d="M67.50001143664122,204.5000007674098V247.5000007674098L75.50001143664122,247.5000007674098"></path><path id="kity_path_43" fill="none" stroke="rgb(115, 161, 191)" stroke-width="1" d="M39.500011436641216,122.5000007674098V273.5000007674098L47.500011436641216,273.5000007674098"></path><path id="kity_path_45" fill="none" stroke="rgb(115, 161, 191)" stroke-width="1" d="M67.50001143664122,282.5000007674098V308.5000007674098L75.50001143664122,308.5000007674098"></path><path id="kity_path_47" fill="none" stroke="rgb(115, 161, 191)" stroke-width="1" d="M963.5000114366412,72.5000007674098v10h-598V90.5000007674098"></path><path id="kity_path_49" fill="none" stroke="rgb(115, 161, 191)" stroke-width="1" d="M309.5000114366412,122.5000007674098V143.5000007674098L317.5000114366412,143.5000007674098"></path><path id="kity_path_51" fill="none" stroke="rgb(115, 161, 191)" stroke-width="1" d="M309.5000114366412,122.5000007674098V169.5000007674098L317.5000114366412,169.5000007674098"></path><path id="kity_path_53" fill="none" stroke="rgb(115, 161, 191)" stroke-width="1" d="M309.5000114366412,122.5000007674098V195.5000007674098L317.5000114366412,195.5000007674098"></path><path id="kity_path_55" fill="none" stroke="rgb(115, 161, 191)" stroke-width="1" d="M337.5000114366412,204.5000007674098V221.5000007674098L345.5000114366412,221.5000007674098"></path><path id="kity_path_57" fill="none" stroke="rgb(115, 161, 191)" stroke-width="1" d="M337.5000114366412,204.5000007674098V247.5000007674098L345.5000114366412,247.5000007674098"></path><path id="kity_path_59" fill="none" stroke="rgb(115, 161, 191)" stroke-width="1" d="M309.5000114366412,122.5000007674098V273.5000007674098L317.5000114366412,273.5000007674098"></path><path id="kity_path_61" fill="none" stroke="rgb(115, 161, 191)" stroke-width="1" d="M337.5000114366412,282.5000007674098V299.5000007674098L345.5000114366412,299.5000007674098"></path><path id="kity_path_63" fill="none" stroke="rgb(115, 161, 191)" stroke-width="1" d="M365.5000114366412,308.5000007674098V325.5000007674098L373.5000114366412,325.5000007674098"></path><path id="kity_path_65" fill="none" stroke="rgb(115, 161, 191)" stroke-width="1" d="M393.5000114366412,334.5000007674098V369.5000007674098L401.5000114366412,369.5000007674098"></path><path id="kity_path_67" fill="none" stroke="rgb(115, 161, 191)" stroke-width="1" d="M393.5000114366412,334.5000007674098V413.5000007674098L401.5000114366412,413.5000007674098"></path><path id="kity_path_69" fill="none" stroke="rgb(115, 161, 191)" stroke-width="1" d="M421.5000114366412,422.5000007674098V439.5000007674098L429.5000114366412,439.5000007674098"></path><path id="kity_path_71" fill="none" stroke="rgb(115, 161, 191)" stroke-width="1" d="M421.5000114366412,422.5000007674098V465.5000007674098L429.5000114366412,465.5000007674098"></path><path id="kity_path_73" fill="none" stroke="rgb(115, 161, 191)" stroke-width="1" d="M421.5000114366412,422.5000007674098V491.5000007674098L429.5000114366412,491.5000007674098"></path><path id="kity_path_75" fill="none" stroke="rgb(115, 161, 191)" stroke-width="1" d="M449.5000114366412,500.5000007674098V517.5000007674098L457.5000114366412,517.5000007674098"></path><path id="kity_path_77" fill="none" stroke="rgb(115, 161, 191)" stroke-width="1" d="M309.5000114366412,122.5000007674098V543.5000007674098L317.5000114366412,543.5000007674098"></path><path id="kity_path_79" fill="none" stroke="rgb(115, 161, 191)" stroke-width="1" d="M337.5000114366412,552.5000007674098V569.5000007674098L345.5000114366412,569.5000007674098"></path><path id="kity_path_81" fill="none" stroke="rgb(115, 161, 191)" stroke-width="1" d="M365.5000114366412,578.5000007674098V595.5000007674098L373.5000114366412,595.5000007674098"></path><path id="kity_path_83" fill="none" stroke="rgb(115, 161, 191)" stroke-width="1" d="M365.5000114366412,578.5000007674098V621.5000007674098L373.5000114366412,621.5000007674098"></path><path id="kity_path_85" fill="none" stroke="rgb(115, 161, 191)" stroke-width="1" d="M963.5000114366412,72.5000007674098v10h-96.5V90.5000007674098"></path><path id="kity_path_87" fill="none" stroke="rgb(115, 161, 191)" stroke-width="1" d="M796.5000114366412,122.5000007674098V143.5000007674098L804.5000114366412,143.5000007674098"></path><path id="kity_path_89" fill="none" stroke="rgb(115, 161, 191)" stroke-width="1" d="M796.5000114366412,122.5000007674098V169.5000007674098L804.5000114366412,169.5000007674098"></path><path id="kity_path_91" fill="none" stroke="rgb(115, 161, 191)" stroke-width="1" d="M824.5000114366412,178.5000007674098V195.5000007674098L832.5000114366412,195.5000007674098"></path><path id="kity_path_93" fill="none" stroke="rgb(115, 161, 191)" stroke-width="1" d="M852.5000114366412,204.5000007674098V221.5000007674098L860.5000114366412,221.5000007674098"></path><path id="kity_path_95" fill="none" stroke="rgb(115, 161, 191)" stroke-width="1" d="M852.5000114366412,204.5000007674098V247.5000007674098L860.5000114366412,247.5000007674098"></path><path id="kity_path_97" fill="none" stroke="rgb(115, 161, 191)" stroke-width="1" d="M852.5000114366412,204.5000007674098V273.5000007674098L860.5000114366412,273.5000007674098"></path><path id="kity_path_99" fill="none" stroke="rgb(115, 161, 191)" stroke-width="1" d="M824.5000114366412,178.5000007674098V299.5000007674098L832.5000114366412,299.5000007674098"></path><path id="kity_path_101" fill="none" stroke="rgb(115, 161, 191)" stroke-width="1" d="M852.5000114366412,308.5000007674098V325.5000007674098L860.5000114366412,325.5000007674098"></path><path id="kity_path_103" fill="none" stroke="rgb(115, 161, 191)" stroke-width="1" d="M852.5000114366412,308.5000007674098V351.5000007674098L860.5000114366412,351.5000007674098"></path><path id="kity_path_105" fill="none" stroke="rgb(115, 161, 191)" stroke-width="1" d="M796.5000114366412,122.5000007674098V377.5000007674098L804.5000114366412,377.5000007674098"></path><path id="kity_path_107" fill="none" stroke="rgb(115, 161, 191)" stroke-width="1" d="M824.5000114366412,386.5000007674098V403.5000007674098L832.5000114366412,403.5000007674098"></path><path id="kity_path_109" fill="none" stroke="rgb(115, 161, 191)" stroke-width="1" d="M963.5000114366412,72.5000007674098v10h398.5V90.5000007674098"></path><path id="kity_path_111" fill="none" stroke="rgb(115, 161, 191)" stroke-width="1" d="M1255.5000114366412,122.5000007674098V143.5000007674098L1263.5000114366412,143.5000007674098"></path><path id="kity_path_113" fill="none" stroke="rgb(115, 161, 191)" stroke-width="1" d="M1283.5000114366412,152.5000007674098V169.5000007674098L1291.5000114366412,169.5000007674098"></path><path id="kity_path_115" fill="none" stroke="rgb(115, 161, 191)" stroke-width="1" d="M1283.5000114366412,152.5000007674098V195.5000007674098L1291.5000114366412,195.5000007674098"></path><path id="kity_path_117" fill="none" stroke="rgb(115, 161, 191)" stroke-width="1" d="M1283.5000114366412,152.5000007674098V221.5000007674098L1291.5000114366412,221.5000007674098"></path><path id="kity_path_119" fill="none" stroke="rgb(115, 161, 191)" stroke-width="1" d="M1255.5000114366412,122.5000007674098V256.5000007674098L1263.5000114366412,256.5000007674098"></path><path id="kity_path_121" fill="none" stroke="rgb(115, 161, 191)" stroke-width="1" d="M1283.5000114366412,274.5000007674098V291.5000007674098L1291.5000114366412,291.5000007674098"></path><path id="kity_path_123" fill="none" stroke="rgb(115, 161, 191)" stroke-width="1" d="M1255.5000114366412,122.5000007674098V317.5000007674098L1263.5000114366412,317.5000007674098"></path><path id="kity_path_125" fill="none" stroke="rgb(115, 161, 191)" stroke-width="1" d="M1283.5000114366412,326.5000007674098V343.5000007674098L1291.5000114366412,343.5000007674098"></path><path id="kity_path_127" fill="none" stroke="rgb(115, 161, 191)" stroke-width="1" d="M1283.5000114366412,326.5000007674098V369.5000007674098L1291.5000114366412,369.5000007674098"></path><path id="kity_path_129" fill="none" stroke="rgb(115, 161, 191)" stroke-width="1" d="M1283.5000114366412,326.5000007674098V395.5000007674098L1291.5000114366412,395.5000007674098"></path><path id="kity_path_131" fill="none" stroke="rgb(115, 161, 191)" stroke-width="1" d="M1255.5000114366412,122.5000007674098V421.5000007674098L1263.5000114366412,421.5000007674098"></path><path id="kity_path_133" fill="none" stroke="rgb(115, 161, 191)" stroke-width="1" d="M1283.5000114366412,430.5000007674098V447.5000007674098L1291.5000114366412,447.5000007674098"></path><path id="kity_path_135" fill="none" stroke="rgb(115, 161, 191)" stroke-width="1" d="M1283.5000114366412,430.5000007674098V473.5000007674098L1291.5000114366412,473.5000007674098"></path><path id="kity_path_137" fill="none" stroke="rgb(115, 161, 191)" stroke-width="1" d="M963.5000114366412,72.5000007674098v10h811V90.5000007674098"></path><path id="kity_path_139" fill="none" stroke="rgb(115, 161, 191)" stroke-width="1" d="M1661.5000114366412,122.5000007674098V143.5000007674098L1669.5000114366412,143.5000007674098"></path><path id="kity_path_141" fill="none" stroke="rgb(115, 161, 191)" stroke-width="1" d="M1689.5000114366412,152.5000007674098V169.5000007674098L1697.5000114366412,169.5000007674098"></path><path id="kity_path_143" fill="none" stroke="rgb(115, 161, 191)" stroke-width="1" d="M1689.5000114366412,152.5000007674098V195.5000007674098L1697.5000114366412,195.5000007674098"></path><path id="kity_path_145" fill="none" stroke="rgb(115, 161, 191)" stroke-width="1" d="M1689.5000114366412,152.5000007674098V221.5000007674098L1697.5000114366412,221.5000007674098"></path><path id="kity_path_147" fill="none" stroke="rgb(115, 161, 191)" stroke-width="1" d="M1689.5000114366412,152.5000007674098V247.5000007674098L1697.5000114366412,247.5000007674098"></path><path id="kity_path_149" fill="none" stroke="rgb(115, 161, 191)" stroke-width="1" d="M1689.5000114366412,152.5000007674098V282.5000007674098L1697.5000114366412,282.5000007674098"></path></g><g id="minder_node1"><path id="node_outline1" fill="#8db3e2" stroke="rgb(57, 80, 96)" d="M808.5000114366412,20.5000007674098h309a5,5,0,0,1,5,5v42a5,5,0,0,1,-5,5h-309a5,5,0,0,1,-5,-5v-42a5,5,0,0,1,5,-5z" stroke-width="3"></path><g id="node_text1" fill="#ffffff"><text id="kity_text_22" text-rendering="inherit" font-size="16" dy=".8em" y="24.100000731647015" font-family="微软雅黑,Microsoft YaHei" font-weight="bold" x="815.5000114366412">科技、娱乐、设计</text><text id="kity_text_275" text-rendering="inherit" font-family="微软雅黑,Microsoft YaHei" font-size="16" dy=".8em" font-weight="bold" y="48.100000731647015" x="815.5000114366412">https://koujii.github.io/TED/TED.svg</text></g></g><g id="kity_g_12"><path id="kity_path_13" fill="none" stroke="none" d="M815.5000114366412,46.5000007674098h0v0h0z"></path></g><g id="kity_g_14"><path id="kity_path_15" fill="none" stroke="none" d="M815.5000114366412,46.5000007674098h0v0h0z"></path><path id="kity_path_16" fill="none" stroke="none"></path></g><g id="minder_node2"><g id="node_expander8" style="cursor: pointer;"><path id="kity_path_383" fill="white" stroke="gray" d="M91.00000055134296,83.50000131875277A6,6,0,1,1,79.00000055134296,83.50000131875277A6,6,0,1,1,91.00000055134296,83.50000131875277"></path><path id="kity_path_384" fill="none" stroke="gray" d="M80.50000055134296,83.50000131875277L89.50000055134296,83.50000131875277"></path></g><path id="node_outline9" fill="#8db3e2" stroke="rgb(115, 161, 191)" d="M22.50000024586916,90.50000166147947h125a3,3,0,0,1,3,3v26a3,3,0,0,1,-3,3h-125a3,3,0,0,1,-3,-3v-26a3,3,0,0,1,3,-3z" stroke-width="1"></path><g id="node_text9" fill="#ffffff"><text id="kity_text_166" text-rendering="inherit" font-family="微软雅黑,Microsoft YaHei" font-size="14" dy=".8em" font-weight="bold" y="97.40000163018703" x="64.50000024586916">数据 Data</text></g><g id="node_priority1"><path id="kity_path_278" fill="#840023" stroke="none" d="M39.99999988079071,110.00000151991844c0,3.866,3.134,7,7,7h6c3.866,0,7,-3.134,7,-7V104.00000151991844H39.99999988079071V110.00000151991844z"></path><path id="kity_path_279" fill="#FF1200" stroke="none" d="M59.99999988079071,107.00000151991844c0,3.866,-3.134,7,-7,7H46.99999988079071c-3.866,0,-7,-3.134,-7,-7V104.00000151991844c0,-3.866,3.134,-7,7,-7h6c3.866,0,7,3.134,7,7V107.00000151991844z" opacity="0.8"></path><text id="kity_text_280" text-rendering="geometricPrecision" x="48.99999987334013" y="106.50000151246786" text-anchor="middle" font-style="italic" font-size="12" fill="white" dy="5">1</text></g></g><g id="minder_node3"><g id="node_expander2" style="cursor: pointer;"><path id="kity_path_365" fill="white" stroke="gray" d="M47.49999990314245,143.50000221282244A6,6,0,1,1,35.49999990314245,143.50000221282244A6,6,0,1,1,47.49999990314245,143.50000221282244"></path><path id="kity_path_366" fill="none" stroke="gray" d="M36.99999990314245,143.50000221282244L45.99999990314245,143.50000221282244"></path></g><path id="node_outline3" fill="#8db3e2" stroke="none" d="M52.500000067055225,134.50000221282244h131a5,5,0,0,1,5,5v8a5,5,0,0,1,-5,5h-131a5,5,0,0,1,-5,-5v-8a5,5,0,0,1,5,-5z"></path><g id="node_text3" fill="#ffffff"><text id="kity_text_153" text-rendering="inherit" font-family="微软雅黑,Microsoft YaHei" font-size="12" dy=".8em" font-weight="bold" y="135.70000218600035" x="52.500000067055225">数字屑 Digital Crumbs</text></g></g><g id="minder_node4"><g id="node_expander1" display="none" style="cursor: pointer;"><path id="kity_path_362" fill="white" stroke="gray" d="M75.50000032037497,169.50000260025263A6,6,0,1,1,63.500000320374966,169.50000260025263A6,6,0,1,1,75.50000032037497,169.50000260025263"></path><path id="kity_path_363" fill="none" stroke="gray"></path></g><path id="node_outline2" fill="none" stroke="none" d="M80.50000048428774,160.50000260025263h52a5,5,0,0,1,5,5v8a5,5,0,0,1,-5,5h-52a5,5,0,0,1,-5,-5v-8a5,5,0,0,1,5,-5z"></path><g id="node_text2" fill="black"><text id="kity_text_151" text-rendering="inherit" font-size="12" dy=".8em" y="161.70000257343054" x="80.50000048428774">数据废气&#xa0;</text></g></g><g id="minder_node5"><g id="node_expander5" style="cursor: pointer;"><path id="kity_path_374" fill="white" stroke="gray" d="M47.49999990314245,195.50000298768282A6,6,0,1,1,35.49999990314245,195.50000298768282A6,6,0,1,1,47.49999990314245,195.50000298768282"></path><path id="kity_path_375" fill="none" stroke="gray" d="M36.99999990314245,195.50000298768282L45.99999990314245,195.50000298768282"></path></g><path id="node_outline6" fill="#8db3e2" stroke="none" d="M52.500000067055225,186.50000298768282h92a5,5,0,0,1,5,5v8a5,5,0,0,1,-5,5h-92a5,5,0,0,1,-5,-5v-8a5,5,0,0,1,5,-5z"></path><g id="node_text6" fill="#ffffff"><text id="kity_text_159" text-rendering="inherit" font-family="微软雅黑,Microsoft YaHei" font-size="12" dy=".8em" font-weight="bold" y="187.70000296086073" x="52.500000067055225">大数据 Big Data</text></g></g><g id="minder_node6"><g id="node_expander3" display="none" style="cursor: pointer;"><path id="kity_path_368" fill="white" stroke="gray" d="M75.50000032037497,221.500003375113A6,6,0,1,1,63.500000320374966,221.500003375113A6,6,0,1,1,75.50000032037497,221.500003375113"></path><path id="kity_path_369" fill="none" stroke="gray"></path></g><path id="node_outline4" fill="none" stroke="none" d="M80.50000048428774,212.500003375113h73a5,5,0,0,1,5,5v8a5,5,0,0,1,-5,5h-73a5,5,0,0,1,-5,-5v-8a5,5,0,0,1,5,-5z"></path><g id="node_text4" fill="black"><text id="kity_text_155" text-rendering="inherit" font-size="12" dy=".8em" y="213.70000334829092" x="80.50000048428774">巨量数据集合</text></g></g><g id="minder_node7"><g id="node_expander4" display="none" style="cursor: pointer;"><path id="kity_path_371" fill="white" stroke="gray" d="M75.50000032037497,247.5000037625432A6,6,0,1,1,63.500000320374966,247.5000037625432A6,6,0,1,1,75.50000032037497,247.5000037625432"></path><path id="kity_path_372" fill="none" stroke="gray"></path></g><path id="node_outline5" fill="none" stroke="none" d="M80.50000048428774,238.5000037625432h170a5,5,0,0,1,5,5v8a5,5,0,0,1,-5,5h-170a5,5,0,0,1,-5,-5v-8a5,5,0,0,1,5,-5z"></path><g id="node_text5" fill="black"><text id="kity_text_157" text-rendering="inherit" font-size="12" dy=".8em" y="239.7000037357211" x="80.50000048428774">数据共享：取之有道，用之有道</text></g></g><g id="minder_node8"><g id="node_expander7" style="cursor: pointer;"><path id="kity_path_380" fill="white" stroke="gray" d="M47.49999990314245,273.5000041499734A6,6,0,1,1,35.49999990314245,273.5000041499734A6,6,0,1,1,47.49999990314245,273.5000041499734"></path><path id="kity_path_381" fill="none" stroke="gray" d="M36.99999990314245,273.5000041499734L45.99999990314245,273.5000041499734"></path></g><path id="node_outline8" fill="#8db3e2" stroke="none" d="M52.500000067055225,264.5000041499734h216a5,5,0,0,1,5,5v8a5,5,0,0,1,-5,5h-216a5,5,0,0,1,-5,-5v-8a5,5,0,0,1,5,-5z"></path><g id="node_text8" fill="#ffffff"><text id="kity_text_164" text-rendering="inherit" font-family="微软雅黑,Microsoft YaHei" font-size="12" dy=".8em" font-weight="bold" y="265.7000041231513" x="52.500000067055225">信息可视化&#xa0;Information visualization</text></g></g><g id="minder_node9"><g id="node_expander6" display="none" style="cursor: pointer;"><path id="kity_path_377" fill="white" stroke="gray" d="M75.50000032037497,308.50000467151403A6,6,0,1,1,63.500000320374966,308.50000467151403A6,6,0,1,1,75.50000032037497,308.50000467151403"></path><path id="kity_path_378" fill="none" stroke="gray"></path></g><path id="node_outline7" fill="none" stroke="none" d="M80.50000048428774,290.50000467151403h157a5,5,0,0,1,5,5v26a5,5,0,0,1,-5,5h-157a5,5,0,0,1,-5,-5v-26a5,5,0,0,1,5,-5z"></path><g id="node_text7" fill="black"><text id="kity_text_161" text-rendering="inherit" font-size="12" dy=".8em" y="291.70000464469194" x="80.50000048428774">让公众易于读懂数据的意义，</text><text id="kity_text_162" text-rendering="inherit" font-size="12" dy=".8em" y="309.70000464469194" x="80.50000048428774">让更多的人知道真实的情况</text></g></g><g id="minder_node10"><g id="node_expander27" style="cursor: pointer;"><path id="kity_path_440" fill="white" stroke="gray" d="M371.0000047236681,83.50000131875277A6,6,0,1,1,359.0000047236681,83.50000131875277A6,6,0,1,1,371.0000047236681,83.50000131875277"></path><path id="kity_path_441" fill="none" stroke="gray" d="M360.5000047236681,83.50000131875277L369.5000047236681,83.50000131875277"></path></g><path id="node_outline28" fill="#8db3e2" stroke="rgb(115, 161, 191)" d="M292.5000042691827,90.50000166147947h145a3,3,0,0,1,3,3v26a3,3,0,0,1,-3,3h-145a3,3,0,0,1,-3,-3v-26a3,3,0,0,1,3,-3z" stroke-width="1"></path><g id="node_text28" fill="#ffffff"><text id="kity_text_206" text-rendering="inherit" font-family="微软雅黑,Microsoft YaHei" font-size="14" dy=".8em" font-weight="bold" y="97.40000163018703" x="334.5000042691827">编程改变世界</text></g><g id="node_priority2"><path id="kity_path_283" fill="#840023" stroke="none" d="M310.00000390410423,110.00000151991844c0,3.866,3.134,7,7,7h6c3.866,0,7,-3.134,7,-7V104.00000151991844H310.00000390410423V110.00000151991844z"></path><path id="kity_path_284" fill="#FF1200" stroke="none" d="M330.00000390410423,107.00000151991844c0,3.866,-3.134,7,-7,7H317.00000390410423c-3.866,0,-7,-3.134,-7,-7V104.00000151991844c0,-3.866,3.134,-7,7,-7h6c3.866,0,7,3.134,7,7V107.00000151991844z" opacity="0.8"></path><text id="kity_text_285" text-rendering="geometricPrecision" x="319.00000389665365" y="106.50000151246786" text-anchor="middle" font-style="italic" font-size="12" fill="white" dy="5">1</text></g></g><g id="minder_node11"><g id="node_expander9" display="none" style="cursor: pointer;"><path id="kity_path_386" fill="white" stroke="gray" d="M317.500003926456,143.50000221282244A6,6,0,1,1,305.500003926456,143.50000221282244A6,6,0,1,1,317.500003926456,143.50000221282244"></path><path id="kity_path_387" fill="none" stroke="gray"></path></g><path id="node_outline10" fill="none" stroke="none" d="M322.50000409036875,134.50000221282244h109a5,5,0,0,1,5,5v8a5,5,0,0,1,-5,5h-109a5,5,0,0,1,-5,-5v-8a5,5,0,0,1,5,-5z"></path><g id="node_text10" fill="black"><text id="kity_text_168" text-rendering="inherit" font-size="12" dy=".8em" y="135.70000218600035" x="322.50000409036875">编码改善更好的政府</text></g></g><g id="minder_node12"><g id="node_expander10" display="none" style="cursor: pointer;"><path id="kity_path_389" fill="white" stroke="gray" d="M317.500003926456,169.50000260025263A6,6,0,1,1,305.500003926456,169.50000260025263A6,6,0,1,1,317.500003926456,169.50000260025263"></path><path id="kity_path_390" fill="none" stroke="gray"></path></g><path id="node_outline11" fill="none" stroke="none" d="M322.50000409036875,160.50000260025263h217a5,5,0,0,1,5,5v8a5,5,0,0,1,-5,5h-217a5,5,0,0,1,-5,-5v-8a5,5,0,0,1,5,-5z"></path><g id="node_text11" fill="black"><text id="kity_text_170" text-rendering="inherit" font-size="12" dy=".8em" y="161.70000257343054" x="322.50000409036875">黑客编程一直是健康民主的重要组成部分</text></g></g><g id="minder_node13"><g id="node_expander13" style="cursor: pointer;"><path id="kity_path_398" fill="white" stroke="gray" d="M317.500003926456,195.50000298768282A6,6,0,1,1,305.500003926456,195.50000298768282A6,6,0,1,1,317.500003926456,195.50000298768282"></path><path id="kity_path_399" fill="none" stroke="gray" d="M307.000003926456,195.50000298768282L316.000003926456,195.50000298768282"></path></g><path id="node_outline14" fill="none" stroke="none" d="M322.50000409036875,186.50000298768282h25a5,5,0,0,1,5,5v8a5,5,0,0,1,-5,5h-25a5,5,0,0,1,-5,-5v-8a5,5,0,0,1,5,-5z"></path><g id="node_text14" fill="black"><text id="kity_text_176" text-rendering="inherit" font-size="12" dy=".8em" y="187.70000296086073" x="322.50000409036875">偏见</text></g></g><g id="minder_node14"><g id="node_expander11" display="none" style="cursor: pointer;"><path id="kity_path_392" fill="white" stroke="gray" d="M345.5000043436885,221.500003375113A6,6,0,1,1,333.5000043436885,221.500003375113A6,6,0,1,1,345.5000043436885,221.500003375113"></path><path id="kity_path_393" fill="none" stroke="gray"></path></g><path id="node_outline12" fill="none" stroke="none" d="M350.50000450760126,212.500003375113h86a5,5,0,0,1,5,5v8a5,5,0,0,1,-5,5h-86a5,5,0,0,1,-5,-5v-8a5,5,0,0,1,5,-5z"></path><g id="node_text12" fill="black"><text id="kity_text_172" text-rendering="inherit" font-size="12" dy=".8em" y="213.70000334829092" x="350.50000450760126">女生也适合编程</text></g></g><g id="minder_node15"><g id="node_expander12" display="none" style="cursor: pointer;"><path id="kity_path_395" fill="white" stroke="gray" d="M345.5000043436885,247.5000037625432A6,6,0,1,1,333.5000043436885,247.5000037625432A6,6,0,1,1,345.5000043436885,247.5000037625432"></path><path id="kity_path_396" fill="none" stroke="gray"></path></g><path id="node_outline13" fill="none" stroke="none" d="M350.50000450760126,238.5000037625432h266a5,5,0,0,1,5,5v8a5,5,0,0,1,-5,5h-266a5,5,0,0,1,-5,-5v-8a5,5,0,0,1,5,-5z"></path><g id="node_text13" fill="black"><text id="kity_text_174" text-rendering="inherit" font-size="12" dy=".8em" y="239.7000037357211" x="350.50000450760126">编程是：自由摆弄的多彩的、具有表现能力的机器</text></g></g><g id="minder_node16"><g id="node_expander22" style="cursor: pointer;"><path id="kity_path_425" fill="white" stroke="gray" d="M317.500003926456,273.5000041499734A6,6,0,1,1,305.500003926456,273.5000041499734A6,6,0,1,1,317.500003926456,273.5000041499734"></path><path id="kity_path_426" fill="none" stroke="gray" d="M307.000003926456,273.5000041499734L316.000003926456,273.5000041499734"></path></g><path id="node_outline23" fill="#8db3e2" stroke="none" d="M322.50000409036875,264.5000041499734h69a5,5,0,0,1,5,5v8a5,5,0,0,1,-5,5h-69a5,5,0,0,1,-5,-5v-8a5,5,0,0,1,5,-5z"></path><g id="node_text23" fill="#ffffff"><text id="kity_text_196" text-rendering="inherit" font-family="微软雅黑,Microsoft YaHei" font-size="12" dy=".8em" font-weight="bold" y="265.7000041231513" x="322.50000409036875">人工智能 AI&#xa0;</text></g></g><g id="minder_node17"><g id="node_expander21" style="cursor: pointer;"><path id="kity_path_422" fill="white" stroke="gray" d="M345.5000043436885,299.5000045374036A6,6,0,1,1,333.5000043436885,299.5000045374036A6,6,0,1,1,345.5000043436885,299.5000045374036"></path><path id="kity_path_423" fill="none" stroke="gray" d="M335.0000043436885,299.5000045374036L344.0000043436885,299.5000045374036"></path></g><path id="node_outline22" fill="#8db3e2" stroke="none" d="M350.50000450760126,290.5000045374036h72a5,5,0,0,1,5,5v8a5,5,0,0,1,-5,5h-72a5,5,0,0,1,-5,-5v-8a5,5,0,0,1,5,-5z"></path><g id="node_text22" fill="#ffffff"><text id="kity_text_194" text-rendering="inherit" font-family="微软雅黑,Microsoft YaHei" font-size="12" dy=".8em" font-weight="bold" y="291.7000045105815" x="350.50000450760126">机器学习 ML</text></g></g><g id="minder_node18"><g id="node_expander20" style="cursor: pointer;"><path id="kity_path_419" fill="white" stroke="gray" d="M373.500004760921,325.5000049248338A6,6,0,1,1,361.500004760921,325.5000049248338A6,6,0,1,1,373.500004760921,325.5000049248338"></path><path id="kity_path_420" fill="none" stroke="gray" d="M363.000004760921,325.5000049248338L372.000004760921,325.5000049248338"></path></g><path id="node_outline21" fill="#8db3e2" stroke="none" d="M378.5000049248338,316.5000049248338h188a5,5,0,0,1,5,5v8a5,5,0,0,1,-5,5h-188a5,5,0,0,1,-5,-5v-8a5,5,0,0,1,5,-5z"></path><g id="node_text21" fill="#ffffff"><text id="kity_text_192" text-rendering="inherit" font-family="微软雅黑,Microsoft YaHei" font-size="12" dy=".8em" font-weight="bold" y="317.7000048980117" x="378.5000049248338">推荐系统 Recommender System</text></g></g><g id="minder_node19"><g id="node_expander14" display="none" style="cursor: pointer;"><path id="kity_path_401" fill="white" stroke="gray" d="M401.5000051781535,369.50000558048487A6,6,0,1,1,389.5000051781535,369.50000558048487A6,6,0,1,1,401.5000051781535,369.50000558048487"></path><path id="kity_path_402" fill="none" stroke="gray"></path></g><path id="node_outline15" fill="none" stroke="none" d="M406.5000053420663,342.50000558048487h349a5,5,0,0,1,5,5v44a5,5,0,0,1,-5,5h-349a5,5,0,0,1,-5,-5v-44a5,5,0,0,1,5,-5z"></path><g id="node_text15" fill="black"><text id="kity_text_178" text-rendering="inherit" font-size="12" dy=".8em" y="343.7000055536628" x="406.5000053420663">推荐系统（Recommender System）</text><text id="kity_text_179" text-rendering="inherit" font-size="12" dy=".8em" y="361.7000055536628" x="406.5000053420663">是一种信息过滤系统，根据用户的历史行为、</text><text id="kity_text_180" text-rendering="inherit" font-size="12" dy=".8em" y="379.7000055536628" x="406.5000053420663">社交关系、兴趣点，算法可以判断用户当前感兴趣的物品或内容。</text></g></g><g id="minder_node20"><g id="node_expander19" style="cursor: pointer;"><path id="kity_path_416" fill="white" stroke="gray" d="M401.5000051781535,413.50000623613596A6,6,0,1,1,389.5000051781535,413.50000623613596A6,6,0,1,1,401.5000051781535,413.50000623613596"></path><path id="kity_path_417" fill="none" stroke="gray" d="M391.0000051781535,413.50000623613596L400.0000051781535,413.50000623613596"></path></g><path id="node_outline20" fill="#8db3e2" stroke="none" d="M406.5000053420663,404.50000623613596h129a5,5,0,0,1,5,5v8a5,5,0,0,1,-5,5h-129a5,5,0,0,1,-5,-5v-8a5,5,0,0,1,5,-5z"></path><g id="node_text20" fill="#ffffff"><text id="kity_text_190" text-rendering="inherit" font-family="微软雅黑,Microsoft YaHei" font-size="12" dy=".8em" font-weight="bold" y="405.70000620931387" x="406.5000053420663">过滤气泡&#xa0;Filter bubble</text></g></g><g id="minder_node21"><g id="node_expander15" display="none" style="cursor: pointer;"><path id="kity_path_404" fill="white" stroke="gray" d="M429.500005595386,439.50000662356615A6,6,0,1,1,417.500005595386,439.50000662356615A6,6,0,1,1,429.500005595386,439.50000662356615"></path><path id="kity_path_405" fill="none" stroke="gray"></path></g><path id="node_outline16" fill="none" stroke="none" d="M434.5000057592988,430.50000662356615h194a5,5,0,0,1,5,5v8a5,5,0,0,1,-5,5h-194a5,5,0,0,1,-5,-5v-8a5,5,0,0,1,5,-5z"></path><g id="node_text16" fill="black"><text id="kity_text_182" text-rendering="inherit" font-size="12" dy=".8em" y="431.70000659674406" x="434.5000057592988">是一种能分隔开人们意识形态的算法</text></g></g><g id="minder_node22"><g id="node_expander16" display="none" style="cursor: pointer;"><path id="kity_path_407" fill="white" stroke="gray" d="M429.500005595386,465.50000701099634A6,6,0,1,1,417.500005595386,465.50000701099634A6,6,0,1,1,429.500005595386,465.50000701099634"></path><path id="kity_path_408" fill="none" stroke="gray"></path></g><path id="node_outline17" fill="none" stroke="none" d="M434.5000057592988,456.50000701099634h108a5,5,0,0,1,5,5v8a5,5,0,0,1,-5,5h-108a5,5,0,0,1,-5,-5v-8a5,5,0,0,1,5,-5z"></path><g id="node_text17" fill="black"><text id="kity_text_184" text-rendering="inherit" font-size="12" dy=".8em" y="457.70000698417425" x="434.5000057592988">平台应该让算法透明</text></g></g><g id="minder_node23"><g id="node_expander18" style="cursor: pointer;"><path id="kity_path_413" fill="white" stroke="gray" d="M429.500005595386,491.50000739842653A6,6,0,1,1,417.500005595386,491.50000739842653A6,6,0,1,1,429.500005595386,491.50000739842653"></path><path id="kity_path_414" fill="none" stroke="gray" d="M419.000005595386,491.50000739842653L428.000005595386,491.50000739842653"></path></g><path id="node_outline19" fill="none" stroke="none" d="M434.5000057592988,482.50000739842653h25a5,5,0,0,1,5,5v8a5,5,0,0,1,-5,5h-25a5,5,0,0,1,-5,-5v-8a5,5,0,0,1,5,-5z"></path><g id="node_text19" fill="black"><text id="kity_text_188" text-rendering="inherit" font-size="12" dy=".8em" y="483.70000737160444" x="434.5000057592988">危害 </text></g></g><g id="minder_node24"><g id="node_expander17" display="none" style="cursor: pointer;"><path id="kity_path_410" fill="white" stroke="gray" d="M457.50000601261854,517.5000077858567A6,6,0,1,1,445.50000601261854,517.5000077858567A6,6,0,1,1,457.50000601261854,517.5000077858567"></path><path id="kity_path_411" fill="none" stroke="gray"></path></g><path id="node_outline18" fill="none" stroke="none" d="M462.5000061765313,508.5000077858567h97a5,5,0,0,1,5,5v8a5,5,0,0,1,-5,5h-97a5,5,0,0,1,-5,-5v-8a5,5,0,0,1,5,-5z"></path><g id="node_text18" fill="black"><text id="kity_text_186" text-rendering="inherit" font-size="12" dy=".8em" y="509.70000775903463" x="462.5000061765313">容易导致群体偏见</text></g></g><g id="minder_node25"><g id="node_expander26" style="cursor: pointer;"><path id="kity_path_437" fill="white" stroke="gray" d="M317.500003926456,543.5000081732869A6,6,0,1,1,305.500003926456,543.5000081732869A6,6,0,1,1,317.500003926456,543.5000081732869"></path><path id="kity_path_438" fill="none" stroke="gray" d="M307.000003926456,543.5000081732869L316.000003926456,543.5000081732869"></path></g><path id="node_outline27" fill="#8db3e2" stroke="none" d="M322.50000409036875,534.5000081732869h105a5,5,0,0,1,5,5v8a5,5,0,0,1,-5,5h-105a5,5,0,0,1,-5,-5v-8a5,5,0,0,1,5,-5z"></path><g id="node_text27" fill="#ffffff"><text id="kity_text_204" text-rendering="inherit" font-family="微软雅黑,Microsoft YaHei" font-size="12" dy=".8em" font-weight="bold" y="535.7000081464648" x="322.50000409036875">区块链&#xa0;Blockchain</text></g></g><g id="minder_node26"><g id="node_expander25" style="cursor: pointer;"><path id="kity_path_434" fill="white" stroke="gray" d="M345.5000043436885,569.5000085607171A6,6,0,1,1,333.5000043436885,569.5000085607171A6,6,0,1,1,345.5000043436885,569.5000085607171"></path><path id="kity_path_435" fill="none" stroke="gray" d="M335.0000043436885,569.5000085607171L344.0000043436885,569.5000085607171"></path></g><path id="node_outline26" fill="none" stroke="none" d="M350.50000450760126,560.5000085607171h25a5,5,0,0,1,5,5v8a5,5,0,0,1,-5,5h-25a5,5,0,0,1,-5,-5v-8a5,5,0,0,1,5,-5z"></path><g id="node_text26" fill="black"><text id="kity_text_202" text-rendering="inherit" font-size="12" dy=".8em" y="561.700008533895" x="350.50000450760126">优点</text></g></g><g id="minder_node27"><g id="node_expander23" display="none" style="cursor: pointer;"><path id="kity_path_428" fill="white" stroke="gray" d="M373.500004760921,595.5000089481473A6,6,0,1,1,361.500004760921,595.5000089481473A6,6,0,1,1,373.500004760921,595.5000089481473"></path><path id="kity_path_429" fill="none" stroke="gray"></path></g><path id="node_outline24" fill="none" stroke="none" d="M378.5000049248338,586.5000089481473h110a5,5,0,0,1,5,5v8a5,5,0,0,1,-5,5h-110a5,5,0,0,1,-5,-5v-8a5,5,0,0,1,5,-5z"></path><g id="node_text24" fill="black"><text id="kity_text_198" text-rendering="inherit" font-size="12" dy=".8em" y="587.7000089213252" x="378.5000049248338">保护隐私、安全可靠</text></g></g><g id="minder_node28"><g id="node_expander24" display="none" style="cursor: pointer;"><path id="kity_path_431" fill="white" stroke="gray" d="M373.500004760921,621.5000093355775A6,6,0,1,1,361.500004760921,621.5000093355775A6,6,0,1,1,373.500004760921,621.5000093355775"></path><path id="kity_path_432" fill="none" stroke="gray"></path></g><path id="node_outline25" fill="none" stroke="none" d="M378.5000049248338,612.5000093355775h122a5,5,0,0,1,5,5v8a5,5,0,0,1,-5,5h-122a5,5,0,0,1,-5,-5v-8a5,5,0,0,1,5,-5z"></path><g id="node_text25" fill="black"><text id="kity_text_200" text-rendering="inherit" font-size="12" dy=".8em" y="613.7000093087554" x="378.5000049248338">夺回我们资产的控制权</text></g></g><g id="minder_node29"><g id="node_expander39" style="cursor: pointer;"><path id="kity_path_476" fill="white" stroke="gray" d="M872.5000121966004,83.50000131875277A6,6,0,1,1,860.5000121966004,83.50000131875277A6,6,0,1,1,872.5000121966004,83.50000131875277"></path><path id="kity_path_477" fill="none" stroke="gray" d="M862.0000121966004,83.50000131875277L871.0000121966004,83.50000131875277"></path></g><path id="node_outline40" fill="#8db3e2" stroke="rgb(115, 161, 191)" d="M779.5000115260482,90.50000166147947h174a3,3,0,0,1,3,3v26a3,3,0,0,1,-3,3h-174a3,3,0,0,1,-3,-3v-26a3,3,0,0,1,3,-3z" stroke-width="1"></path><g id="node_text40" fill="#ffffff"><text id="kity_text_230" text-rendering="inherit" font-family="微软雅黑,Microsoft YaHei" font-size="14" dy=".8em" font-weight="bold" y="97.40000163018703" x="821.5000115260482">注意力 Attention</text></g><g id="node_priority3"><path id="kity_path_288" fill="#840023" stroke="none" d="M797.0000111609697,110.00000151991844c0,3.866,3.134,7,7,7h6c3.866,0,7,-3.134,7,-7V104.00000151991844H797.0000111609697V110.00000151991844z"></path><path id="kity_path_289" fill="#FF1200" stroke="none" d="M817.0000111609697,107.00000151991844c0,3.866,-3.134,7,-7,7H804.0000111609697c-3.866,0,-7,-3.134,-7,-7V104.00000151991844c0,-3.866,3.134,-7,7,-7h6c3.866,0,7,3.134,7,7V107.00000151991844z" opacity="0.8"></path><text id="kity_text_290" text-rendering="geometricPrecision" x="806.0000111535192" y="106.50000151246786" text-anchor="middle" font-style="italic" font-size="12" fill="white" dy="5">1</text></g></g><g id="minder_node30"><g id="node_expander28" display="none" style="cursor: pointer;"><path id="kity_path_443" fill="white" stroke="gray" d="M804.5000111833215,143.50000221282244A6,6,0,1,1,792.5000111833215,143.50000221282244A6,6,0,1,1,804.5000111833215,143.50000221282244"></path><path id="kity_path_444" fill="none" stroke="gray"></path></g><path id="node_outline29" fill="none" stroke="none" d="M809.5000113472342,134.50000221282244h193a5,5,0,0,1,5,5v8a5,5,0,0,1,-5,5h-193a5,5,0,0,1,-5,-5v-8a5,5,0,0,1,5,-5z"></path><g id="node_text29" fill="black"><text id="kity_text_208" text-rendering="inherit" font-size="12" dy=".8em" y="135.70000218600035" x="809.5000113472342">用户的注意力成为被科技竞争的对象</text></g></g><g id="minder_node31"><g id="node_expander36" style="cursor: pointer;"><path id="kity_path_467" fill="white" stroke="gray" d="M804.5000111833215,169.50000260025263A6,6,0,1,1,792.5000111833215,169.50000260025263A6,6,0,1,1,804.5000111833215,169.50000260025263"></path><path id="kity_path_468" fill="none" stroke="gray" d="M794.0000111833215,169.50000260025263L803.0000111833215,169.50000260025263"></path></g><path id="node_outline37" fill="#8db3e2" stroke="none" d="M809.5000113472342,160.50000260025263h87a5,5,0,0,1,5,5v8a5,5,0,0,1,-5,5h-87a5,5,0,0,1,-5,-5v-8a5,5,0,0,1,5,-5z"></path><g id="node_text37" fill="#ffffff"><text id="kity_text_224" text-rendering="inherit" font-family="微软雅黑,Microsoft YaHei" font-size="12" dy=".8em" font-weight="bold" y="161.70000257343054" x="809.5000113472342">上瘾 Addiction</text></g></g><g id="minder_node32"><g id="node_expander32" style="cursor: pointer;"><path id="kity_path_455" fill="white" stroke="gray" d="M832.500011600554,195.50000298768282A6,6,0,1,1,820.500011600554,195.50000298768282A6,6,0,1,1,832.500011600554,195.50000298768282"></path><path id="kity_path_456" fill="none" stroke="gray" d="M822.000011600554,195.50000298768282L831.000011600554,195.50000298768282"></path></g><path id="node_outline33" fill="none" stroke="none" d="M837.5000117644668,186.50000298768282h60a5,5,0,0,1,5,5v8a5,5,0,0,1,-5,5h-60a5,5,0,0,1,-5,-5v-8a5,5,0,0,1,5,-5z"></path><g id="node_text33" fill="black"><text id="kity_text_216" text-rendering="inherit" font-size="12" dy=".8em" y="187.70000296086073" x="837.5000117644668">上瘾的原因</text></g></g><g id="minder_node33"><g id="node_expander29" display="none" style="cursor: pointer;"><path id="kity_path_446" fill="white" stroke="gray" d="M860.5000120177865,221.500003375113A6,6,0,1,1,848.5000120177865,221.500003375113A6,6,0,1,1,860.5000120177865,221.500003375113"></path><path id="kity_path_447" fill="none" stroke="gray"></path></g><path id="node_outline30" fill="none" stroke="none" d="M865.5000121816993,212.500003375113h193a5,5,0,0,1,5,5v8a5,5,0,0,1,-5,5h-193a5,5,0,0,1,-5,-5v-8a5,5,0,0,1,5,-5z"></path><g id="node_text30" fill="black"><text id="kity_text_210" text-rendering="inherit" font-size="12" dy=".8em" y="213.70000334829092" x="865.5000121816993">与外界失联，缺少和外界健康的依赖</text></g></g><g id="minder_node34"><g id="node_expander30" display="none" style="cursor: pointer;"><path id="kity_path_449" fill="white" stroke="gray" d="M860.5000120177865,247.5000037625432A6,6,0,1,1,848.5000120177865,247.5000037625432A6,6,0,1,1,860.5000120177865,247.5000037625432"></path><path id="kity_path_450" fill="none" stroke="gray"></path></g><path id="node_outline31" fill="none" stroke="none" d="M865.5000121816993,238.5000037625432h120a5,5,0,0,1,5,5v8a5,5,0,0,1,-5,5h-120a5,5,0,0,1,-5,-5v-8a5,5,0,0,1,5,-5z"></path><g id="node_text31" fill="black"><text id="kity_text_212" text-rendering="inherit" font-size="12" dy=".8em" y="239.7000037357211" x="865.5000121816993">用户对现实生活的无奈</text></g></g><g id="minder_node35"><g id="node_expander31" display="none" style="cursor: pointer;"><path id="kity_path_452" fill="white" stroke="gray" d="M860.5000120177865,273.5000041499734A6,6,0,1,1,848.5000120177865,273.5000041499734A6,6,0,1,1,860.5000120177865,273.5000041499734"></path><path id="kity_path_453" fill="none" stroke="gray"></path></g><path id="node_outline32" fill="none" stroke="none" d="M865.5000121816993,264.5000041499734h108a5,5,0,0,1,5,5v8a5,5,0,0,1,-5,5h-108a5,5,0,0,1,-5,-5v-8a5,5,0,0,1,5,-5z"></path><g id="node_text32" fill="black"><text id="kity_text_214" text-rendering="inherit" font-size="12" dy=".8em" y="265.7000041231513" x="865.5000121816993">上瘾是对环境的适应</text></g></g><g id="minder_node36"><g id="node_expander35" style="cursor: pointer;"><path id="kity_path_464" fill="white" stroke="gray" d="M832.500011600554,299.5000045374036A6,6,0,1,1,820.500011600554,299.5000045374036A6,6,0,1,1,832.500011600554,299.5000045374036"></path><path id="kity_path_465" fill="none" stroke="gray" d="M822.000011600554,299.5000045374036L831.000011600554,299.5000045374036"></path></g><path id="node_outline36" fill="none" stroke="none" d="M837.5000117644668,290.5000045374036h74a5,5,0,0,1,5,5v8a5,5,0,0,1,-5,5h-74a5,5,0,0,1,-5,-5v-8a5,5,0,0,1,5,-5z"></path><g id="node_text36" fill="black"><text id="kity_text_222" text-rendering="inherit" font-size="12" dy=".8em" y="291.7000045105815" x="837.5000117644668">如何摆脱上瘾</text></g></g><g id="minder_node37"><g id="node_expander33" display="none" style="cursor: pointer;"><path id="kity_path_458" fill="white" stroke="gray" d="M860.5000120177865,325.5000049248338A6,6,0,1,1,848.5000120177865,325.5000049248338A6,6,0,1,1,860.5000120177865,325.5000049248338"></path><path id="kity_path_459" fill="none" stroke="gray"></path></g><path id="node_outline34" fill="none" stroke="none" d="M865.5000121816993,316.5000049248338h109a5,5,0,0,1,5,5v8a5,5,0,0,1,-5,5h-109a5,5,0,0,1,-5,-5v-8a5,5,0,0,1,5,-5z"></path><g id="node_text34" fill="black"><text id="kity_text_218" text-rendering="inherit" font-size="12" dy=".8em" y="317.7000048980117" x="865.5000121816993">”停止信号”的屏幕</text></g></g><g id="minder_node38"><g id="node_expander34" display="none" style="cursor: pointer;"><path id="kity_path_461" fill="white" stroke="gray" d="M860.5000120177865,351.50000531226397A6,6,0,1,1,848.5000120177865,351.50000531226397A6,6,0,1,1,860.5000120177865,351.50000531226397"></path><path id="kity_path_462" fill="none" stroke="gray"></path></g><path id="node_outline35" fill="none" stroke="none" d="M865.5000121816993,342.50000531226397h349a5,5,0,0,1,5,5v8a5,5,0,0,1,-5,5h-349a5,5,0,0,1,-5,-5v-8a5,5,0,0,1,5,-5z"></path><g id="node_text35" fill="black"><text id="kity_text_220" text-rendering="inherit" font-size="12" dy=".8em" y="343.7000052854419" x="865.5000121816993">联系是上瘾的对立面，应该把时间和注意力放在我们关心的事情上</text></g></g><g id="minder_node39"><g id="node_expander38" style="cursor: pointer;"><path id="kity_path_473" fill="white" stroke="gray" d="M804.5000111833215,377.50000569969416A6,6,0,1,1,792.5000111833215,377.50000569969416A6,6,0,1,1,804.5000111833215,377.50000569969416"></path><path id="kity_path_474" fill="none" stroke="gray" d="M794.0000111833215,377.50000569969416L803.0000111833215,377.50000569969416"></path></g><path id="node_outline39" fill="none" stroke="none" d="M809.5000113472342,368.50000569969416h25a5,5,0,0,1,5,5v8a5,5,0,0,1,-5,5h-25a5,5,0,0,1,-5,-5v-8a5,5,0,0,1,5,-5z"></path><g id="node_text39" fill="black"><text id="kity_text_228" text-rendering="inherit" font-size="12" dy=".8em" y="369.70000567287207" x="809.5000113472342">危害</text></g></g><g id="minder_node40"><g id="node_expander37" display="none" style="cursor: pointer;"><path id="kity_path_470" fill="white" stroke="gray" d="M832.500011600554,403.50000608712435A6,6,0,1,1,820.500011600554,403.50000608712435A6,6,0,1,1,832.500011600554,403.50000608712435"></path><path id="kity_path_471" fill="none" stroke="gray"></path></g><path id="node_outline38" fill="none" stroke="none" d="M837.5000117644668,394.50000608712435h354a5,5,0,0,1,5,5v8a5,5,0,0,1,-5,5h-354a5,5,0,0,1,-5,-5v-8a5,5,0,0,1,5,-5z"></path><g id="node_text38" fill="black"><text id="kity_text_226" text-rendering="inherit" font-size="12" dy=".8em" y="395.70000606030226" x="837.5000117644668">兴奋成瘾 eg：过量获取色情片的新渠道是男性群体衰落的重要原因 </text></g></g><g id="minder_node41"><g id="node_expander53" style="cursor: pointer;"><path id="kity_path_518" fill="white" stroke="gray" d="M1367.5000195726752,83.50000131875277A6,6,0,1,1,1355.5000195726752,83.50000131875277A6,6,0,1,1,1367.5000195726752,83.50000131875277"></path><path id="kity_path_519" fill="none" stroke="gray" d="M1357.0000195726752,83.50000131875277L1366.0000195726752,83.50000131875277"></path></g><path id="node_outline54" fill="#8db3e2" stroke="rgb(115, 161, 191)" d="M1238.5000183656812,90.50000166147947h246a3,3,0,0,1,3,3v26a3,3,0,0,1,-3,3h-246a3,3,0,0,1,-3,-3v-26a3,3,0,0,1,3,-3z" stroke-width="1"></path><g id="node_text54" fill="#ffffff"><text id="kity_text_259" text-rendering="inherit" font-family="微软雅黑,Microsoft YaHei" font-size="14" dy=".8em" font-weight="bold" y="97.40000163018703" x="1280.5000183656812">情感化设计 Emotion Design</text></g><g id="node_priority4"><path id="kity_path_293" fill="#840023" stroke="none" d="M1256.0000180006027,110.00000151991844c0,3.866,3.134,7,7,7h6c3.866,0,7,-3.134,7,-7V104.00000151991844H1256.0000180006027V110.00000151991844z"></path><path id="kity_path_294" fill="#FF1200" stroke="none" d="M1276.0000180006027,107.00000151991844c0,3.866,-3.134,7,-7,7H1263.0000180006027c-3.866,0,-7,-3.134,-7,-7V104.00000151991844c0,-3.866,3.134,-7,7,-7h6c3.866,0,7,3.134,7,7V107.00000151991844z" opacity="0.8"></path><text id="kity_text_295" text-rendering="geometricPrecision" x="1265.0000179931521" y="106.50000151246786" text-anchor="middle" font-style="italic" font-size="12" fill="white" dy="5">1</text></g></g><g id="minder_node42"><g id="node_expander43" style="cursor: pointer;"><path id="kity_path_488" fill="white" stroke="gray" d="M1263.5000180229545,143.50000221282244A6,6,0,1,1,1251.5000180229545,143.50000221282244A6,6,0,1,1,1263.5000180229545,143.50000221282244"></path><path id="kity_path_489" fill="none" stroke="gray" d="M1253.0000180229545,143.50000221282244L1262.0000180229545,143.50000221282244"></path></g><path id="node_outline44" fill="none" stroke="none" d="M1268.5000181868672,134.50000221282244h49a5,5,0,0,1,5,5v8a5,5,0,0,1,-5,5h-49a5,5,0,0,1,-5,-5v-8a5,5,0,0,1,5,-5z"></path><g id="node_text44" fill="black"><text id="kity_text_238" text-rendering="inherit" font-size="12" dy=".8em" y="135.70000218600035" x="1268.5000181868672">三个层次</text></g></g><g id="minder_node43"><g id="node_expander40" display="none" style="cursor: pointer;"><path id="kity_path_479" fill="white" stroke="gray" d="M1291.500018440187,169.50000260025263A6,6,0,1,1,1279.500018440187,169.50000260025263A6,6,0,1,1,1291.500018440187,169.50000260025263"></path><path id="kity_path_480" fill="none" stroke="gray"></path></g><path id="node_outline41" fill="none" stroke="none" d="M1296.5000186040998,160.50000260025263h25a5,5,0,0,1,5,5v8a5,5,0,0,1,-5,5h-25a5,5,0,0,1,-5,-5v-8a5,5,0,0,1,5,-5z"></path><g id="node_text41" fill="black"><text id="kity_text_232" text-rendering="inherit" font-size="12" dy=".8em" y="161.70000257343054" x="1296.5000186040998">本能</text></g></g><g id="minder_node44"><g id="node_expander41" display="none" style="cursor: pointer;"><path id="kity_path_482" fill="white" stroke="gray" d="M1291.500018440187,195.50000298768282A6,6,0,1,1,1279.500018440187,195.50000298768282A6,6,0,1,1,1291.500018440187,195.50000298768282"></path><path id="kity_path_483" fill="none" stroke="gray"></path></g><path id="node_outline42" fill="none" stroke="none" d="M1296.5000186040998,186.50000298768282h25a5,5,0,0,1,5,5v8a5,5,0,0,1,-5,5h-25a5,5,0,0,1,-5,-5v-8a5,5,0,0,1,5,-5z"></path><g id="node_text42" fill="black"><text id="kity_text_234" text-rendering="inherit" font-size="12" dy=".8em" y="187.70000296086073" x="1296.5000186040998">行为</text></g></g><g id="minder_node45"><g id="node_expander42" display="none" style="cursor: pointer;"><path id="kity_path_485" fill="white" stroke="gray" d="M1291.500018440187,221.500003375113A6,6,0,1,1,1279.500018440187,221.500003375113A6,6,0,1,1,1291.500018440187,221.500003375113"></path><path id="kity_path_486" fill="none" stroke="gray"></path></g><path id="node_outline43" fill="none" stroke="none" d="M1296.5000186040998,212.500003375113h26a5,5,0,0,1,5,5v8a5,5,0,0,1,-5,5h-26a5,5,0,0,1,-5,-5v-8a5,5,0,0,1,5,-5z"></path><g id="node_text43" fill="black"><text id="kity_text_236" text-rendering="inherit" font-size="12" dy=".8em" y="213.70000334829092" x="1296.5000186040998">反思</text></g></g><g id="minder_node46"><g id="node_expander45" style="cursor: pointer;"><path id="kity_path_494" fill="white" stroke="gray" d="M1263.5000180229545,256.50000389665365A6,6,0,1,1,1251.5000180229545,256.50000389665365A6,6,0,1,1,1263.5000180229545,256.50000389665365"></path><path id="kity_path_495" fill="none" stroke="gray" d="M1253.0000180229545,256.50000389665365L1262.0000180229545,256.50000389665365"></path></g><path id="node_outline46" fill="#8db3e2" stroke="none" d="M1268.5000181868672,238.50000389665365h121a5,5,0,0,1,5,5v26a5,5,0,0,1,-5,5h-121a5,5,0,0,1,-5,-5v-26a5,5,0,0,1,5,-5z"></path><g id="node_text46" fill="#ffffff"><text id="kity_text_242" text-rendering="inherit" font-family="微软雅黑,Microsoft YaHei" font-size="12" dy=".8em" font-weight="bold" y="239.70000386983156" x="1268.5000181868672">积极心理学&#xa0;</text><text id="kity_text_243" text-rendering="inherit" font-family="微软雅黑,Microsoft YaHei" font-size="12" dy=".8em" font-weight="bold" y="257.70000386983156" x="1268.5000181868672">Positive Psychology</text></g></g><g id="minder_node47"><g id="node_expander44" display="none" style="cursor: pointer;"><path id="kity_path_491" fill="white" stroke="gray" d="M1291.500018440187,291.5000044181943A6,6,0,1,1,1279.500018440187,291.5000044181943A6,6,0,1,1,1291.500018440187,291.5000044181943"></path><path id="kity_path_492" fill="none" stroke="gray"></path></g><path id="node_outline45" fill="none" stroke="none" d="M1296.5000186040998,282.5000044181943h49a5,5,0,0,1,5,5v8a5,5,0,0,1,-5,5h-49a5,5,0,0,1,-5,-5v-8a5,5,0,0,1,5,-5z"></path><g id="node_text45" fill="black"><text id="kity_text_240" text-rendering="inherit" font-size="12" dy=".8em" y="283.7000043913722" x="1296.5000186040998">三个目标</text></g></g><g id="minder_node48"><g id="node_expander49" style="cursor: pointer;"><path id="kity_path_506" fill="white" stroke="gray" d="M1263.5000180229545,317.5000048056245A6,6,0,1,1,1251.5000180229545,317.5000048056245A6,6,0,1,1,1263.5000180229545,317.5000048056245"></path><path id="kity_path_507" fill="none" stroke="gray" d="M1253.0000180229545,317.5000048056245L1262.0000180229545,317.5000048056245"></path></g><path id="node_outline50" fill="none" stroke="none" d="M1268.5000181868672,308.5000048056245h84a5,5,0,0,1,5,5v8a5,5,0,0,1,-5,5h-84a5,5,0,0,1,-5,-5v-8a5,5,0,0,1,5,-5z"></path><g id="node_text50" fill="black"><text id="kity_text_251" text-rendering="inherit" font-size="12" dy=".8em" y="309.7000047788024" x="1268.5000181868672">幽默地揭示真相</text></g></g><g id="minder_node49"><g id="node_expander46" display="none" style="cursor: pointer;"><path id="kity_path_497" fill="white" stroke="gray" d="M1291.500018440187,343.5000051930547A6,6,0,1,1,1279.500018440187,343.5000051930547A6,6,0,1,1,1291.500018440187,343.5000051930547"></path><path id="kity_path_498" fill="none" stroke="gray"></path></g><path id="node_outline47" fill="none" stroke="none" d="M1296.5000186040998,334.5000051930547h228a5,5,0,0,1,5,5v8a5,5,0,0,1,-5,5h-228a5,5,0,0,1,-5,-5v-8a5,5,0,0,1,5,-5z"></path><g id="node_text47" fill="black"><text id="kity_text_245" text-rendering="inherit" font-size="12" dy=".8em" y="335.7000051662326" x="1296.5000186040998">世界上最危险的事情就是没有幽默感的权力</text></g></g><g id="minder_node50"><g id="node_expander47" display="none" style="cursor: pointer;"><path id="kity_path_500" fill="white" stroke="gray" d="M1291.500018440187,369.50000558048487A6,6,0,1,1,1279.500018440187,369.50000558048487A6,6,0,1,1,1291.500018440187,369.50000558048487"></path><path id="kity_path_501" fill="none" stroke="gray"></path></g><path id="node_outline48" fill="none" stroke="none" d="M1296.5000186040998,360.50000558048487h253a5,5,0,0,1,5,5v8a5,5,0,0,1,-5,5h-253a5,5,0,0,1,-5,-5v-8a5,5,0,0,1,5,-5z"></path><g id="node_text48" fill="black"><text id="kity_text_247" text-rendering="inherit" font-size="12" dy=".8em" y="361.7000055536628" x="1296.5000186040998">漫画可以变成政治武器，漫画的力量要恰当使用</text></g></g><g id="minder_node51"><g id="node_expander48" display="none" style="cursor: pointer;"><path id="kity_path_503" fill="white" stroke="gray" d="M1291.500018440187,395.50000596791506A6,6,0,1,1,1279.500018440187,395.50000596791506A6,6,0,1,1,1291.500018440187,395.50000596791506"></path><path id="kity_path_504" fill="none" stroke="gray"></path></g><path id="node_outline49" fill="none" stroke="none" d="M1296.5000186040998,386.50000596791506h324a5,5,0,0,1,5,5v8a5,5,0,0,1,-5,5h-324a5,5,0,0,1,-5,-5v-8a5,5,0,0,1,5,-5z"></path><g id="node_text49" fill="black"><text id="kity_text_249" text-rendering="inherit" font-size="12" dy=".8em" y="387.70000594109297" x="1296.5000186040998">单独靠严肃去解决有争议的问题，不如配合巧妙的嘲笑更有力</text></g></g><g id="minder_node52"><g id="node_expander52" style="cursor: pointer;"><path id="kity_path_515" fill="white" stroke="gray" d="M1263.5000180229545,421.50000635534525A6,6,0,1,1,1251.5000180229545,421.50000635534525A6,6,0,1,1,1263.5000180229545,421.50000635534525"></path><path id="kity_path_516" fill="none" stroke="gray" d="M1253.0000180229545,421.50000635534525L1262.0000180229545,421.50000635534525"></path></g><path id="node_outline53" fill="#8db3e2" stroke="none" d="M1268.5000181868672,412.50000635534525h64a5,5,0,0,1,5,5v8a5,5,0,0,1,-5,5h-64a5,5,0,0,1,-5,-5v-8a5,5,0,0,1,5,-5z"></path><g id="node_text53" fill="#ffffff"><text id="kity_text_257" text-rendering="inherit" font-family="微软雅黑,Microsoft YaHei" font-size="12" dy=".8em" font-weight="bold" y="413.70000632852316" x="1268.5000181868672">情绪 Mood</text></g></g><g id="minder_node53"><g id="node_expander50" display="none" style="cursor: pointer;"><path id="kity_path_509" fill="white" stroke="gray" d="M1291.500018440187,447.50000674277544A6,6,0,1,1,1279.500018440187,447.50000674277544A6,6,0,1,1,1291.500018440187,447.50000674277544"></path><path id="kity_path_510" fill="none" stroke="gray"></path></g><path id="node_outline51" fill="none" stroke="none" d="M1296.5000186040998,438.50000674277544h301a5,5,0,0,1,5,5v8a5,5,0,0,1,-5,5h-301a5,5,0,0,1,-5,-5v-8a5,5,0,0,1,5,-5z"></path><g id="node_text51" fill="black"><text id="kity_text_253" text-rendering="inherit" font-size="12" dy=".8em" y="439.70000671595335" x="1296.5000186040998">情绪并不是人类天生就具有的，而是根据后天经验构建的</text></g></g><g id="minder_node54"><g id="node_expander51" display="none" style="cursor: pointer;"><path id="kity_path_512" fill="white" stroke="gray" d="M1291.500018440187,473.50000713020563A6,6,0,1,1,1279.500018440187,473.50000713020563A6,6,0,1,1,1291.500018440187,473.50000713020563"></path><path id="kity_path_513" fill="none" stroke="gray"></path></g><path id="node_outline52" fill="none" stroke="none" d="M1296.5000186040998,464.50000713020563h301a5,5,0,0,1,5,5v8a5,5,0,0,1,-5,5h-301a5,5,0,0,1,-5,-5v-8a5,5,0,0,1,5,-5z"></path><g id="node_text52" fill="black"><text id="kity_text_255" text-rendering="inherit" font-size="12" dy=".8em" y="465.70000710338354" x="1296.5000186040998">我们要从情绪中挖掘出有价值的信息，而不是被情绪控制</text></g></g><g id="minder_node55"><g id="node_expander60" style="cursor: pointer;"><path id="kity_path_539" fill="white" stroke="gray" d="M1780.0000257194042,83.50000131875277A6,6,0,1,1,1768.0000257194042,83.50000131875277A6,6,0,1,1,1780.0000257194042,83.50000131875277"></path><path id="kity_path_540" fill="none" stroke="gray" d="M1769.5000257194042,83.50000131875277L1778.5000257194042,83.50000131875277"></path></g><path id="node_outline61" fill="#8db3e2" stroke="rgb(115, 161, 191)" d="M1644.5000244155526,90.50000166147947h259a3,3,0,0,1,3,3v26a3,3,0,0,1,-3,3h-259a3,3,0,0,1,-3,-3v-26a3,3,0,0,1,3,-3z" stroke-width="1"></path><g id="node_text61" fill="#ffffff"><text id="kity_text_274" text-rendering="inherit" font-family="微软雅黑,Microsoft YaHei" font-size="14" dy=".8em" font-weight="bold" y="97.40000163018703" x="1686.5000244155526">可持续设计&#xa0;Sustainble Design</text></g><g id="node_priority5"><path id="kity_path_298" fill="#840023" stroke="none" d="M1662.0000240504742,110.00000151991844c0,3.866,3.134,7,7,7h6c3.866,0,7,-3.134,7,-7V104.00000151991844H1662.0000240504742V110.00000151991844z"></path><path id="kity_path_299" fill="#FF1200" stroke="none" d="M1682.0000240504742,107.00000151991844c0,3.866,-3.134,7,-7,7H1669.0000240504742c-3.866,0,-7,-3.134,-7,-7V104.00000151991844c0,-3.866,3.134,-7,7,-7h6c3.866,0,7,3.134,7,7V107.00000151991844z" opacity="0.8"></path><text id="kity_text_300" text-rendering="geometricPrecision" x="1671.0000240430236" y="106.50000151246786" text-anchor="middle" font-style="italic" font-size="12" fill="white" dy="5">1</text></g></g><g id="minder_node56"><g id="node_expander59" style="cursor: pointer;"><path id="kity_path_536" fill="white" stroke="gray" d="M1669.500024072826,143.50000221282244A6,6,0,1,1,1657.500024072826,143.50000221282244A6,6,0,1,1,1669.500024072826,143.50000221282244"></path><path id="kity_path_537" fill="none" stroke="gray" d="M1659.000024072826,143.50000221282244L1668.000024072826,143.50000221282244"></path></g><path id="node_outline60" fill="none" stroke="none" d="M1674.5000242367387,134.50000221282244h68a5,5,0,0,1,5,5v8a5,5,0,0,1,-5,5h-68a5,5,0,0,1,-5,-5v-8a5,5,0,0,1,5,-5z"></path><g id="node_text60" fill="black"><text id="kity_text_272" text-rendering="inherit" font-size="12" dy=".8em" y="135.70000218600035" x="1674.5000242367387">5项变革策略</text></g></g><g id="minder_node57"><g id="node_expander54" display="none" style="cursor: pointer;"><path id="kity_path_521" fill="white" stroke="gray" d="M1697.5000244900584,169.50000260025263A6,6,0,1,1,1685.5000244900584,169.50000260025263A6,6,0,1,1,1697.5000244900584,169.50000260025263"></path><path id="kity_path_522" fill="none" stroke="gray"></path></g><path id="node_outline55" fill="none" stroke="none" d="M1702.5000246539712,160.50000260025263h97a5,5,0,0,1,5,5v8a5,5,0,0,1,-5,5h-97a5,5,0,0,1,-5,-5v-8a5,5,0,0,1,5,-5z"></path><g id="node_text55" fill="black"><text id="kity_text_261" text-rendering="inherit" font-size="12" dy=".8em" y="161.70000257343054" x="1702.5000246539712">建立全球能源民主</text></g></g><g id="minder_node58"><g id="node_expander55" display="none" style="cursor: pointer;"><path id="kity_path_524" fill="white" stroke="gray" d="M1697.5000244900584,195.50000298768282A6,6,0,1,1,1685.5000244900584,195.50000298768282A6,6,0,1,1,1697.5000244900584,195.50000298768282"></path><path id="kity_path_525" fill="none" stroke="gray"></path></g><path id="node_outline56" fill="none" stroke="none" d="M1702.5000246539712,186.50000298768282h148a5,5,0,0,1,5,5v8a5,5,0,0,1,-5,5h-148a5,5,0,0,1,-5,-5v-8a5,5,0,0,1,5,-5z"></path><g id="node_text56" fill="black"><text id="kity_text_263" text-rendering="inherit" font-size="12" dy=".8em" y="187.70000296086073" x="1702.5000246539712">可持续食物系统的 快速转变</text></g></g><g id="minder_node59"><g id="node_expander56" display="none" style="cursor: pointer;"><path id="kity_path_527" fill="white" stroke="gray" d="M1697.5000244900584,221.500003375113A6,6,0,1,1,1685.5000244900584,221.500003375113A6,6,0,1,1,1697.5000244900584,221.500003375113"></path><path id="kity_path_528" fill="none" stroke="gray"></path></g><path id="node_outline57" fill="none" stroke="none" d="M1702.5000246539712,212.500003375113h73a5,5,0,0,1,5,5v8a5,5,0,0,1,-5,5h-73a5,5,0,0,1,-5,-5v-8a5,5,0,0,1,5,-5z"></path><g id="node_text57" fill="black"><text id="kity_text_265" text-rendering="inherit" font-size="12" dy=".8em" y="213.70000334829092" x="1702.5000246539712">改变发展策略</text></g></g><g id="minder_node60"><g id="node_expander57" display="none" style="cursor: pointer;"><path id="kity_path_530" fill="white" stroke="gray" d="M1697.5000244900584,247.5000037625432A6,6,0,1,1,1685.5000244900584,247.5000037625432A6,6,0,1,1,1697.5000244900584,247.5000037625432"></path><path id="kity_path_531" fill="none" stroke="gray"></path></g><path id="node_outline58" fill="none" stroke="none" d="M1702.5000246539712,238.5000037625432h73a5,5,0,0,1,5,5v8a5,5,0,0,1,-5,5h-73a5,5,0,0,1,-5,-5v-8a5,5,0,0,1,5,-5z"></path><g id="node_text58" fill="black"><text id="kity_text_267" text-rendering="inherit" font-size="12" dy=".8em" y="239.7000037357211" x="1702.5000246539712">重新分配财富</text></g></g><g id="minder_node61"><g id="node_expander58" display="none" style="cursor: pointer;"><path id="kity_path_533" fill="white" stroke="gray" d="M1697.5000244900584,282.50000428408384A6,6,0,1,1,1685.5000244900584,282.50000428408384A6,6,0,1,1,1697.5000244900584,282.50000428408384"></path><path id="kity_path_534" fill="none" stroke="gray"></path></g><path id="node_outline59" fill="none" stroke="none" d="M1702.5000246539712,264.50000428408384h217a5,5,0,0,1,5,5v26a5,5,0,0,1,-5,5h-217a5,5,0,0,1,-5,-5v-26a5,5,0,0,1,5,-5z"></path><g id="node_text59" fill="black"><text id="kity_text_269" text-rendering="inherit" font-size="12" dy=".8em" y="265.70000425726175" x="1702.5000246539712">增加 更多投入到教育，健康，</text><text id="kity_text_270" text-rendering="inherit" font-size="12" dy=".8em" y="283.70000425726175" x="1702.5000246539712"> 就业机会，节育，加大对全球女性的投资</text></g></g></g></g></svg>