<svg id="kity_svg_6" xmlns="http://www.w3.org/2000/svg" xmlns:xlink="http://www.w3.org/1999/xlink" version="1.1" width="1153" height="364" style="background: rgb(251, 251, 251); visibility: visible;" viewBox="0 0 1153 364"><defs id="kity_defs_7"><linearGradient id="kity_linearGradient_17" x1="0" y1="0" x2="0" y2="1"><stop id="kity_stop_18" offset="0" stop-color="rgb(255, 255, 255)"></stop><stop id="kity_stop_19" offset="1" stop-color="rgb(204, 204, 204)"></stop></linearGradient><marker id="kity_marker_2" orient="auto" refX="6" refY="0" viewBox="-7 -7 14 14" markerWidth="7" markerHeight="7" markerUnits="userSpaceOnUse"><path id="kity_path_3" fill="rgb(115, 161, 191)" stroke="none" d="M6,0A6,6,0,1,1,-6,0A6,6,0,1,1,6,0"></path></marker></defs><g id="kity_g_8"><g id="minder1" text-rendering="optimize-speed"><g id="minder_connect_group1"><path id="kity_path_31" fill="none" stroke="rgb(115, 161, 191)" stroke-width="1" d="M551.5000114366412,72.50000201910734v10h-451V90.50000201910734"></path><path id="kity_path_33" fill="none" stroke="rgb(115, 161, 191)" stroke-width="1" d="M40.500011436641216,122.50000201910734V152.50000201910734L48.500011436641216,152.50000201910734"></path><path id="kity_path_35" fill="none" stroke="rgb(115, 161, 191)" stroke-width="1" d="M68.50001143664122,170.50000201910734V187.50000201910734L76.50001143664122,187.50000201910734"></path><path id="kity_path_37" fill="none" stroke="rgb(115, 161, 191)" stroke-width="1" d="M68.50001143664122,170.50000201910734V213.50000201910734L76.50001143664122,213.50000201910734"></path><path id="kity_path_39" fill="none" stroke="rgb(115, 161, 191)" stroke-width="1" d="M68.50001143664122,170.50000201910734V239.50000201910734L76.50001143664122,239.50000201910734"></path><path id="kity_path_41" fill="none" stroke="rgb(115, 161, 191)" stroke-width="1" d="M40.500011436641216,122.50000201910734V265.50000201910734L48.500011436641216,265.50000201910734"></path><path id="kity_path_43" fill="none" stroke="rgb(115, 161, 191)" stroke-width="1" d="M68.50001143664122,274.50000201910734V300.50000201910734L76.50001143664122,300.50000201910734"></path><path id="kity_path_45" fill="none" stroke="rgb(115, 161, 191)" stroke-width="1" d="M68.50001143664122,274.50000201910734V335.50000201910734L76.50001143664122,335.50000201910734"></path><path id="kity_path_47" fill="none" stroke="rgb(115, 161, 191)" stroke-width="1" d="M551.5000114366412,72.50000201910734v10h-190V90.50000201910734"></path><path id="kity_path_49" fill="none" stroke="rgb(115, 161, 191)" stroke-width="1" d="M316.5000114366412,122.50000201910734V152.50000201910734L324.5000114366412,152.50000201910734"></path><path id="kity_path_51" fill="none" stroke="rgb(115, 161, 191)" stroke-width="1" d="M344.5000114366412,170.50000201910734V187.50000201910734L352.5000114366412,187.50000201910734"></path><path id="kity_path_53" fill="none" stroke="rgb(115, 161, 191)" stroke-width="1" d="M316.5000114366412,122.50000201910734V213.50000201910734L324.5000114366412,213.50000201910734"></path><path id="kity_path_55" fill="none" stroke="rgb(115, 161, 191)" stroke-width="1" d="M344.5000114366412,222.50000201910734V239.50000201910734L352.5000114366412,239.50000201910734"></path><path id="kity_path_57" fill="none" stroke="rgb(115, 161, 191)" stroke-width="1" d="M551.5000114366412,72.50000201910734v10h-14V90.50000201910734"></path><path id="kity_path_59" fill="none" stroke="rgb(115, 161, 191)" stroke-width="1" d="M491.5000114366412,122.50000201910734V143.50000201910734L499.5000114366412,143.50000201910734"></path><path id="kity_path_61" fill="none" stroke="rgb(115, 161, 191)" stroke-width="1" d="M519.5000114366412,152.50000201910734V169.50000201910734L527.5000114366412,169.50000201910734"></path><path id="kity_path_63" fill="none" stroke="rgb(115, 161, 191)" stroke-width="1" d="M491.5000114366412,122.50000201910734V195.50000201910734L499.5000114366412,195.50000201910734"></path><path id="kity_path_65" fill="none" stroke="rgb(115, 161, 191)" stroke-width="1" d="M519.5000114366412,204.50000201910734V221.50000201910734L527.5000114366412,221.50000201910734"></path><path id="kity_path_67" fill="none" stroke="rgb(115, 161, 191)" stroke-width="1" d="M519.5000114366412,204.50000201910734V247.50000201910734L527.5000114366412,247.50000201910734"></path><path id="kity_path_69" fill="none" stroke="rgb(115, 161, 191)" stroke-width="1" d="M491.5000114366412,122.50000201910734V273.50000201910734L499.5000114366412,273.50000201910734"></path><path id="kity_path_71" fill="none" stroke="rgb(115, 161, 191)" stroke-width="1" d="M519.5000114366412,282.50000201910734V317.50000201910734L527.5000114366412,317.50000201910734"></path><path id="kity_path_73" fill="none" stroke="rgb(115, 161, 191)" stroke-width="1" d="M551.5000114366412,72.50000201910734v10h441.5V90.50000201910734"></path><path id="kity_path_75" fill="none" stroke="rgb(115, 161, 191)" stroke-width="1" d="M922.5000114366412,122.50000201910734V143.50000201910734L930.5000114366412,143.50000201910734"></path><path id="kity_path_77" fill="none" stroke="rgb(115, 161, 191)" stroke-width="1" d="M922.5000114366412,122.50000201910734V169.50000201910734L930.5000114366412,169.50000201910734"></path><path id="kity_path_79" fill="none" stroke="rgb(115, 161, 191)" stroke-width="1" d="M950.5000114366412,178.50000201910734V195.50000201910734L958.5000114366412,195.50000201910734"></path><path id="kity_path_81" fill="none" stroke="rgb(115, 161, 191)" stroke-width="1" d="M950.5000114366412,178.50000201910734V221.50000201910734L958.5000114366412,221.50000201910734"></path></g><g id="minder_node1"><path id="node_outline1" fill="#8db3e2" stroke="rgb(115, 161, 191)" d="M396.5000114366412,20.50000201910734h309a5,5,0,0,1,5,5v42a5,5,0,0,1,-5,5h-309a5,5,0,0,1,-5,-5v-42a5,5,0,0,1,5,-5z" stroke-width="3"></path><g id="node_text1" fill="#ffffff"><text id="kity_text_22" text-rendering="inherit" font-size="16" dy=".8em" y="24.100001983344555" font-family="微软雅黑,Microsoft YaHei" font-weight="bold" x="403.5000114366412">科技、娱乐、设计</text><text id="kity_text_271" text-rendering="inherit" font-family="微软雅黑,Microsoft YaHei" font-size="16" dy=".8em" font-weight="bold" y="48.100001983344555" x="403.5000114366412">https://koujii.github.io/TED/TED.svg</text></g></g><g id="kity_g_14" display="none"><path id="kity_path_15" fill="rgba(0, 92, 153, 0.5)" stroke="none" d="M248.50001143664122,78.50000201910734h8v32h-8z"></path><path id="kity_path_16" fill="none" stroke="rgb(0, 76, 128)" d="M248.50001143664122,78.50000201910734L248.50001143664122,110.50000201910734" stroke-width="1"></path></g><g id="minder_node2"><g id="node_expander8" style="cursor: pointer;"><path id="kity_path_207" fill="white" stroke="gray" d="M106.0000069141388,83.5000025704503A6,6,0,1,1,94.0000069141388,83.5000025704503A6,6,0,1,1,106.0000069141388,83.5000025704503"></path><path id="kity_path_208" fill="none" stroke="gray" d="M95.5000069141388,83.5000025704503L104.5000069141388,83.5000025704503"></path></g><path id="node_outline9" fill="#8db3e2" stroke="rgb(115, 161, 191)" d="M23.500006400048733,90.50000291317701h153a3,3,0,0,1,3,3v26a3,3,0,0,1,-3,3h-153a3,3,0,0,1,-3,-3v-26a3,3,0,0,1,3,-3z" stroke-width="1"></path><g id="node_text9" fill="#ffffff"><text id="kity_text_99" text-rendering="inherit" font-family="微软雅黑,Microsoft YaHei" font-size="14" dy=".8em" font-weight="bold" y="97.40000288188457" x="65.50000640004873">平台 Platform</text></g><g id="node_priority1"><path id="kity_path_141" fill="#B25000" stroke="none" d="M41.00000603497028,110.00000277161598c0,3.866,3.134,7,7,7h6c3.866,0,7,-3.134,7,-7V104.00000277161598H41.00000603497028V110.00000277161598z"></path><path id="kity_path_142" fill="#FF962E" stroke="none" d="M61.00000603497028,107.00000277161598c0,3.866,-3.134,7,-7,7H48.00000603497028c-3.866,0,-7,-3.134,-7,-7V104.00000277161598c0,-3.866,3.134,-7,7,-7h6c3.866,0,7,3.134,7,7V107.00000277161598z" opacity="0.8"></path><text id="kity_text_143" text-rendering="geometricPrecision" x="50.0000060275197" y="106.5000027641654" text-anchor="middle" font-style="italic" font-size="12" fill="white" dy="5">4</text></g></g><g id="minder_node3"><g id="node_expander4" style="cursor: pointer;"><path id="kity_path_195" fill="white" stroke="gray" d="M48.500006057322025,152.50000359863043A6,6,0,1,1,36.500006057322025,152.50000359863043A6,6,0,1,1,48.500006057322025,152.50000359863043"></path><path id="kity_path_196" fill="none" stroke="gray" d="M38.000006057322025,152.50000359863043L47.000006057322025,152.50000359863043"></path></g><path id="node_outline5" fill="#8db3e2" stroke="none" d="M53.5000062212348,134.50000359863043h110a5,5,0,0,1,5,5v26a5,5,0,0,1,-5,5h-110a5,5,0,0,1,-5,-5v-26a5,5,0,0,1,5,-5z"></path><g id="node_text5" fill="#ffffff"><text id="kity_text_89" text-rendering="inherit" font-family="微软雅黑,Microsoft YaHei" font-size="12" dy=".8em" font-weight="bold" y="135.70000357180834" x="53.5000062212348">情感化设计</text><text id="kity_text_90" text-rendering="inherit" font-family="微软雅黑,Microsoft YaHei" font-size="12" dy=".8em" font-weight="bold" y="153.70000357180834" x="53.5000062212348">&#xa0;Emotional Design</text></g></g><g id="minder_node4"><g id="node_expander1" style="cursor: pointer;" display="none"><path id="kity_path_186" fill="white" stroke="gray" d="M76.50000647455454,187.50000412017107A6,6,0,1,1,64.50000647455454,187.50000412017107A6,6,0,1,1,76.50000647455454,187.50000412017107"></path><path id="kity_path_187" fill="none" stroke="gray"></path></g><path id="node_outline2" fill="none" stroke="none" d="M81.50000663846731,178.50000412017107h25a5,5,0,0,1,5,5v8a5,5,0,0,1,-5,5h-25a5,5,0,0,1,-5,-5v-8a5,5,0,0,1,5,-5z"></path><g id="node_text2" fill="black"><text id="kity_text_83" text-rendering="inherit" font-size="12" dy=".8em" y="179.70000409334898" x="81.50000663846731">本能</text></g></g><g id="minder_node5"><g id="node_expander2" style="cursor: pointer;" display="none"><path id="kity_path_189" fill="white" stroke="gray" d="M76.50000647455454,213.50000450760126A6,6,0,1,1,64.50000647455454,213.50000450760126A6,6,0,1,1,76.50000647455454,213.50000450760126"></path><path id="kity_path_190" fill="none" stroke="gray"></path></g><path id="node_outline3" fill="none" stroke="none" d="M81.50000663846731,204.50000450760126h25a5,5,0,0,1,5,5v8a5,5,0,0,1,-5,5h-25a5,5,0,0,1,-5,-5v-8a5,5,0,0,1,5,-5z"></path><g id="node_text3" fill="black"><text id="kity_text_85" text-rendering="inherit" font-size="12" dy=".8em" y="205.70000448077917" x="81.50000663846731">行为</text></g></g><g id="minder_node6"><g id="node_expander3" style="cursor: pointer;" display="none"><path id="kity_path_192" fill="white" stroke="gray" d="M76.50000647455454,239.50000489503145A6,6,0,1,1,64.50000647455454,239.50000489503145A6,6,0,1,1,76.50000647455454,239.50000489503145"></path><path id="kity_path_193" fill="none" stroke="gray"></path></g><path id="node_outline4" fill="none" stroke="none" d="M81.50000663846731,230.50000489503145h26a5,5,0,0,1,5,5v8a5,5,0,0,1,-5,5h-26a5,5,0,0,1,-5,-5v-8a5,5,0,0,1,5,-5z"></path><g id="node_text4" fill="black"><text id="kity_text_87" text-rendering="inherit" font-size="12" dy=".8em" y="231.70000486820936" x="81.50000663846731">反思</text></g></g><g id="minder_node7"><g id="node_expander7" style="cursor: pointer;"><path id="kity_path_204" fill="white" stroke="gray" d="M48.500006057322025,265.50000528246164A6,6,0,1,1,36.500006057322025,265.50000528246164A6,6,0,1,1,48.500006057322025,265.50000528246164"></path><path id="kity_path_205" fill="none" stroke="gray" d="M38.000006057322025,265.50000528246164L47.000006057322025,265.50000528246164"></path></g><path id="node_outline8" fill="#8db3e2" stroke="none" d="M53.5000062212348,256.50000528246164h129a5,5,0,0,1,5,5v8a5,5,0,0,1,-5,5h-129a5,5,0,0,1,-5,-5v-8a5,5,0,0,1,5,-5z"></path><g id="node_text8" fill="#ffffff"><text id="kity_text_97" text-rendering="inherit" font-family="微软雅黑,Microsoft YaHei" font-size="12" dy=".8em" font-weight="bold" y="257.70000525563955" x="53.5000062212348">过滤气泡&#xa0;Filter bubble</text></g></g><g id="minder_node8"><g id="node_expander5" style="cursor: pointer;" display="none"><path id="kity_path_198" fill="white" stroke="gray" d="M76.50000647455454,300.5000058040023A6,6,0,1,1,64.50000647455454,300.5000058040023A6,6,0,1,1,76.50000647455454,300.5000058040023"></path><path id="kity_path_199" fill="none" stroke="gray"></path></g><path id="node_outline6" fill="none" stroke="none" d="M81.50000663846731,282.5000058040023h194a5,5,0,0,1,5,5v26a5,5,0,0,1,-5,5h-194a5,5,0,0,1,-5,-5v-26a5,5,0,0,1,5,-5z"></path><g id="node_text6" fill="black"><text id="kity_text_92" text-rendering="inherit" font-size="12" dy=".8em" y="283.7000057771802" x="81.50000663846731">过滤气泡（Filter bubble）</text><text id="kity_text_93" text-rendering="inherit" font-size="12" dy=".8em" y="301.7000057771802" x="81.50000663846731">是一种能分隔开人们意识形态的算法</text></g></g><g id="minder_node9"><g id="node_expander6" style="cursor: pointer;" display="none"><path id="kity_path_201" fill="white" stroke="gray" d="M76.50000647455454,335.5000063255429A6,6,0,1,1,64.50000647455454,335.5000063255429A6,6,0,1,1,76.50000647455454,335.5000063255429"></path><path id="kity_path_202" fill="none" stroke="gray"></path></g><path id="node_outline7" fill="none" stroke="none" d="M81.50000663846731,326.5000063255429h49a5,5,0,0,1,5,5v8a5,5,0,0,1,-5,5h-49a5,5,0,0,1,-5,-5v-8a5,5,0,0,1,5,-5z"></path><g id="node_text7" fill="black"><text id="kity_text_95" text-rendering="inherit" font-size="12" dy=".8em" y="327.70000629872084" x="81.50000663846731">算法透明</text></g></g><g id="minder_node10"><g id="node_expander13" style="cursor: pointer;"><path id="kity_path_222" fill="white" stroke="gray" d="M367.00001080334187,83.5000025704503A6,6,0,1,1,355.00001080334187,83.5000025704503A6,6,0,1,1,367.00001080334187,83.5000025704503"></path><path id="kity_path_223" fill="none" stroke="gray" d="M356.50001080334187,83.5000025704503L365.50001080334187,83.5000025704503"></path></g><path id="node_outline14" fill="#8db3e2" stroke="rgb(115, 161, 191)" d="M299.5000105127692,90.50000291317701h123a3,3,0,0,1,3,3v26a3,3,0,0,1,-3,3h-123a3,3,0,0,1,-3,-3v-26a3,3,0,0,1,3,-3z" stroke-width="1"></path><g id="node_text14" fill="#ffffff"><text id="kity_text_110" text-rendering="inherit" font-family="微软雅黑,Microsoft YaHei" font-size="14" dy=".8em" font-weight="bold" y="97.40000288188457" x="341.5000105127692">用户 User</text></g><g id="node_priority2"><path id="kity_path_146" fill="#B25000" stroke="none" d="M317.0000101476908,110.00000277161598c0,3.866,3.134,7,7,7h6c3.866,0,7,-3.134,7,-7V104.00000277161598H317.0000101476908V110.00000277161598z"></path><path id="kity_path_147" fill="#FF962E" stroke="none" d="M337.0000101476908,107.00000277161598c0,3.866,-3.134,7,-7,7H324.0000101476908c-3.866,0,-7,-3.134,-7,-7V104.00000277161598c0,-3.866,3.134,-7,7,-7h6c3.866,0,7,3.134,7,7V107.00000277161598z" opacity="0.8"></path><text id="kity_text_148" text-rendering="geometricPrecision" x="326.0000101402402" y="106.5000027641654" text-anchor="middle" font-style="italic" font-size="12" fill="white" dy="5">4</text></g></g><g id="minder_node11"><g id="node_expander10" style="cursor: pointer;"><path id="kity_path_213" fill="white" stroke="gray" d="M324.5000101700425,152.50000359863043A6,6,0,1,1,312.5000101700425,152.50000359863043A6,6,0,1,1,324.5000101700425,152.50000359863043"></path><path id="kity_path_214" fill="none" stroke="gray" d="M314.0000101700425,152.50000359863043L323.0000101700425,152.50000359863043"></path></g><path id="node_outline11" fill="#8db3e2" stroke="none" d="M329.5000103339553,134.50000359863043h121a5,5,0,0,1,5,5v26a5,5,0,0,1,-5,5h-121a5,5,0,0,1,-5,-5v-26a5,5,0,0,1,5,-5z"></path><g id="node_text11" fill="#ffffff"><text id="kity_text_103" text-rendering="inherit" font-family="微软雅黑,Microsoft YaHei" font-size="12" dy=".8em" font-weight="bold" y="135.70000357180834" x="329.5000103339553">积极心理学&#xa0;</text><text id="kity_text_104" text-rendering="inherit" font-family="微软雅黑,Microsoft YaHei" font-size="12" dy=".8em" font-weight="bold" y="153.70000357180834" x="329.5000103339553">Positive Psychology</text></g></g><g id="minder_node12"><g id="node_expander9" style="cursor: pointer;" display="none"><path id="kity_path_210" fill="white" stroke="gray" d="M352.500010587275,187.50000412017107A6,6,0,1,1,340.500010587275,187.50000412017107A6,6,0,1,1,352.500010587275,187.50000412017107"></path><path id="kity_path_211" fill="none" stroke="gray"></path></g><path id="node_outline10" fill="none" stroke="none" d="M357.5000107511878,178.50000412017107h49a5,5,0,0,1,5,5v8a5,5,0,0,1,-5,5h-49a5,5,0,0,1,-5,-5v-8a5,5,0,0,1,5,-5z"></path><g id="node_text10" fill="black"><text id="kity_text_101" text-rendering="inherit" font-size="12" dy=".8em" y="179.70000409334898" x="357.5000107511878">三个目标</text></g></g><g id="minder_node13"><g id="node_expander12" style="cursor: pointer;"><path id="kity_path_219" fill="white" stroke="gray" d="M324.5000101700425,213.50000450760126A6,6,0,1,1,312.5000101700425,213.50000450760126A6,6,0,1,1,324.5000101700425,213.50000450760126"></path><path id="kity_path_220" fill="none" stroke="gray" d="M314.0000101700425,213.50000450760126L323.0000101700425,213.50000450760126"></path></g><path id="node_outline13" fill="#8db3e2" stroke="none" d="M329.5000103339553,204.50000450760126h64a5,5,0,0,1,5,5v8a5,5,0,0,1,-5,5h-64a5,5,0,0,1,-5,-5v-8a5,5,0,0,1,5,-5z"></path><g id="node_text13" fill="#ffffff"><text id="kity_text_108" text-rendering="inherit" font-family="微软雅黑,Microsoft YaHei" font-size="12" dy=".8em" font-weight="bold" y="205.70000448077917" x="329.5000103339553">情绪 Mood</text></g></g><g id="minder_node14"><g id="node_expander11" style="cursor: pointer;" display="none"><path id="kity_path_216" fill="white" stroke="gray" d="M352.500010587275,239.50000489503145A6,6,0,1,1,340.500010587275,239.50000489503145A6,6,0,1,1,352.500010587275,239.50000489503145"></path><path id="kity_path_217" fill="none" stroke="gray"></path></g><path id="node_outline12" fill="none" stroke="none" d="M357.5000107511878,230.50000489503145h84a5,5,0,0,1,5,5v8a5,5,0,0,1,-5,5h-84a5,5,0,0,1,-5,-5v-8a5,5,0,0,1,5,-5z"></path><g id="node_text12" fill="black"><text id="kity_text_106" text-rendering="inherit" font-size="12" dy=".8em" y="231.70000486820936" x="357.5000107511878">用幽默揭示真相</text></g></g><g id="minder_node15"><g id="node_expander21" style="cursor: pointer;"><path id="kity_path_246" fill="white" stroke="gray" d="M543.0000134259462,83.5000025704503A6,6,0,1,1,531.0000134259462,83.5000025704503A6,6,0,1,1,543.0000134259462,83.5000025704503"></path><path id="kity_path_247" fill="none" stroke="gray" d="M532.5000134259462,83.5000025704503L541.5000134259462,83.5000025704503"></path></g><path id="node_outline22" fill="#8db3e2" stroke="rgb(115, 161, 191)" d="M474.50001312047243,90.50000291317701h125a3,3,0,0,1,3,3v26a3,3,0,0,1,-3,3h-125a3,3,0,0,1,-3,-3v-26a3,3,0,0,1,3,-3z" stroke-width="1"></path><g id="node_text22" fill="#ffffff"><text id="kity_text_128" text-rendering="inherit" font-family="微软雅黑,Microsoft YaHei" font-size="14" dy=".8em" font-weight="bold" y="97.40000288188457" x="516.5000131204724">数据 Data</text></g><g id="node_priority3"><path id="kity_path_151" fill="#B25000" stroke="none" d="M492.000012755394,110.00000277161598c0,3.866,3.134,7,7,7h6c3.866,0,7,-3.134,7,-7V104.00000277161598H492.000012755394V110.00000277161598z"></path><path id="kity_path_152" fill="#FF962E" stroke="none" d="M512.000012755394,107.00000277161598c0,3.866,-3.134,7,-7,7H499.000012755394c-3.866,0,-7,-3.134,-7,-7V104.00000277161598c0,-3.866,3.134,-7,7,-7h6c3.866,0,7,3.134,7,7V107.00000277161598z" opacity="0.8"></path><text id="kity_text_153" text-rendering="geometricPrecision" x="501.0000127479434" y="106.5000027641654" text-anchor="middle" font-style="italic" font-size="12" fill="white" dy="5">4</text></g></g><g id="minder_node16"><g id="node_expander15" style="cursor: pointer;"><path id="kity_path_228" fill="white" stroke="gray" d="M499.5000127777457,143.50000346451998A6,6,0,1,1,487.5000127777457,143.50000346451998A6,6,0,1,1,499.5000127777457,143.50000346451998"></path><path id="kity_path_229" fill="none" stroke="gray" d="M489.0000127777457,143.50000346451998L498.0000127777457,143.50000346451998"></path></g><path id="node_outline16" fill="#8db3e2" stroke="none" d="M504.5000129416585,134.50000346451998h131a5,5,0,0,1,5,5v8a5,5,0,0,1,-5,5h-131a5,5,0,0,1,-5,-5v-8a5,5,0,0,1,5,-5z"></path><g id="node_text16" fill="#ffffff"><text id="kity_text_114" text-rendering="inherit" font-family="微软雅黑,Microsoft YaHei" font-size="12" dy=".8em" font-weight="bold" y="135.7000034376979" x="504.5000129416585">数字屑 Digital Crumbs</text></g></g><g id="minder_node17"><g id="node_expander14" style="cursor: pointer;" display="none"><path id="kity_path_225" fill="white" stroke="gray" d="M527.5000131949782,169.50000385195017A6,6,0,1,1,515.5000131949782,169.50000385195017A6,6,0,1,1,527.5000131949782,169.50000385195017"></path><path id="kity_path_226" fill="none" stroke="gray"></path></g><path id="node_outline15" fill="none" stroke="none" d="M532.500013358891,160.50000385195017h52a5,5,0,0,1,5,5v8a5,5,0,0,1,-5,5h-52a5,5,0,0,1,-5,-5v-8a5,5,0,0,1,5,-5z"></path><g id="node_text15" fill="black"><text id="kity_text_112" text-rendering="inherit" font-size="12" dy=".8em" y="161.70000382512808" x="532.500013358891">数据废气&#xa0;</text></g></g><g id="minder_node18"><g id="node_expander18" style="cursor: pointer;"><path id="kity_path_237" fill="white" stroke="gray" d="M499.5000127777457,195.50000423938036A6,6,0,1,1,487.5000127777457,195.50000423938036A6,6,0,1,1,499.5000127777457,195.50000423938036"></path><path id="kity_path_238" fill="none" stroke="gray" d="M489.0000127777457,195.50000423938036L498.0000127777457,195.50000423938036"></path></g><path id="node_outline19" fill="#8db3e2" stroke="none" d="M504.5000129416585,186.50000423938036h92a5,5,0,0,1,5,5v8a5,5,0,0,1,-5,5h-92a5,5,0,0,1,-5,-5v-8a5,5,0,0,1,5,-5z"></path><g id="node_text19" fill="#ffffff"><text id="kity_text_120" text-rendering="inherit" font-family="微软雅黑,Microsoft YaHei" font-size="12" dy=".8em" font-weight="bold" y="187.70000421255827" x="504.5000129416585">大数据 Big Data</text></g></g><g id="minder_node19"><g id="node_expander16" style="cursor: pointer;" display="none"><path id="kity_path_231" fill="white" stroke="gray" d="M527.5000131949782,221.50000462681055A6,6,0,1,1,515.5000131949782,221.50000462681055A6,6,0,1,1,527.5000131949782,221.50000462681055"></path><path id="kity_path_232" fill="none" stroke="gray"></path></g><path id="node_outline17" fill="none" stroke="none" d="M532.500013358891,212.50000462681055h124a5,5,0,0,1,5,5v8a5,5,0,0,1,-5,5h-124a5,5,0,0,1,-5,-5v-8a5,5,0,0,1,5,-5z"></path><g id="node_text17" fill="black"><text id="kity_text_116" text-rendering="inherit" font-size="12" dy=".8em" y="213.70000459998846" x="532.500013358891">Big data&#xa0;巨量数据集合</text></g></g><g id="minder_node20"><g id="node_expander17" style="cursor: pointer;" display="none"><path id="kity_path_234" fill="white" stroke="gray" d="M527.5000131949782,247.50000501424074A6,6,0,1,1,515.5000131949782,247.50000501424074A6,6,0,1,1,527.5000131949782,247.50000501424074"></path><path id="kity_path_235" fill="none" stroke="gray"></path></g><path id="node_outline18" fill="none" stroke="none" d="M532.500013358891,238.50000501424074h170a5,5,0,0,1,5,5v8a5,5,0,0,1,-5,5h-170a5,5,0,0,1,-5,-5v-8a5,5,0,0,1,5,-5z"></path><g id="node_text18" fill="black"><text id="kity_text_118" text-rendering="inherit" font-size="12" dy=".8em" y="239.70000498741865" x="532.500013358891">数据共享：取之有道，用之有道</text></g></g><g id="minder_node21"><g id="node_expander20" style="cursor: pointer;"><path id="kity_path_243" fill="white" stroke="gray" d="M499.5000127777457,273.50000540167093A6,6,0,1,1,487.5000127777457,273.50000540167093A6,6,0,1,1,499.5000127777457,273.50000540167093"></path><path id="kity_path_244" fill="none" stroke="gray" d="M489.0000127777457,273.50000540167093L498.0000127777457,273.50000540167093"></path></g><path id="node_outline21" fill="#8db3e2" stroke="none" d="M504.5000129416585,264.50000540167093h188a5,5,0,0,1,5,5v8a5,5,0,0,1,-5,5h-188a5,5,0,0,1,-5,-5v-8a5,5,0,0,1,5,-5z"></path><g id="node_text21" fill="#ffffff"><text id="kity_text_126" text-rendering="inherit" font-family="微软雅黑,Microsoft YaHei" font-size="12" dy=".8em" font-weight="bold" y="265.70000537484884" x="504.5000129416585">推荐系统 Recommender System</text></g></g><g id="minder_node22"><g id="node_expander19" style="cursor: pointer;" display="none"><path id="kity_path_240" fill="white" stroke="gray" d="M527.5000131949782,317.500006057322A6,6,0,1,1,515.5000131949782,317.500006057322A6,6,0,1,1,527.5000131949782,317.500006057322"></path><path id="kity_path_241" fill="none" stroke="gray"></path></g><path id="node_outline20" fill="none" stroke="none" d="M532.500013358891,290.500006057322h349a5,5,0,0,1,5,5v44a5,5,0,0,1,-5,5h-349a5,5,0,0,1,-5,-5v-44a5,5,0,0,1,5,-5z" stroke-width="3"></path><g id="node_text20" fill="black"><text id="kity_text_122" text-rendering="inherit" font-size="12" dy=".8em" y="291.70000603049994" x="532.500013358891">推荐系统（Recommender System）</text><text id="kity_text_123" text-rendering="inherit" font-size="12" dy=".8em" y="309.70000603049994" x="532.500013358891">是一种信息过滤系统，根据用户的历史行为、</text><text id="kity_text_124" text-rendering="inherit" font-size="12" dy=".8em" y="327.70000603049994" x="532.500013358891">社交关系、兴趣点，算法可以判断用户当前感兴趣的物品或内容。</text></g></g><g id="minder_node23"><g id="node_expander26" style="cursor: pointer;"><path id="kity_path_261" fill="white" stroke="gray" d="M998.5000202134252,83.5000025704503A6,6,0,1,1,986.5000202134252,83.5000025704503A6,6,0,1,1,998.5000202134252,83.5000025704503"></path><path id="kity_path_262" fill="none" stroke="gray" d="M988.0000202134252,83.5000025704503L997.0000202134252,83.5000025704503"></path></g><path id="node_outline27" fill="#8db3e2" stroke="rgb(115, 161, 191)" d="M905.5000195428729,90.50000291317701h174a3,3,0,0,1,3,3v26a3,3,0,0,1,-3,3h-174a3,3,0,0,1,-3,-3v-26a3,3,0,0,1,3,-3z" stroke-width="1"></path><g id="node_text27" fill="#ffffff"><text id="kity_text_138" text-rendering="inherit" font-family="微软雅黑,Microsoft YaHei" font-size="14" dy=".8em" font-weight="bold" y="97.40000288188457" x="947.5000195428729">注意力 Attention</text></g><g id="node_priority4"><path id="kity_path_156" fill="#B25000" stroke="none" d="M923.0000191777945,110.00000277161598c0,3.866,3.134,7,7,7h6c3.866,0,7,-3.134,7,-7V104.00000277161598H923.0000191777945V110.00000277161598z"></path><path id="kity_path_157" fill="#FF962E" stroke="none" d="M943.0000191777945,107.00000277161598c0,3.866,-3.134,7,-7,7H930.0000191777945c-3.866,0,-7,-3.134,-7,-7V104.00000277161598c0,-3.866,3.134,-7,7,-7h6c3.866,0,7,3.134,7,7V107.00000277161598z" opacity="0.8"></path><text id="kity_text_158" text-rendering="geometricPrecision" x="932.0000191703439" y="106.5000027641654" text-anchor="middle" font-style="italic" font-size="12" fill="white" dy="5">4</text></g></g><g id="minder_node24"><g id="node_expander22" style="cursor: pointer;" display="none"><path id="kity_path_249" fill="white" stroke="gray" d="M930.5000192001462,143.50000346451998A6,6,0,1,1,918.5000192001462,143.50000346451998A6,6,0,1,1,930.5000192001462,143.50000346451998"></path><path id="kity_path_250" fill="none" stroke="gray"></path></g><path id="node_outline23" fill="none" stroke="none" d="M935.500019364059,134.50000346451998h193a5,5,0,0,1,5,5v8a5,5,0,0,1,-5,5h-193a5,5,0,0,1,-5,-5v-8a5,5,0,0,1,5,-5z" stroke-width="3"></path><g id="node_text23" fill="black"><text id="kity_text_130" text-rendering="inherit" font-size="12" dy=".8em" y="135.7000034376979" x="935.500019364059">用户的注意力成为被科技竞争的对象</text></g></g><g id="minder_node25"><g id="node_expander25" style="cursor: pointer;"><path id="kity_path_258" fill="white" stroke="gray" d="M930.5000192001462,169.50000385195017A6,6,0,1,1,918.5000192001462,169.50000385195017A6,6,0,1,1,930.5000192001462,169.50000385195017"></path><path id="kity_path_259" fill="none" stroke="gray" d="M920.0000192001462,169.50000385195017L929.0000192001462,169.50000385195017"></path></g><path id="node_outline26" fill="#8db3e2" stroke="none" d="M935.500019364059,160.50000385195017h87a5,5,0,0,1,5,5v8a5,5,0,0,1,-5,5h-87a5,5,0,0,1,-5,-5v-8a5,5,0,0,1,5,-5z" stroke-width="3"></path><g id="node_text26" fill="#ffffff"><text id="kity_text_136" text-rendering="inherit" font-family="微软雅黑,Microsoft YaHei" font-size="12" dy=".8em" font-weight="bold" y="161.70000382512808" x="935.500019364059">上瘾 Addiction</text></g></g><g id="minder_node26"><g id="node_expander23" style="cursor: pointer;" display="none"><path id="kity_path_252" fill="white" stroke="gray" d="M958.5000196173787,195.50000423938036A6,6,0,1,1,946.5000196173787,195.50000423938036A6,6,0,1,1,958.5000196173787,195.50000423938036"></path><path id="kity_path_253" fill="none" stroke="gray"></path></g><path id="node_outline24" fill="none" stroke="none" d="M963.5000197812915,186.50000423938036h108a5,5,0,0,1,5,5v8a5,5,0,0,1,-5,5h-108a5,5,0,0,1,-5,-5v-8a5,5,0,0,1,5,-5z" stroke-width="3"></path><g id="node_text24" fill="black"><text id="kity_text_132" text-rendering="inherit" font-size="12" dy=".8em" y="187.70000421255827" x="963.5000197812915">上瘾是对环境的适应</text></g></g><g id="minder_node27"><g id="node_expander24" style="cursor: pointer;" display="none"><path id="kity_path_255" fill="white" stroke="gray" d="M958.5000196173787,221.50000462681055A6,6,0,1,1,946.5000196173787,221.50000462681055A6,6,0,1,1,958.5000196173787,221.50000462681055"></path><path id="kity_path_256" fill="none" stroke="gray"></path></g><path id="node_outline25" fill="none" stroke="none" d="M963.5000197812915,212.50000462681055h157a5,5,0,0,1,5,5v8a5,5,0,0,1,-5,5h-157a5,5,0,0,1,-5,-5v-8a5,5,0,0,1,5,-5z" stroke-width="3"></path><g id="node_text25" fill="black"><text id="kity_text_134" text-rendering="inherit" font-size="12" dy=".8em" y="213.70000459998846" x="963.5000197812915">让用户上瘾，是设计者的目的</text></g></g><g id="kity_g_12" display="none"><path id="kity_path_13" fill="none" stroke="rgb(66, 94, 112)" d="M363.5000114366412,78.50000201910734h123a3,3,0,0,1,3,3v26a3,3,0,0,1,-3,3h-123a3,3,0,0,1,-3,-3v-26a3,3,0,0,1,3,-3z" stroke-width="5"></path></g></g></g></svg>